<svg xmlns="http://www.w3.org/2000/svg" viewBox="0 0 750 500"><path d="M118.08 202.76h-3.42l-7.47-10.41v-6.83s-5.29-.32-4.66 8.62-.06 6.67-.06 6.67-11.23 0-12.16 1c-.68.71-1 11.86-1.1 17.91a6.55 6.55 0 0 0 4.64 6.6 5 5 0 0 0 1.21.16c2.8 0 17.11-2.28 17.11-2.28h5.91ZM127.88 200.88l-2.11 23.41h-5.86v-22.93l7.97-.48z" style="fill:#ebebeb"/><path d="M664.87 146.62a36.1 36.1 0 0 0-.8-5.11 20.55 20.55 0 0 0-2.36-5.55 20.82 20.82 0 0 0-25-8.83 19.54 19.54 0 0 0-5.25 2.83 19.3 19.3 0 0 0-4.38 4.41 20.65 20.65 0 0 0 0 24.51 20.76 20.76 0 0 0 9.63 7.24 20.88 20.88 0 0 0 25-8.83 20.55 20.55 0 0 0 2.36-5.55 36.09 36.09 0 0 0 .8-5.12 1.35 1.35 0 0 1 0 .35v1a9.47 9.47 0 0 1-.13 1.64 14.06 14.06 0 0 1-.39 2.2 19.93 19.93 0 0 1-2.29 5.69 20.9 20.9 0 0 1-5.37 6.1 21.21 21.21 0 0 1-9 4.05 21.46 21.46 0 0 1-11.25-.89 20.16 20.16 0 0 1-5.44-2.91 20 20 0 0 1-4.54-4.54 21.3 21.3 0 0 1 0-25.37 21.3 21.3 0 0 1 10-7.45 21.46 21.46 0 0 1 11.25-.89 21.31 21.31 0 0 1 14.34 10.15 19.93 19.93 0 0 1 2.29 5.69 14.06 14.06 0 0 1 .39 2.2 9.44 9.44 0 0 1 .13 1.63v1a1.23 1.23 0 0 1 .01.35Z" style="fill:#e0e0e0"/><path d="M693.21 181.84c-.11.17-7.58-4.64-16.67-10.74s-16.37-11.19-16.26-11.36 7.58 4.64 16.67 10.75 16.37 11.18 16.26 11.35Z" style="fill:#e0e0e0"/><path style="fill:#ebebeb" d="M146.53 365.87h85.34V475.9h-85.34z"/><path style="fill:#f5f5f5" d="M118.45 365.87h85.34V475.9h-85.34z"/><path d="M135.87 376.51v-4.77h-8.05v4.77a4 4 0 0 0 3.51 4v4.15h-1.79c-.62 0-1.14.37-1.14.81h6.89c0-.44-.52-.81-1.14-.81h-1.79v-4.15a4 4 0 0 0 3.51-4ZM151.3 376.19a5.87 5.87 0 0 0-5.68-4.45 5.87 5.87 0 0 0-5.68 4.45h5.14v7.49a1.14 1.14 0 0 1-1.14 1 1.13 1.13 0 0 1-1.13-1h-1.1a2.23 2.23 0 0 0 4.46 0v-7.49Z" style="fill:#e0e0e0;fill-rule:evenodd"/><path d="M232.08 418.52c0 .15-25.61.26-57.2.26s-57.21-.11-57.21-.26 25.61-.26 57.21-.26 57.2.12 57.2.26Z" style="fill:#e0e0e0"/><path d="M161.12 476.35c-.14 0-.26-24.76-.26-55.31s.12-55.32.26-55.32.26 24.76.26 55.32-.12 55.31-.26 55.31Z" style="fill:#e0e0e0"/><path style="fill:#ebebeb" d="M570 311.57h85.34V421.6H570z"/><path style="fill:#f5f5f5" d="M541.93 311.57h85.34V421.6h-85.34z"/><path d="M559.35 322.21v-4.78h-8.06v4.78a4 4 0 0 0 3.52 4v4.16H553c-.63 0-1.14.36-1.14.8h6.88c0-.44-.51-.8-1.14-.8h-1.79v-4.17a4 4 0 0 0 3.54-3.99ZM574.77 321.89a5.87 5.87 0 0 0-5.67-4.46 5.87 5.87 0 0 0-5.68 4.46h5.13v7.49a1.13 1.13 0 0 1-1.13 1 1.14 1.14 0 0 1-1.14-1h-1.09a2.23 2.23 0 0 0 4.46 0v-7.49Z" style="fill:#e0e0e0;fill-rule:evenodd"/><path d="M655.56 364.22c0 .14-25.62.26-57.2.26s-57.21-.12-57.21-.26 25.61-.26 57.21-.26 57.2.12 57.2.26Z" style="fill:#e0e0e0"/><path d="M584.6 422.05c-.15 0-.26-24.77-.26-55.31s.11-55.33.26-55.33.26 24.77.26 55.33-.12 55.31-.26 55.31Z" style="fill:#e0e0e0"/><path style="fill:#ebebeb" d="M485.34 349.53h71.69v71.69h-71.69z"/><path style="fill:#f5f5f5" d="M456.95 349.53h71.69v71.69h-71.69z"/><path style="fill:#e0e0e0;fill-rule:evenodd" d="M476.28 361.63h2.04l-1.75-3.22-1.76-3.23-1.76 3.23-1.76 3.22h2.05v8.11h-5.03v-8.11h2.05l-1.76-3.22-1.76-3.23-1.76 3.23-1.75 3.22h2.04v8.11h-1.19v1.12h13.29v-1.12h-1.19v-8.11z"/><path d="M493.59 421.11c-.15 0-.27-15.9-.27-35.52s.12-35.52.27-35.52.26 15.9.26 35.52-.12 35.52-.26 35.52Z" style="fill:#e0e0e0"/><path d="M557.71 385.28c0 .14-22.7.26-50.71.26s-50.72-.12-50.72-.26S479 385 507 385s50.71.13 50.71.28Z" style="fill:#e0e0e0"/><path d="M689 476.93H264.18A27.94 27.94 0 0 1 236.24 449a27.94 27.94 0 0 1 27.94-28H689a27.94 27.94 0 0 1 28 28 28 28 0 0 1-28 27.93Z" style="fill:#e0e0e0;fill-rule:evenodd"/><path d="M691.6 464.82H264.38A15.84 15.84 0 0 1 248.54 449a15.84 15.84 0 0 1 15.84-15.84H691.6A15.84 15.84 0 0 1 707.44 449a15.84 15.84 0 0 1-15.84 15.82Z" style="fill:#ebebeb;fill-rule:evenodd"/><path d="M279.43 449a25 25 0 0 0-.51-3.15 12.93 12.93 0 0 0-4.74-7 12.77 12.77 0 0 0-5.39-2.37 13 13 0 0 0-6.71.57 11.81 11.81 0 0 0-3.23 1.75 11.93 11.93 0 0 0-2.69 2.71 12.69 12.69 0 0 0 0 15.07 12.14 12.14 0 0 0 2.69 2.71 11.78 11.78 0 0 0 3.23 1.74 12.78 12.78 0 0 0 6.71.57 12.53 12.53 0 0 0 5.39-2.37 12.93 12.93 0 0 0 4.74-7 24.64 24.64 0 0 0 .51-3.15 4.81 4.81 0 0 1 0 .83 5.57 5.57 0 0 1-.08 1 8.9 8.9 0 0 1-.24 1.36 12.92 12.92 0 0 1-4.71 7.28 13.08 13.08 0 0 1-5.54 2.51 13.3 13.3 0 0 1-7-.55 12.68 12.68 0 0 1-3.36-1.79 12.44 12.44 0 0 1-2.8-2.81 13.16 13.16 0 0 1 0-15.68 12.24 12.24 0 0 1 2.81-2.8 12.51 12.51 0 0 1 3.35-1.8 13.26 13.26 0 0 1 6.95-.54 13.1 13.1 0 0 1 10.26 9.78 9.12 9.12 0 0 1 .24 1.36 5.7 5.7 0 0 1 .08 1 4.74 4.74 0 0 1 .04.77Z" style="fill:#e0e0e0"/><circle cx="266.42" cy="448.98" r="4.7" style="fill:#e0e0e0"/><path d="M703.44 449a25 25 0 0 0-.51-3.15 12.86 12.86 0 0 0-16.85-8.85 11.9 11.9 0 0 0-3.22 1.75 11.77 11.77 0 0 0-2.7 2.71 12.73 12.73 0 0 0 0 15.07 12.87 12.87 0 0 0 5.92 4.45 12.79 12.79 0 0 0 6.71.57 12.63 12.63 0 0 0 5.4-2.37 13 13 0 0 0 4.74-7 24.64 24.64 0 0 0 .51-3.15 10.12 10.12 0 0 1-.07 1.84 8.9 8.9 0 0 1-.24 1.36 13.14 13.14 0 0 1-10.26 9.77 13.27 13.27 0 0 1-7-.55 12.53 12.53 0 0 1-3.36-1.79 12.28 12.28 0 0 1-2.81-2.81 13.2 13.2 0 0 1 0-15.68 13.38 13.38 0 0 1 6.17-4.6 13.26 13.26 0 0 1 7-.54 13.1 13.1 0 0 1 10.26 9.78 9.12 9.12 0 0 1 .24 1.36 6.85 6.85 0 0 1 .08 1 6.51 6.51 0 0 1-.01.83Z" style="fill:#e0e0e0"/><circle cx="690.43" cy="448.98" r="4.7" style="fill:#e0e0e0"/><path d="M691.63 435.84c0 .15-95.2.27-212.59.27s-212.62-.12-212.62-.27 95.18-.26 212.62-.26 212.59.12 212.59.26ZM691.63 462c0 .14-94.8.26-211.71.26s-211.73-.12-211.73-.26 94.78-.26 211.73-.26 211.71.1 211.71.26Z" style="fill:#e0e0e0"/><path d="M712.17 477.45c0 .14-151 .26-337.15.26s-337.19-.12-337.19-.26 150.94-.26 337.19-.26 337.15.11 337.15.26Z" style="fill:#263238"/><rect x="161.67" y="67.6" width="204.21" height="282.75" rx="6.36" style="fill:#3c37d8"/><rect x="161.67" y="67.6" width="204.21" height="282.75" rx="6.36" style="opacity:.30000000000000004"/><path style="fill:#e0e0e0" d="M176 82.72h175.55v257.73H176z"/><path style="fill:#ebebeb" d="M173.58 80.66h175.55v252.81H173.58z"/><path d="M349.14 333.46c0-2.11-.1-103.64-.24-252.8l.24.23H173.61l.26-.26c0 94.93 0 182.63-.05 252.8l-.21-.21 175.56.21-175.56.21h-.21v-.21c0-70.17 0-157.87-.05-252.8v-.23H349.4v.24c-.17 149.18-.26 250.71-.26 252.82Z" style="fill:#263238"/><path d="M286.86 333.46s45.11-17.17 61.86-45.65a46.87 46.87 0 0 1-36.05 7.5s-11.94 31.87-25.81 38.15Z" style="fill:#e0e0e0"/><path d="m286.86 333.46.75-.42a20.18 20.18 0 0 0 2.16-1.37 36.17 36.17 0 0 0 6.75-6.76c5.1-6.47 10.87-16.79 15.93-29.68l.08-.19h.19a46.11 46.11 0 0 0 16.33.33c1.43-.18 2.83-.56 4.27-.86s2.84-.78 4.24-1.3a47.69 47.69 0 0 0 8.25-3.83c1-.59 1.93-1.19 2.75-1.81l1.08-.83-.7 1.16a71 71 0 0 1-9.69 12.55 106.84 106.84 0 0 1-11 9.8 157.24 157.24 0 0 1-20.8 13.54c-6.18 3.39-11.35 5.79-14.94 7.36-1.8.79-3.22 1.36-4.18 1.73l-1.09.42a2.15 2.15 0 0 1-.39.12s.12-.07.37-.17l1.08-.46c.94-.41 2.34-1 4.13-1.82 3.56-1.63 8.7-4.08 14.85-7.5A160 160 0 0 0 328 309.92a105.05 105.05 0 0 0 10.91-9.78 71.13 71.13 0 0 0 9.62-12.46l.38.33a32.38 32.38 0 0 1-2.8 1.86 48.62 48.62 0 0 1-8.34 3.86c-1.42.53-2.87.92-4.3 1.32s-2.87.69-4.32.86a46.51 46.51 0 0 1-16.49-.37l.26-.15c-5.11 12.93-11 23.24-16.15 29.69a34.67 34.67 0 0 1-6.89 6.71 16.21 16.21 0 0 1-3.02 1.67Z" style="fill:#263238"/><rect x="194.12" y="149.55" width="21.46" height="21.46" rx="3.42" style="fill:#3c37d8"/><path d="M203.5 163.38a.5.5 0 0 1-.36-.18l-3-3.5a.51.51 0 0 1 .06-.71.49.49 0 0 1 .7 0l2.65 3.1 7-7.13a.51.51 0 0 1 .71 0 .5.5 0 0 1 0 .71l-7.34 7.52a.55.55 0 0 1-.42.19Z" style="fill:#fff"/><path d="M328.66 152.16c0 .15-22.84.26-51 .26s-51-.11-51-.26 22.83-.26 51-.26 51 .1 51 .26ZM269.62 167.86a11.41 11.41 0 0 1-1.69.1l-4.61.08c-3.88.05-9.26.08-15.19.08s-11.31 0-15.2-.08l-4.61-.08a11.34 11.34 0 0 1-1.68-.1 9.82 9.82 0 0 1 1.68-.1l4.61-.09c3.89 0 9.26-.07 15.2-.07s11.31 0 15.19.07l4.61.09a9.89 9.89 0 0 1 1.69.1ZM328.66 159.12c0 .14-22.84.26-51 .26s-51-.12-51-.26 22.83-.26 51-.26 51 .14 51 .26Z" style="fill:#263238"/><rect x="194.12" y="187.22" width="21.46" height="21.46" rx="3.42" style="fill:#3c37d8"/><path d="M203.5 201a.46.46 0 0 1-.36-.17l-3-3.51a.5.5 0 0 1 .76-.65l2.65 3.09 7-7.12a.5.5 0 1 1 .71.7l-7.34 7.51a.51.51 0 0 1-.42.15Z" style="fill:#fff"/><path d="M328.66 189.83c0 .14-22.84.26-51 .26s-51-.12-51-.26 22.83-.26 51-.26 51 .12 51 .26ZM269.62 205.53a11.41 11.41 0 0 1-1.69.1l-4.61.08c-3.88 0-9.26.08-15.19.08s-11.31 0-15.2-.08l-4.61-.08a11.34 11.34 0 0 1-1.68-.1 10.32 10.32 0 0 1 1.68-.11l4.61-.08c3.89-.05 9.26-.07 15.2-.07s11.31 0 15.19.07l4.61.08a10.39 10.39 0 0 1 1.69.11ZM328.66 196.79c0 .14-22.84.26-51 .26s-51-.12-51-.26 22.83-.26 51-.26 51 .11 51 .26Z" style="fill:#263238"/><rect x="194.12" y="224.89" width="21.46" height="21.46" rx="3.42" style="fill:#3c37d8"/><path d="M203.5 238.71a.49.49 0 0 1-.36-.17l-3-3.51a.5.5 0 1 1 .76-.65l2.65 3.09 7-7.12a.5.5 0 1 1 .71.7l-7.34 7.51a.51.51 0 0 1-.42.15Z" style="fill:#fff"/><path d="M328.66 227.5c0 .14-22.84.26-51 .26s-51-.12-51-.26 22.83-.26 51-.26 51 .11 51 .26ZM269.62 243.19a9.89 9.89 0 0 1-1.69.1l-4.61.09c-3.88 0-9.26.07-15.19.07s-11.31 0-15.2-.07l-4.61-.09a9.82 9.82 0 0 1-1.68-.1 11.34 11.34 0 0 1 1.68-.1l4.61-.08c3.89 0 9.26-.08 15.2-.08s11.31 0 15.19.08l4.61.08a11.41 11.41 0 0 1 1.69.1ZM328.66 234.45c0 .15-22.84.26-51 .26s-51-.11-51-.26 22.83-.26 51-.26 51 .12 51 .26Z" style="fill:#263238"/><rect x="194.12" y="262.55" width="21.46" height="21.46" rx="3.42" style="fill:#3c37d8"/><path d="M203.5 276.38a.5.5 0 0 1-.36-.18l-3-3.5a.51.51 0 0 1 .06-.71.49.49 0 0 1 .7.06l2.65 3.09 7-7.13a.5.5 0 0 1 .71 0 .49.49 0 0 1 0 .7l-7.34 7.52a.55.55 0 0 1-.42.15Z" style="fill:#fff"/><path d="M328.66 265.17c0 .14-22.84.26-51 .26s-51-.12-51-.26 22.83-.27 51-.27 51 .1 51 .27ZM269.62 280.86a9.89 9.89 0 0 1-1.69.1l-4.61.08c-3.88 0-9.26.08-15.19.08s-11.31 0-15.2-.08l-4.61-.08a9.82 9.82 0 0 1-1.68-.1 9.82 9.82 0 0 1 1.68-.1l4.61-.08c3.89-.05 9.26-.08 15.2-.08s11.31 0 15.19.08l4.61.08a9.89 9.89 0 0 1 1.69.1ZM328.66 272.12c0 .14-22.84.26-51 .26s-51-.12-51-.26 22.83-.26 51-.26 51 .14 51 .26ZM228.87 129.45a2.85 2.85 0 0 1-2.25 1c-1.17 0-2-.45-3.3-1.78a4.35 4.35 0 0 1-4.14-4.4 4.63 4.63 0 0 1 9.26 0 4.31 4.31 0 0 1-3.22 4.24 1.88 1.88 0 0 0 1.44.73 2 2 0 0 0 1.47-.69Zm-5.06-2.13a3 3 0 1 0-3-3 2.93 2.93 0 0 0 3 3ZM236.33 122v6.56h-1.46v-.83a2.67 2.67 0 0 1-2.11.92 2.6 2.6 0 0 1-2.83-2.9V122h1.54v3.54c0 1.19.56 1.76 1.54 1.76a1.73 1.73 0 0 0 1.79-2V122ZM243.84 124.75v3.84h-1.45v-.79a2.34 2.34 0 0 1-2.07.88c-1.49 0-2.44-.82-2.44-2s.74-1.95 2.73-1.95h1.69v-.1c0-.89-.54-1.42-1.63-1.42a3.21 3.21 0 0 0-2 .65l-.6-1.12a4.61 4.61 0 0 1 2.77-.81c1.9.07 3 .93 3 2.82Zm-1.54 1.79v-.76h-1.58c-1.05 0-1.33.39-1.33.87s.47.91 1.25.91a1.67 1.67 0 0 0 1.66-1.02ZM245.8 119.48h1.54v9.11h-1.54ZM249.14 120a.94.94 0 0 1 1-.92.92.92 0 0 1 1 .89 1 1 0 0 1-2 0Zm.21 2h1.54v6.56h-1.54ZM256.84 128.24a2.44 2.44 0 0 1-1.47.44 2 2 0 0 1-2.26-2.21v-3.16H252v-1.23h1.08v-1.5h1.53v1.5h1.76v1.23h-1.76v3.12c0 .64.32 1 .91 1a1.34 1.34 0 0 0 .86-.27Z" style="fill:#263238"/><path d="m264.13 122-3.07 7.09a2.55 2.55 0 0 1-2.53 1.94 2.71 2.71 0 0 1-1.76-.6l.61-1.13a1.7 1.7 0 0 0 1.13.45c.54 0 .86-.25 1.16-.9l.11-.26-2.86-6.59h1.59l2.07 4.86 2.07-4.86ZM267.93 124.29a4.32 4.32 0 0 1 4.51-4.37 4.21 4.21 0 0 1 3.15 1.25l-.58.58a3.42 3.42 0 0 0-2.54-1 3.57 3.57 0 1 0 0 7.13 3.39 3.39 0 0 0 2.54-1l.58.57a4.2 4.2 0 0 1-3.16 1.27 4.32 4.32 0 0 1-4.5-4.43ZM276.41 125.36a3.29 3.29 0 1 1 3.29 3.3 3.18 3.18 0 0 1-3.29-3.3Zm5.68 0a2.4 2.4 0 1 0-2.39 2.52 2.35 2.35 0 0 0 2.39-2.52ZM290.7 124.85v3.74h-.87v-3.66a1.8 1.8 0 0 0-1.94-2.06 2.12 2.12 0 0 0-2.26 2.33v3.39h-.87v-6.46h.83v1.19a2.73 2.73 0 0 1 2.46-1.24 2.47 2.47 0 0 1 2.65 2.77ZM296.48 128.2a2.08 2.08 0 0 1-1.37.46 1.71 1.71 0 0 1-1.89-1.88v-3.91h-1.15v-.74h1.15v-1.41h.87v1.41h2v.74h-2v3.86a1 1 0 0 0 1.12 1.18 1.41 1.41 0 0 0 1-.34ZM301.31 122.08v.85h-.2a2.09 2.09 0 0 0-2.18 2.38v3.29h-.87v-6.46h.83v1.27a2.45 2.45 0 0 1 2.42-1.33ZM302.17 125.36a3.29 3.29 0 1 1 3.3 3.3 3.18 3.18 0 0 1-3.3-3.3Zm5.69 0a2.4 2.4 0 1 0-2.39 2.52 2.35 2.35 0 0 0 2.39-2.52ZM310.52 119.48h.88v9.11h-.88ZM199 64.92v13.23a13.9 13.9 0 0 0 13.9 13.91H310a13.91 13.91 0 0 0 13.91-13.91V65Z" style="fill:#263238"/><path d="M261.36 68.83a13 13 0 1 1 13-13 13.06 13.06 0 0 1-13 13Zm0-21.08a8 8 0 1 0 8 8 8.05 8.05 0 0 0-8-8Z" style="fill:#263238"/><path d="m621.18 444 5.2 22.12 10.29 17.65a2.54 2.54 0 0 1-1.07 3.56 2.5 2.5 0 0 1-2.33 0c-4.62-2.49-21.56-11.74-21.9-13.52-.4-2.07-7.1-25.35-7.1-25.35Z" style="fill:#3c37d8"/><g style="opacity:.6000000000000001"><path d="m635.6 487.36-24.68-15.18.28 1a3.84 3.84 0 0 0 1.53 2.15c2 1.36 7.66 5 20.47 12a2.55 2.55 0 0 0 2.4 0Z" style="fill:#fff"/></g><g style="opacity:.6000000000000001"><path d="M613.69 463.11a1.55 1.55 0 0 1 .95 1.83 1.48 1.48 0 0 1-1.8.94 1.61 1.61 0 0 1-1-1.93 1.53 1.53 0 0 1 2-.78" style="fill:#fff"/></g><path d="M627.24 478.42a7.82 7.82 0 0 1 1.58-2.44 8 8 0 0 1 2.61-1.29c0-.06-.35-.16-.93-.09a4.05 4.05 0 0 0-2 1 4 4 0 0 0-1.2 1.91c-.18.55-.12.91-.06.91ZM629.83 481.15c.14.08.7-.91 1.83-1.61a21.8 21.8 0 0 1 2.26-1 2.83 2.83 0 0 0-2.55.49c-1.29.85-1.68 2.09-1.54 2.12ZM622.93 475.19a27.61 27.61 0 0 1 2.67-2.68 27.13 27.13 0 0 1 3.32-1.81 7 7 0 0 0-6 4.49ZM620.48 468c.1.13 1.27-.79 3-1.33s3.18-.5 3.19-.66a6.35 6.35 0 0 0-6.16 2ZM618.52 461a8.06 8.06 0 0 1 6.45-1.55c0-.06-.32-.29-1-.46a5.53 5.53 0 0 0-4.84 1.17c-.46.45-.66.84-.61.84ZM621.17 458.22a2.27 2.27 0 0 0-.22-.91 6.61 6.61 0 0 0-1.37-2.17 2.9 2.9 0 0 0-1.57-1 1 1 0 0 0-1 .53 1.66 1.66 0 0 0-.07 1.18 3.6 3.6 0 0 0 3.92 2.37 4.17 4.17 0 0 0 3.36-3.2 1.4 1.4 0 0 0-.25-1.17 1 1 0 0 0-1.15-.24 3.53 3.53 0 0 0-1.35 1.26 7.31 7.31 0 0 0-1.12 2.31 2.25 2.25 0 0 0-.14.93 11.54 11.54 0 0 1 1.56-3 3.25 3.25 0 0 1 1.21-1.06.51.51 0 0 1 .62.12 1 1 0 0 1 .13.78 3.75 3.75 0 0 1-2.95 2.74 3.12 3.12 0 0 1-3.36-2 1.17 1.17 0 0 1 0-.83.54.54 0 0 1 .57-.3 2.59 2.59 0 0 1 1.34.82 9.71 9.71 0 0 1 1.84 2.84Z" style="fill:#263238"/><path d="m605.03 451.09.94 3.31 16.78-3.69-.56-2.41-17.16 2.79z" style="opacity:.30000000000000004"/><path d="m554.46 449.81 1.16 17.67s-17.57 7.12-17.62 10.41l34.35-1-.69-27.62Z" style="fill:#3c37d8"/><g style="opacity:.6000000000000001"><path d="M566.2 465.67a1.41 1.41 0 0 1 1 1.57 1.35 1.35 0 0 1-1.55 1 1.49 1.49 0 0 1-1.07-1.67 1.41 1.41 0 0 1 1.73-.89" style="fill:#fff"/></g><g style="opacity:.6000000000000001"><path d="m572.3 476.86-.07-2.76-33 2s-1.51.71-1.3 1.78Z" style="fill:#fff"/></g><path d="M555.06 467.32c0 .17.85.22 1.7.74s1.3 1.2 1.45 1.13-.13-1-1.16-1.64-2.05-.38-1.99-.23ZM551.5 468.92c0 .16.71.43 1.3 1.12s.77 1.44.94 1.43.25-1-.5-1.82-1.74-.89-1.74-.73ZM549.59 473.29c.15 0 .36-.81-.1-1.72s-1.25-1.24-1.32-1.1.43.62.8 1.37.45 1.44.62 1.45ZM555.24 463.26c.08.16.84-.1 1.79-.06s1.7.31 1.78.16-.64-.72-1.76-.75-1.89.53-1.81.65Z" style="fill:#263238"/><path d="m554.53 450.44.2 3.14 16.98-.49v-3.13l-17.18.48z" style="opacity:.30000000000000004"/><path d="M555.07 459.69a3.14 3.14 0 0 0 1.72-.06 7.37 7.37 0 0 0 1.79-.6 8.05 8.05 0 0 0 1-.56 2 2 0 0 0 .51-.42.73.73 0 0 0 .05-.89.93.93 0 0 0-.75-.36 2 2 0 0 0-.64.11 6.29 6.29 0 0 0-1.06.39 6.36 6.36 0 0 0-1.56 1.09c-.77.77-1 1.4-1 1.43s.45-.48 1.25-1.12a7.16 7.16 0 0 1 1.5-.91 7.51 7.51 0 0 1 1-.33c.36-.11.67-.12.77 0s0 .08 0 .19a2.07 2.07 0 0 1-.37.31 8.7 8.7 0 0 1-.9.55 9.58 9.58 0 0 1-1.64.68 13.52 13.52 0 0 0-1.67.5Z" style="fill:#263238"/><path d="M555.3 459.93a2.8 2.8 0 0 0 .4-1.68 5.31 5.31 0 0 0-.29-1.87 5.23 5.23 0 0 0-.47-1 1.42 1.42 0 0 0-1.12-.84.82.82 0 0 0-.71.5 2.44 2.44 0 0 0-.15.64 4.07 4.07 0 0 0 0 1.16 4 4 0 0 0 .79 1.75c.7.87 1.4 1.05 1.42 1s-.55-.39-1.09-1.23a4.08 4.08 0 0 1-.59-1.6 3.65 3.65 0 0 1 0-1c.05-.37.17-.67.31-.64s.47.26.62.55a5.27 5.27 0 0 1 .46.92 6.25 6.25 0 0 1 .38 1.71c.11.97-.05 1.61.04 1.63ZM597.61 162.46a3.12 3.12 0 0 0-.41 3.89 10.56 10.56 0 0 0 3 3 7.07 7.07 0 0 1 2.72 3.2c.82 2.5-1 5.34 0 7.78.84 2.12 3.45 3 4.61 5s.53 4.61-.33 6.8-1.92 4.48-1.47 6.79c.25 1.27 1 2.49.81 3.78-.21 1.87-2.09 3-3.87 3.67a17.93 17.93 0 0 1-9.1.7c-2.2-.41-4.46-1.35-5.63-3.25-1-1.62-1-3.65-1-5.57a163.41 163.41 0 0 1 4.1-33" style="fill:#263238"/><path d="m535.88 238.14 10.61-25.27s7.39-23 19.16-22.63l2.84 20.7-16.31 35.11-17.49-7.52" style="fill:#e0e0e0"/><path d="M555.52 251.79s-19.17 37.81-18.85 49.64c.18 6.58 10.23 149.31 10.23 149.31h28.92l-5.35-148.88 30.34 149.91 25.61-4.16L606 287.3s-3.5-21.82-10.7-30.77Z" style="fill:#263238"/><path d="M569.89 286.22a59.65 59.65 0 0 1 .55 7.81 57.79 57.79 0 0 1 0 7.83 59.65 59.65 0 0 1-.55-7.81 57.84 57.84 0 0 1 0-7.83ZM607.35 300.85a2.82 2.82 0 0 1-.9.21 14.28 14.28 0 0 1-2.53.09 15.39 15.39 0 0 1-13.23-9 14 14 0 0 1-.84-2.39 3.11 3.11 0 0 1-.14-.92c.1 0 .37 1.27 1.31 3.15a16 16 0 0 0 12.92 8.8c2.06.21 3.4-.03 3.41.06ZM548.33 287.1a8.55 8.55 0 0 1-1 2.32 23.89 23.89 0 0 1-3.62 4.92 23.35 23.35 0 0 1-4.77 3.83 8.29 8.29 0 0 1-2.27 1.1 31.47 31.47 0 0 0 11.66-12.17ZM573.11 452.7a1.87 1.87 0 0 1-.05-.4c0-.29-.06-.67-.1-1.17-.08-1.06-.19-2.57-.33-4.5-.26-3.93-.64-9.58-1.1-16.55-.88-14-2.1-33.31-3.44-54.62s-2.49-40.66-3.26-54.65c-.21-7 .51-12.73 1.75-16.47a11.64 11.64 0 0 1 2.08-4 4.4 4.4 0 0 1 .84-.82l.32-.25a2 2 0 0 1-.29.29 4.74 4.74 0 0 0-.79.84 12.18 12.18 0 0 0-2 4c-1.16 3.73-1.83 9.42-1.58 16.4.88 14 2.09 33.3 3.42 54.62s2.44 40.63 3.29 54.64c.39 7 .71 12.62.93 16.56.1 1.93.18 3.45.23 4.51 0 .49 0 .88.05 1.17a2 2 0 0 1 .03.4Z" style="fill:#455a64"/><path d="M624.85 450.07c-.14 0-4.87-33.33-10.56-74.49S604.1 301 604.24 301s4.87 33.32 10.56 74.49 10.2 74.56 10.05 74.58Z" style="fill:#455a64"/><path d="m594.72 252.84 5.45-27.58 4.21-29.66a27.49 27.49 0 0 0-13.46-6.41l-25.27 1.05-9.52 22.34 1 46.17Z" style="fill:#e0e0e0"/><path d="M593.06 189.66s-12.06 26.79-18.43 28.56c-2.85 11.35-5.38 71.38-5.38 71.38L609 288l-11.75-39 4.75-19.51s-5.16-30.89.37-36.23c-3.14-2.06-5.7-3.38-9.31-3.6ZM568.49 189.19a102.53 102.53 0 0 0-1 15.89 19.8 19.8 0 0 0 5.39 12.81l-5.28 71.71-28.15-4.1s5.81-17.94 10.44-25.75c0 0 2.2-3.71 6.24-10.73 0 0-2.82-22.89-2.92-26.12 0-1.22 7.29-31.32 7.29-31.32a10.54 10.54 0 0 1 7.99-2.39ZM560.93 155.47c-3.61-.95-5.83-2.23-5.83-3.65 0-2.92 9.44-5.28 21.08-5.28s21.07 2.36 21.07 5.28c0 1.41-2.19 2.69-5.76 3.64" style="fill:#3c37d8"/><path d="M562.94 155.37c-3.2-.84-5.25-2-5.16-3.23.22-3.49 8.36-4.69 18.68-4.69s18.67 2.1 18.67 4.69c0 1.24-1.94 2.38-5.11 3.22" style="opacity:.4"/><path d="M591.37 152.47c-.44 1.51.65 3 1.9 4s2.75 1.6 3.72 2.83a6.2 6.2 0 0 1 .54 6.09 13.93 13.93 0 0 1-4 5c-1.22 1.06-2.81 2.1-4.34 1.57" style="fill:#263238"/><path d="M602.35 193.26c-.5 0-2.35 4.71-3.73 9a28.37 28.37 0 0 0 2.31 22.83l8.75 15.38-26.34 8.84 3.86 12.33 36.86-9.89a10.71 10.71 0 0 0 7.34-6.78 10.69 10.69 0 0 0-.83-9l-19.22-33s-6.24-9.72-9-9.71Z" style="fill:#e0e0e0"/><path d="M591.09 154.33a14.24 14.24 0 0 0-15-14A14.53 14.53 0 0 0 562.57 155c0 6.7.09 13.43.47 15.83 1.14 7.22 5.79 9.42 7.63 10a9.3 9.3 0 0 0 2 .2v.05l-.39 8.54c.06 5.55 3.81 10 9.36 10s9.23-4.81 9.26-10.38Z" style="fill:#ffbe9d"/><path d="M565.28 158.71a1.16 1.16 0 0 0 1.12 1.17 1.11 1.11 0 0 0 1.2-1 1.15 1.15 0 0 0-1.12-1.17 1.11 1.11 0 0 0-1.2 1ZM564.53 156.68c.15.16 1-.5 2.28-.49s2.17.63 2.3.47-.08-.34-.48-.63a3.19 3.19 0 0 0-1.84-.57 3 3 0 0 0-1.81.59c-.39.29-.52.57-.45.63ZM577.52 158.71a1.16 1.16 0 0 0 1.12 1.17 1.11 1.11 0 0 0 1.2-1 1.16 1.16 0 0 0-1.12-1.17 1.11 1.11 0 0 0-1.2 1ZM576.83 156.92c.15.15 1-.5 2.28-.5s2.17.63 2.31.48-.08-.34-.48-.64a3.18 3.18 0 0 0-1.85-.56 3.06 3.06 0 0 0-1.81.58c-.39.3-.52.57-.45.64ZM572.29 166.2a8.08 8.08 0 0 0-2-.37c-.32 0-.62-.09-.68-.31a1.65 1.65 0 0 1 .22-1l.94-2.43a42.17 42.17 0 0 0 2.12-6.37 43.31 43.31 0 0 0-2.63 6.18c-.31.86-.61 1.67-.9 2.45a1.86 1.86 0 0 0-.17 1.25.79.79 0 0 0 .53.47 2.28 2.28 0 0 0 .54.08 8.59 8.59 0 0 0 2.03.05Z" style="fill:#263238"/><path d="M572.7 181s4.83.39 10.87-3.24c0 0-1.9 6.39-11 5.54ZM572.82 169.22a2.23 2.23 0 0 1 2-.84 2.05 2.05 0 0 1 1.42.76 1.3 1.3 0 0 1 .1 1.49 1.5 1.5 0 0 1-1.64.42 4.88 4.88 0 0 1-1.6-1 1.37 1.37 0 0 1-.35-.37.39.39 0 0 1 0-.46" style="fill:#eb996e"/><path d="M576 167.07c-.2 0-.2 1.34-1.36 2.31s-2.61.81-2.62 1 .32.26.93.28a3.39 3.39 0 0 0 2.19-.76 3 3 0 0 0 1.06-1.94c.02-.57-.13-.9-.2-.89ZM576.27 154.73c.12.34 1.37.18 2.84.35s2.66.58 2.85.27c.09-.14-.12-.46-.6-.79a4.74 4.74 0 0 0-2.11-.74 4.66 4.66 0 0 0-2.22.26c-.54.22-.81.48-.76.65ZM565 154.13c.22.28 1.08 0 2.12 0s1.92.19 2.12-.1-.05-.43-.44-.7a3.06 3.06 0 0 0-3.41.1c-.39.27-.5.57-.39.7ZM577.93 166.48a.19.19 0 0 1 .25.17.19.19 0 0 1-.25.16.19.19 0 0 1-.06-.29" style="fill:#263238"/><path d="M570.58 149a8 8 0 0 0 5.88 3.42c1.53.12 3.28-.15 4.44.86a6.66 6.66 0 0 1 1.46 3 7.23 7.23 0 0 0 3.1 3.95c1.16.65 2.61.93 3.45 2s.8 2.65.83 4.06.35 3.05 1.62 3.66l.14-15.41a6.13 6.13 0 0 0-.27-2.26c-.62-1.61-2.44-2.38-4.11-2.83-4.72-1.29-9.66-1.44-14.55-1.59" style="fill:#263238"/><path d="M558 150.45s3-12.39 3.27-13 3.79-6 12.23-7.58h7s9.9 3.19 11.71 5.6 2.58 14.12 2.58 14.12l-19.56-4.25-13.3 3.24Z" style="fill:#3c37d8"/><path d="M575.78 128.46h-3a4.85 4.85 0 0 0-1.19 3.15c-.14 2.17-.63 17-.63 17l8.74-.39-.28-18.38 3 .66-.09-1-.79-.93Z" style="fill:#3c37d8"/><path d="m561.72 151.55.17-4.5 13.16-3.92 16.44 4.87v4.84a40.45 40.45 0 0 0-29.77-1.29Z" style="fill:#455a64"/><path d="m562.71 146.09-.58.57-4.73 3a75 75 0 0 1 18.51-2.46c9.42.1 20.19 3.28 20.19 3.28l-6.24-3.75a10.74 10.74 0 0 0-7.63-3.41l-11.83-.23a10.8 10.8 0 0 0-7.69 3Z" style="fill:#3c37d8"/><path d="M571.17 142.75a39.22 39.22 0 0 1 .09-6.3 38.06 38.06 0 0 1 .61-6.26 39.06 39.06 0 0 1-.09 6.29 38.45 38.45 0 0 1-.61 6.27ZM582.4 130.54a11.56 11.56 0 0 1-2.2-.28.57.57 0 0 0-.54.55v1.3c0 .95 0 1.95.07 3v5.47a10.27 10.27 0 0 1-.15 2.26 10.14 10.14 0 0 1-.22-2.26c-.07-1.4-.13-3.33-.17-5.46v-4.33a1 1 0 0 1 1-.89 8.13 8.13 0 0 1 2.21.64Z" style="fill:#263238"/><path d="M557.1 149.57a2.25 2.25 0 0 1 .37-.23c.25-.14.63-.32 1.13-.54s1.11-.45 1.78-.8a5 5 0 0 0 1.92-1.58c.56-.72.64-1.86 1.42-2.82a2.69 2.69 0 0 1 1.62-.93 11.84 11.84 0 0 1 1.88-.17c2.55-.13 5.36-.17 8.31-.09s5.74.26 8.29.48a5.43 5.43 0 0 1 3.47 1.24 9.09 9.09 0 0 1 1 1.33l.44.63.22.3a.76.76 0 0 0 .23.17c1.69.87 3.15 1.48 4.1 2 .48.24.85.44 1.09.58a1.61 1.61 0 0 1 .37.25s-.56-.23-1.55-.65-2.43-1-4.19-1.84a1 1 0 0 1-.35-.26l-.23-.3c-.15-.2-.31-.41-.46-.63a9.22 9.22 0 0 0-1-1.25 5 5 0 0 0-3.22-1.07c-2.53-.2-5.32-.36-8.26-.44s-5.73-.06-8.26 0c-1.26 0-2.54 0-3.2.9s-.81 1.94-1.45 2.76a5.39 5.39 0 0 1-2.09 1.63c-.71.32-1.33.54-1.84.72-.98.39-1.52.65-1.54.61Z" style="fill:#263238"/><path d="M558.87 150.27s.08-.1.29-.25a5.13 5.13 0 0 1 1-.6 16.35 16.35 0 0 1 3.88-1.35 44.1 44.1 0 0 1 13.47-.8c2.62.19 5.14.32 7.41.64a55.28 55.28 0 0 1 6 1.26 22.68 22.68 0 0 1 2.23.72 3.86 3.86 0 0 1 1.55.91 1.53 1.53 0 0 1 .44 1 .6.6 0 0 1-.09.39 1.6 1.6 0 0 0-.49-1.3 3.68 3.68 0 0 0-1.51-.77c-.64-.22-1.39-.44-2.22-.65-1.66-.39-3.69-.82-5.93-1.13s-4.75-.41-7.38-.6a47.45 47.45 0 0 0-13.35.64 19 19 0 0 0-3.87 1.17c-.98.45-1.4.78-1.43.72Z" style="fill:#263238"/><path d="M572.56 143.33a4.3 4.3 0 0 1 .62 0h1.7c1.43 0 3.41.14 5.59.32 1.08.09 2.12.19 3.06.3a13.32 13.32 0 0 1 2.49.41 2.42 2.42 0 0 1 1.36 1 1.11 1.11 0 0 1 .19.59 2.67 2.67 0 0 0-.26-.55 2.5 2.5 0 0 0-1.33-.93 15 15 0 0 0-2.47-.36l-3.06-.28c-2.18-.18-4.15-.3-5.58-.38l-1.69-.09a2.6 2.6 0 0 1-.62-.03ZM579.14 141.59a2.53 2.53 0 0 1-.08-.44c0-.28-.09-.7-.15-1.21-.1-1-.21-2.43-.26-4s0-3 0-4c0-.51 0-.93.07-1.21a1.88 1.88 0 0 1 .06-.45 2.28 2.28 0 0 1 0 .45v5.21c0 1.56.13 3 .2 4l.08 1.21a1.31 1.31 0 0 1 .08.44ZM589 147.14a1.64 1.64 0 0 1 .41.13l1.07.42 3.51 1.45a12.86 12.86 0 0 1 1.9.9 2.44 2.44 0 0 1 1.1 1.33 1.65 1.65 0 0 1 0 1.16.76.76 0 0 1-.26.34s.09-.12.18-.37a1.64 1.64 0 0 0 0-1.09 2.29 2.29 0 0 0-1.06-1.21 15 15 0 0 0-1.88-.87l-3.49-1.51-1-.48a2.5 2.5 0 0 1-.48-.2ZM574.05 128.84a9.73 9.73 0 0 1 1.23-.05h3a21 21 0 0 1 3 .15 1.54 1.54 0 0 1 .81.44.58.58 0 0 1 .16.3 1.42 1.42 0 0 0-1-.59c-.72-.13-1.79-.05-3-.1s-2.2-.05-3-.08a6.51 6.51 0 0 1-1.2-.07Z" style="fill:#fafafa"/><path d="M561.72 151.55a19.91 19.91 0 0 0 .85 11.9 42.18 42.18 0 0 1 .68-7.37 9.82 9.82 0 0 1 1.13-3.4c.77-1 2.14-1.24 3.37-1.51s2.59-.46 3-1.64a35.4 35.4 0 0 0-9.08 2M572.59 183.31a5.58 5.58 0 0 0-3.6 1.6c-.84 1.05-1.37 2.35-2.43 3.17s-2.35 1-3.25 1.88c-1.78 1.71-.91 4.71-1.68 7a17.28 17.28 0 0 1-2.23 3.69 4.57 4.57 0 0 0-.77 4.08 3.55 3.55 0 0 0 2.78 2 7.63 7.63 0 0 0 3.5-.48l-.14-2.78a4 4 0 0 0 .65 1.5 1.37 1.37 0 0 0 1.47.49c.8-.32.82-1.43.74-2.29-.31-3.18-.16-6.61 1.65-9.24.85-1.25 2.3-2.57 3-3.89l.28-6.75" style="fill:#263238"/><path d="M521.21 233.23s1.79-3.9 4.4-3.74 9.93 1 9.93 1l.81 3.58-16-.82" style="fill:#ffbe9d"/><path d="m528.81 233.27 4.47-13.85a1.73 1.73 0 0 1 1.65-1.2 1.74 1.74 0 0 1 1.68 2.21l-3.87 13.62Z" style="fill:#3c37d8"/><path style="fill:#263238" d="M512.9 233.26h43.44l28.81 39.15-40.63-.59-31.62-38.56z"/><path d="M566.7 247.55a34.47 34.47 0 0 1 5.82-.18c2.27.23 10.82 2.17 10.82 2.17l3.66 11.35-4.24-.38-2.85 1.38c-4.55.6-9.78 1.21-10.78 1 0 0-1.71-1-1.2-1.94 0 0-3.88-.45-3.48-3.54a3.22 3.22 0 0 1-2.52-2.79l-7.11-.39a1.42 1.42 0 0 1-1.33-1.29c-.07-.8 1-1.08 1.81-1.11l11.09-.48a1.63 1.63 0 0 0 1.22-2.62Z" style="fill:#ffbe9d"/><g style="opacity:.5"><path style="fill:#fff" d="m569.94 274.98 33.03-7.06 3.69 12.22-37.17 4.1.45-9.26z"/></g><g style="opacity:.5"><path style="fill:#fff" d="m568.59 274.77-22.2-7.9-5.07 12.02 26.71 4.94.56-9.06z"/></g><path d="M597.2 166.35a1.83 1.83 0 0 1 .09 1.5 4.22 4.22 0 0 1-2.35 2.76 4.33 4.33 0 0 1-3.6-.41c-.81-.52-1-1.11-1-1.13s.4.42 1.18.81a4.42 4.42 0 0 0 3.23.25 4.22 4.22 0 0 0 2.18-2.39 8.33 8.33 0 0 0 .27-1.39Z" style="fill:#455a64"/><path d="M597.12 166.08a3.27 3.27 0 0 1-1.09 1.39 4.24 4.24 0 0 1-1.72.91 3.33 3.33 0 0 1-2.41-.26 4.13 4.13 0 0 1-1.67-1.73 5.66 5.66 0 0 1-.58-1.85 4 4 0 0 1 0-1.75 11.33 11.33 0 0 1 .36 1.68 4.67 4.67 0 0 0 2.12 3.19 3 3 0 0 0 2.06.25 4.2 4.2 0 0 0 1.61-.73c.84-.61 1.25-1.18 1.32-1.1Z" style="fill:#455a64"/><path d="M601.68 230.17s-.11-.09-.28-.3-.42-.52-.7-1a27.78 27.78 0 0 1-2.19-3.73 31.87 31.87 0 0 1-.27-27.69 27.73 27.73 0 0 1 2.12-3.78 11.51 11.51 0 0 1 .68-.95c.16-.22.26-.32.27-.31a13.13 13.13 0 0 1-.78 1.37 35 35 0 0 0-1.95 3.82 33.61 33.61 0 0 0 2.29 31.16 13.9 13.9 0 0 1 .81 1.41ZM573.75 222.19a8.34 8.34 0 0 1 1.18-1 40.36 40.36 0 0 0 3.12-2.75 49.51 49.51 0 0 0 8.24-10.93 107.5 107.5 0 0 0 5.88-12.44c.65-1.56 1.19-2.86 1.6-3.86a8.42 8.42 0 0 1 .64-1.39 8.18 8.18 0 0 1-.45 1.46c-.33.94-.81 2.28-1.45 3.93a92.67 92.67 0 0 1-5.76 12.56 45.91 45.91 0 0 1-8.44 10.93 29.56 29.56 0 0 1-3.26 2.65c-.4.3-.73.49-.95.63a1.29 1.29 0 0 1-.35.21ZM565.64 190.56c.1 0-.46 1.71-.86 4.53a33.11 33.11 0 0 0-.31 5 36.26 36.26 0 0 0 .66 6.06 36.88 36.88 0 0 0 1.75 5.84 33 33 0 0 0 2.22 4.46c1.46 2.44 2.63 3.78 2.55 3.84a5.27 5.27 0 0 1-.86-.91 12 12 0 0 1-.9-1.14c-.34-.47-.74-1-1.11-1.6a30 30 0 0 1-2.34-4.47 31.33 31.33 0 0 1-2.44-12.1 29.33 29.33 0 0 1 .42-5c.09-.71.27-1.34.39-1.9a13.57 13.57 0 0 1 .39-1.41 5.17 5.17 0 0 1 .44-1.2ZM562 188.8c.14 0-1.5 7.92-3.66 17.63s-4 17.55-4.18 17.52 1.5-7.93 3.67-17.64 4.03-17.54 4.17-17.51Z" style="fill:#263238"/><path d="m511.6 181.84 3.33-11.6s1.21-4.71 1.5-5.81c.37-1.46-.64-1.93-1.26-.94-.23.38-2.83 5.16-2.83 5.16l2.19-8.14c.68-2.56-.92-2.31-1.39-1.4s-3.44 8.67-3.44 8.67c2.79-10.1 2-11 1.2-11.17s-3.23 9.07-3.23 9.07a8.55 8.55 0 0 0-2.42-2.69c-2.43-1.71-6.52-.06-6.73 1.09s1.25 1.48 1.25 1.48a3.68 3.68 0 0 1 5.85 3.4 2.29 2.29 0 0 1-4.49.39c-1-4.57-2.56-3.11-2.56-3.11l1.49 10.09-1.72 5" style="fill:#b78876"/><path d="M457.6 141.72c3.79-1 6.13-2.36 6.13-3.84 0-3.08-9.94-5.57-22.19-5.57s-22.19 2.49-22.19 5.57c0 1.48 2.3 2.82 6.07 3.82" style="fill:#3c37d8"/><path d="M455.48 141.61c3.37-.89 5.52-2.09 5.43-3.41-.23-3.66-8.8-4.93-19.67-4.93s-19.66 2.21-19.66 4.93c0 1.32 2 2.51 5.38 3.39" style="opacity:.4"/><path d="M460.68 136.43s-3.18-13-3.45-13.68-4-6.35-12.88-8H437s-10.43 3.36-12.33 5.9-2.67 14.89-2.67 14.89l20.59-4.48 14 3.41Z" style="fill:#3c37d8"/><path d="M442 113.28h3.15a5.09 5.09 0 0 1 1.26 3.31c.14 2.28.66 17.95.66 17.95l-9.21-.42.3-19.35-3.13.7.1-1.1.83-1ZM393.68 439.71l-6.07 24.06-10.28 17.65a2.54 2.54 0 0 0 1.07 3.58 2.55 2.55 0 0 0 2.33 0c4.61-2.49 21.56-11.74 21.9-13.53.4-2.06 8.08-25 8.08-25Z" style="fill:#3c37d8"/><g style="opacity:.6000000000000001"><path d="m378.4 485 24.68-15.18-.28 1a3.87 3.87 0 0 1-1.54 2.15c-2 1.37-7.65 5-20.46 12a2.52 2.52 0 0 1-2.4 0Z" style="fill:#fff"/></g><g style="opacity:.6000000000000001"><path d="M400.3 460.73a1.54 1.54 0 0 0-.94 1.82 1.47 1.47 0 0 0 1.8.95 1.62 1.62 0 0 0 1-1.94 1.54 1.54 0 0 0-2-.78" style="fill:#fff"/></g><path d="M386.75 476a7.61 7.61 0 0 0-1.58-2.44 7.92 7.92 0 0 0-2.61-1.29c0-.06.35-.16.93-.09a3.91 3.91 0 0 1 2 1 4 4 0 0 1 1.21 1.91c.18.58.12.91.05.91ZM384.17 478.77c-.15.07-.7-.92-1.84-1.61a21.15 21.15 0 0 0-2.25-1 2.81 2.81 0 0 1 2.54.49c1.29.85 1.69 2.09 1.55 2.12ZM391.06 472.81a25.62 25.62 0 0 0-2.66-2.68 24.9 24.9 0 0 0-3.32-1.81 5.63 5.63 0 0 1 3.65 1.37 5.7 5.7 0 0 1 2.33 3.12ZM393.52 465.65c-.11.13-1.28-.79-3-1.33s-3.18-.5-3.19-.66a4.87 4.87 0 0 1 3.36.14 4.94 4.94 0 0 1 2.83 1.85ZM395.47 458.63a12.6 12.6 0 0 0-3.06-1.46 12.14 12.14 0 0 0-3.39-.08c0-.07.32-.29 1-.46a5.6 5.6 0 0 1 4.85 1.16c.45.44.65.8.6.84ZM392.83 455.84a2.1 2.1 0 0 1 .21-.91 6.57 6.57 0 0 1 1.38-2.17 2.85 2.85 0 0 1 1.56-1 1 1 0 0 1 1 .52 1.64 1.64 0 0 1 .08 1.19 3.58 3.58 0 0 1-3.92 2.36 4.16 4.16 0 0 1-3.37-3.19 1.47 1.47 0 0 1 .26-1.18 1 1 0 0 1 1.15-.23 3.53 3.53 0 0 1 1.35 1.26 7.28 7.28 0 0 1 1.12 2.3 2.28 2.28 0 0 1 .14.93 11.45 11.45 0 0 0-1.57-3 3.33 3.33 0 0 0-1.2-1.07.54.54 0 0 0-.63.13 1 1 0 0 0-.12.78 3.71 3.71 0 0 0 2.95 2.73 3.11 3.11 0 0 0 3.36-2 1.29 1.29 0 0 0 0-.83.56.56 0 0 0-.58-.29 2.52 2.52 0 0 0-1.34.82 9.63 9.63 0 0 0-1.83 2.85Z" style="fill:#263238"/><path d="m458.35 446.61-1.35 19.2s19.07 7.8 19.17 11.37l-37.31-1.24.84-30Z" style="fill:#3c37d8"/><path d="M445.54 463.81a1.51 1.51 0 0 0-1.11 1.7 1.46 1.46 0 0 0 1.68 1.12 1.6 1.6 0 0 0 1.16-1.81 1.52 1.52 0 0 0-1.87-1" style="fill:#e0e0e0"/><g style="opacity:.6000000000000001"><path d="m438.88 475.94.2-3 35.7 2.32s1.64.78 1.41 1.94Z" style="fill:#fff"/></g><path d="M457.63 465.64c0 .18-.92.24-1.84.79s-1.42 1.31-1.58 1.23.14-1.12 1.26-1.77 2.21-.41 2.16-.25ZM461.49 467.39c0 .18-.76.46-1.4 1.21s-.85 1.56-1 1.55-.26-1 .56-2 1.85-.93 1.84-.76ZM463.56 472.15c-.17 0-.39-.89.11-1.87s1.37-1.35 1.44-1.2-.47.67-.87 1.49-.5 1.57-.68 1.58ZM457.45 461.23c-.08.17-.91-.11-1.94-.08s-1.84.34-1.93.18.7-.79 1.92-.81 2.05.57 1.95.71ZM457.65 457.36a3.59 3.59 0 0 1-1.87-.08 7.75 7.75 0 0 1-1.93-.66 8.23 8.23 0 0 1-1.06-.61 2 2 0 0 1-.55-.46.8.8 0 0 1-.05-1 1 1 0 0 1 .81-.39 2.67 2.67 0 0 1 .7.12 7.43 7.43 0 0 1 1.15.44 6.53 6.53 0 0 1 1.68 1.19c.84.83 1.12 1.52 1.05 1.55s-.48-.52-1.34-1.22a7.56 7.56 0 0 0-1.64-1 7.75 7.75 0 0 0-1.06-.37c-.39-.11-.73-.13-.84 0s0 .1 0 .22a2.5 2.5 0 0 0 .4.33c.33.23.65.42 1 .6a11.27 11.27 0 0 0 1.78.75 11.67 11.67 0 0 1 1.77.59Z" style="fill:#263238"/><path d="M457.4 457.61a3.08 3.08 0 0 1-.43-1.82 6.1 6.1 0 0 1 .32-2 6.24 6.24 0 0 1 .52-1.12 1.52 1.52 0 0 1 1.22-.9.86.86 0 0 1 .76.54 2.22 2.22 0 0 1 .17.7 4 4 0 0 1 0 1.25 4.33 4.33 0 0 1-.86 1.91c-.76.94-1.53 1.13-1.54 1.07s.59-.42 1.18-1.33a4.42 4.42 0 0 0 .65-1.74 4.34 4.34 0 0 0 0-1.08c-.05-.4-.19-.72-.34-.69s-.51.28-.67.59a6.66 6.66 0 0 0-.5 1 6.82 6.82 0 0 0-.42 1.85c-.13 1.06.04 1.74-.06 1.77Z" style="fill:#263238"/><path d="m427.72 186.51 22.43-1c.13-2.38-1.09-17.1-1.09-17.1s8.48-1.32 8.59-9.8-1.18-25.41-1.18-25.41l-.15-.74c-9.81-4.21-21.18-4.59-29.64 1.93l-1.26 1Z" style="fill:#b78876"/><path d="M449.08 168.25a19.7 19.7 0 0 1-11.08-3.14s2.62 6.1 11.08 5.34Z" style="fill:#aa6550"/><path d="M426.46 144.1c-.14-.06-5.82-1.72-5.64 4.08s6 4.41 6 4.25-.36-8.33-.36-8.33Z" style="fill:#b78876"/><path d="M425 150.29s-.09.07-.26.15a1 1 0 0 1-.76 0 2.48 2.48 0 0 1-1.22-2.2 3.3 3.3 0 0 1 .23-1.46 1.17 1.17 0 0 1 .74-.8.52.52 0 0 1 .6.26c.08.16.05.28.08.29s.12-.1.07-.34a.66.66 0 0 0-.24-.36.75.75 0 0 0-.56-.13 1.42 1.42 0 0 0-1 .94 3.4 3.4 0 0 0-.3 1.62 2.65 2.65 0 0 0 1.55 2.46 1.1 1.1 0 0 0 .92-.18c.15-.11.15-.24.15-.25Z" style="fill:#aa6550"/><path d="M453.5 143.77a1.2 1.2 0 0 1-1.16 1.22 1.15 1.15 0 0 1-1.25-1.09 1.21 1.21 0 0 1 1.16-1.22 1.15 1.15 0 0 1 1.25 1.09ZM454.68 142.56c-.15.16-1.07-.52-2.37-.52s-2.26.66-2.4.5.08-.36.5-.66a3.29 3.29 0 0 1 1.92-.59 3.17 3.17 0 0 1 1.89.61c.4.3.53.59.46.66ZM440.7 144.23a1.21 1.21 0 0 1-1.17 1.22 1.16 1.16 0 0 1-1.25-1.09 1.22 1.22 0 0 1 1.17-1.23 1.18 1.18 0 0 1 1.25 1.1ZM441.87 142.8c-.15.16-1.07-.52-2.37-.51s-2.26.65-2.4.49.08-.35.5-.66a3.36 3.36 0 0 1 1.92-.59 3.14 3.14 0 0 1 1.89.61c.4.31.59.59.46.66ZM446.6 152.47a8.06 8.06 0 0 1 2.12-.39c.33 0 .64-.1.7-.32a1.7 1.7 0 0 0-.22-1c-.31-.81-.64-1.65-1-2.53a45.49 45.49 0 0 1-2.21-6.63 42.67 42.67 0 0 1 2.74 6.43c.33.89.65 1.74.94 2.55a1.91 1.91 0 0 1 .18 1.31.82.82 0 0 1-.55.48 2 2 0 0 1-.56.08 9.11 9.11 0 0 1-2.14.02ZM442.77 153.37c.21 0 .21 1.4 1.42 2.4s2.72.85 2.73 1-.34.27-1 .29a3.54 3.54 0 0 1-2.28-.79 3 3 0 0 1-1.1-2c-.03-.56.13-.91.23-.9ZM442.21 137.7c-.13.35-1.43.18-3 .37s-2.76.6-3 .28c-.09-.15.13-.48.63-.83a4.93 4.93 0 0 1 2.2-.77 5 5 0 0 1 2.31.27c.65.23.91.51.86.68ZM454.2 138.79c-.23.3-1.13 0-2.21 0s-2 .2-2.2-.11c-.09-.15 0-.44.45-.72a3 3 0 0 1 1.79-.49 3 3 0 0 1 1.76.6c.39.27.51.57.41.72ZM466.4 266.93l-3.71 191.55a2.35 2.35 0 0 1-2.37 2.31l-22.31-.2a2.35 2.35 0 0 1-2.33-2.4l3.46-164.87L410.12 457a4.22 4.22 0 0 1-4.3 3.48l-18.71-.65a4.21 4.21 0 0 1-4-4.86l29.39-188.8Z" style="fill:#263238"/><path d="m512 181.59-13.87-3.34-9.13 24.83-25.29-22.63c-2.69-2-7.33-2.22-10.86-2.65h-.27c-1.37-.17-2-.36-2.86-.46-6.1 4.58-16.53 4.87-22.52.14 0 0-4.54 1-7.25 1.55-8.54 1.64-14.69 7.86-16.39 13.6l10.69 24.65 2.05 23.42-5.92 21a3.63 3.63 0 0 0 3 4.6l53 .81.86-.43c1.12-2.06 1.94-4.43 1.42-6.71-2.28-10-.69-40-1.17-49.14 10.39 10.09 21.85 18.46 30.22 13.28 6.98-4.37 14.29-42.52 14.29-42.52Z" style="fill:#e0e0e0"/><path style="fill:#3c37d8" d="M427.62 176.87z"/><path d="M425.51 138.65c.22 2.35.15 4.73.38 7.08a8 8 0 0 0 .84 2.54 2.33 2.33 0 0 0 4.42 0 6.93 6.93 0 0 0 .52-3 9.62 9.62 0 0 1 .32-3.08 16.77 16.77 0 0 1 1.75-3 3.73 3.73 0 0 0 .55-3.3c-3.15-.06-6.05 1.21-8.78 2.77" style="fill:#263238"/><path d="m456.76 137.59-.18-4.74-13.86-4.13-17.3 5.1v5.1a42.56 42.56 0 0 1 31.34-1.33Z" style="fill:#455a64"/><path d="m455.71 131.84.61.59 5 3.14a78.69 78.69 0 0 0-19.5-2.57c-9.92.1-21.26 3.45-21.26 3.45l6.57-4a11.25 11.25 0 0 1 8-3.58l12.45-.25a11.3 11.3 0 0 1 8.13 3.22Z" style="fill:#3c37d8"/><path d="M446.81 128.32a42.27 42.27 0 0 1-.63-6.6 43.59 43.59 0 0 1-.11-6.63 40.87 40.87 0 0 1 .63 6.6 43.59 43.59 0 0 1 .11 6.63ZM435 115.47a8.87 8.87 0 0 1 2.34-.68 1 1 0 0 1 1 .93V120.28c0 2.25-.1 4.28-.17 5.75a11.48 11.48 0 0 1-.23 2.38 11 11 0 0 1-.14-2.38v-5.75c0-1.11.05-2.17.07-3.16 0-.47 0-.93.05-1.37a.63.63 0 0 0-.59-.59 13.69 13.69 0 0 1-2.33.31Z" style="fill:#263238"/><path d="M461.62 135.51s-.58-.24-1.65-.62c-.53-.2-1.19-.42-1.93-.77a5.48 5.48 0 0 1-2.2-1.71c-.67-.86-.79-2.06-1.53-2.91s-2.05-.9-3.37-.95c-2.67-.11-5.62-.14-8.7-.05s-6 .25-8.7.46a5.29 5.29 0 0 0-3.4 1.13 9.43 9.43 0 0 0-1 1.32l-.48.67-.25.31a1.21 1.21 0 0 1-.36.27c-1.85.9-3.37 1.47-4.41 1.94s-1.61.72-1.62.69.12-.11.38-.26.65-.36 1.15-.61c1-.52 2.54-1.17 4.32-2.08a1.08 1.08 0 0 0 .25-.18l.23-.31c.15-.22.31-.44.46-.67a10 10 0 0 1 1.07-1.4 5.69 5.69 0 0 1 3.66-1.3c2.67-.23 5.62-.42 8.72-.51s6.06 0 8.74.1a13.26 13.26 0 0 1 2 .18 2.76 2.76 0 0 1 1.69 1c.82 1 .91 2.2 1.5 3a5.27 5.27 0 0 0 2 1.67c.71.36 1.35.61 1.88.84s.92.42 1.18.56.38.17.37.19Z" style="fill:#263238"/><path d="M459.77 136.24s-.14-.05-.37-.18a8.44 8.44 0 0 0-1-.53 20.2 20.2 0 0 0-4.08-1.24 50 50 0 0 0-14.06-.68c-2.78.2-5.41.32-7.78.63s-4.49.78-6.24 1.2c-.87.22-1.66.45-2.34.68a3.89 3.89 0 0 0-1.58.82 1.67 1.67 0 0 0-.52 1.37.66.66 0 0 1-.09-.41 1.64 1.64 0 0 1 .46-1.1 4.06 4.06 0 0 1 1.63-1c.68-.26 1.47-.52 2.35-.76a57.41 57.41 0 0 1 6.27-1.32c2.39-.34 5-.48 7.8-.68a46.34 46.34 0 0 1 14.18.84 17.23 17.23 0 0 1 4.08 1.42 5.24 5.24 0 0 1 1 .62 1.69 1.69 0 0 1 .29.32Z" style="fill:#263238"/><path d="M443.78 113.68a8.66 8.66 0 0 1-1.29.1l-3.13.08c-1.21 0-2.34 0-3.1.1a1.5 1.5 0 0 0-1.05.63s0-.13.16-.31a1.52 1.52 0 0 1 .85-.46 21.69 21.69 0 0 1 3.14-.16h3.12a7.34 7.34 0 0 1 1.3.02ZM445.35 128.93a3 3 0 0 1-.66.06l-1.78.1c-1.5.08-3.58.2-5.87.39l-3.23.3a15.22 15.22 0 0 0-2.59.38 2.62 2.62 0 0 0-1.41 1 2.43 2.43 0 0 0-.27.59 1.34 1.34 0 0 1 .2-.63 2.64 2.64 0 0 1 1.43-1.08 13.9 13.9 0 0 1 2.62-.43c1-.11 2.09-.22 3.23-.32 2.3-.19 4.38-.29 5.88-.33h1.79a5 5 0 0 1 .66-.03ZM438.41 127.1a2.41 2.41 0 0 1 0-.47c0-.42.06-.84.09-1.28.07-1.07.16-2.56.21-4.2s0-3.14 0-4.22v-1.28a1.35 1.35 0 0 1 0-.47 3.2 3.2 0 0 1 .06.47c0 .3.05.74.07 1.28.05 1.08.07 2.57 0 4.22s-.16 3.14-.27 4.22c0 .53-.1 1-.15 1.27a1.5 1.5 0 0 1-.01.46ZM428 132.94s-.13.09-.39.21l-1.1.51-3.67 1.58a15.31 15.31 0 0 0-2 .92 2.53 2.53 0 0 0-1.13 1.28 1.82 1.82 0 0 0 0 1.15 3.1 3.1 0 0 0 .2.39.9.9 0 0 1-.27-.36 1.84 1.84 0 0 1 0-1.23 2.61 2.61 0 0 1 1.16-1.39 13.26 13.26 0 0 1 2-.95l3.69-1.53 1.13-.44a2.61 2.61 0 0 1 .38-.14Z" style="fill:#fafafa"/><path style="fill:#e0e0e0" d="m425.51 178.99 1.23-8.47 11.54 4.23 3.26 5.74 2.02-6.3 6.33-2.18 2.71 5.64-4.65 6.57-8.71 1.76-13.73-6.99z"/><path d="M441.74 181.81s-.17-.1-.43-.35a15 15 0 0 1-1.06-1.14 17.06 17.06 0 0 1-2.79-4.81h.43l-2.67 6.72c-.46 1.15-.91 2.26-1.34 3.32l-.14.35-.27-.26a479.06 479.06 0 0 1-5.76-5.65l-1.65-1.68a3.11 3.11 0 0 1-.55-.65 2.94 2.94 0 0 1 .67.53l1.75 1.57c1.48 1.36 3.54 3.28 5.89 5.51l-.41.09c.42-1.06.87-2.17 1.33-3.32l2.73-6.7.22-.55.2.56a18.78 18.78 0 0 0 2.57 4.79c.79 1.08 1.32 1.63 1.28 1.67ZM452.6 177.65a9.14 9.14 0 0 1-1.35 1.86 18.49 18.49 0 0 1-4.42 3.89l-.26.15-.1-.28c-.38-1-.82-2.14-1.28-3.29-.69-1.73-1.34-3.37-1.85-4.83h.45c-.38 1.91-.85 3.48-1.14 4.58a10.8 10.8 0 0 1-.5 1.74 7.38 7.38 0 0 1 .23-1.8c.21-1.13.62-2.71.95-4.6l.15-.85.3.81c.53 1.44 1.2 3.06 1.89 4.79.47 1.16.9 2.28 1.26 3.32l-.36-.13a21.49 21.49 0 0 0 4.45-3.66 17.58 17.58 0 0 1 1.58-1.7ZM445.93 268.09a5.27 5.27 0 0 1 .05-.88q.11-.93.27-2.52c.15-1.09.23-2.44.34-4q.09-1.17.18-2.49c0-.89.07-1.83.11-2.81.18-3.93.17-8.61.08-13.81s-.42-10.92-.83-16.91c-.87-12-2.05-22.8-2.94-30.62-.44-3.88-.8-7-1.06-9.27l-.27-2.52a6.44 6.44 0 0 1-.06-.88 4.43 4.43 0 0 1 .17.87 585.244 585.244 0 0 1 1.59 11.75c1 7.82 2.22 18.64 3.09 30.63.41 6 .68 11.73.79 16.94s0 9.9-.19 13.84c-.05 1-.1 1.92-.15 2.81s-.15 1.71-.22 2.5c-.14 1.56-.25 2.9-.43 4l-.36 2.51a8.15 8.15 0 0 1-.16.86Z" style="fill:#263238"/><path style="fill:#3c37d8" d="m436.67 178.61 2.62 1.37-.49 4.41-4.08-.86 1.95-4.92z"/><path d="m436.67 178.61 2.62 1.37-.49 4.41-4.08-.86 1.95-4.92z" style="opacity:.4"/><path style="fill:#3c37d8" d="m442.68 179.7 1.98-1.74 1.82 4.61-2.6 1.25-1.2-4.12zM439.78 185.46l-1.22 52.18 8.82 8.72 4.26-11.58-8.46-49.59-3.4.27z"/><path d="M439.84 178.36c.6-.07 1.43-.23 2.08-.37a1.46 1.46 0 0 1 1.58.73l1.11 2.05a1.49 1.49 0 0 1 .15 1l-.45 2.3a1.45 1.45 0 0 1-1.13 1.15l-2.52.51a1.45 1.45 0 0 1-1.58-.77l-1.26-2.48a1.42 1.42 0 0 1 0-1.24l.87-2a1.46 1.46 0 0 1 1.15-.88Z" style="fill:#3c37d8"/><path d="M443.5 178.92a5.48 5.48 0 0 1-.67.83c-.43.5-1 1.18-1.72 1.91l-1.77 1.88a5.94 5.94 0 0 1-.78.73 4.79 4.79 0 0 1 .66-.83c.44-.5 1-1.18 1.73-1.92s1.31-1.4 1.77-1.87a5.94 5.94 0 0 1 .78-.73ZM440.92 181.32a12.23 12.23 0 0 1-2.28-2.19 12.23 12.23 0 0 1 2.28 2.19ZM443.87 184.66a28.37 28.37 0 0 1 .62-3 2.94 2.94 0 0 0-.63-2 1.69 1.69 0 0 1-.3-.86s.12.32.43.78a9.51 9.51 0 0 1 .51.85 1.91 1.91 0 0 1 .2 1.22c-.17.86-.39 1.58-.54 2.12a3.5 3.5 0 0 1-.29.89Z" style="fill:#263238"/><path d="M414.23 250.93a10 10 0 0 0 8.71 2.5c2.19-.44 4.27-1.63 6.5-1.49 2.45.16 4.47 1.87 6.7 2.88 4.16 1.89 9 1.29 13.44.11 2-.54 4.15-1.28 5.46-2.92a9.7 9.7 0 0 0 1.68-4.54 46.7 46.7 0 0 0 .66-9c0-1.89-.25-3.91-1.45-5.37a6.21 6.21 0 0 0-4-2 15.81 15.81 0 0 0-4.6.26A76 76 0 0 0 414 245.62" style="opacity:.30000000000000004"/><path d="M435.71 241s-28 12.53-30.87 13.16c-9.46 2.07-20.28-6.86-17.27-17.05 1.11-3.79 16.19-45.69 16.19-45.69l14.35 19.83-6.11 20.28 15.89-1.06Z" style="fill:#e0e0e0"/><path d="M426.64 230.64a5.68 5.68 0 0 1-1.11.15l-3.07.26c-2.6.21-6.25.46-10.41.72h-.35l.1-.34c.31-1 .62-2.07.94-3.14 1.42-4.74 2.73-9 3.7-12.11.47-1.47.87-2.7 1.17-3.65a7.87 7.87 0 0 1 .5-1.32 8 8 0 0 1-.31 1.37c-.27 1-.61 2.21-1 3.7-.88 3.12-2.14 7.41-3.55 12.15-.33 1.08-.64 2.13-1 3.14l-.25-.31c4.16-.25 7.81-.44 10.42-.55l3.08-.12a5.13 5.13 0 0 1 1.14.05ZM432.58 242.62c.05.13-6.1 2.79-13.74 5.93s-13.84 5.6-13.93 5.45 6.1-2.79 13.74-5.94 13.88-5.56 13.93-5.44Z" style="fill:#263238"/><path d="M429.19 229.71 427 219a1.38 1.38 0 0 1 1.36-1.66l27.85.13a1.39 1.39 0 0 1 1.37 1.54l-2.88 24.65a1.91 1.91 0 0 1-1.92 1.7l-18.16-.14a1.93 1.93 0 0 1-1.85-1.45Z" style="fill:#455a64"/><path d="M426.74 224.05a2.91 2.91 0 0 1 2.73 1.86c.46 1.19 1.13 2.58 1.87 3 1.37.75 3.73 1.34 5 .74s6.22-5.09 7.09-4.59 1.61 1.62.74 2.61-5.47 4-4.6 5 10.57-3.38 12.06-3 2.36 1.3 1.49 1.9-7.46 3.08-7.83 3.95c0 0 9.95-2.61 10.32-2s1 1.62 0 2-9.57 2.61-10.32 3a18.18 18.18 0 0 1-3.83 1.11c-.27 0-2.22.66-4 1.27a8.77 8.77 0 0 1-6.18-.16l-1-.41a3.94 3.94 0 0 1-2.45-3.89L428 233l-1.08-2.8Z" style="fill:#b78876"/><path d="M443.45 221.44a1 1 0 1 1-1-1 1 1 0 0 1 1 1Z" style="fill:#fafafa"/><path style="fill:#263238" d="M450.85 204.27h11.4v3.69h-11.4z"/><path style="fill:#455a64" d="m423.65 273.1-12.11-.3.57-3.67 11.96.47-.42 3.5zM457.27 273.02l-30.42-.22.4-3.36 29.99.08.03 3.5z"/><path d="M438.94 269.24v4.05a1.11 1.11 0 0 0 1 1.19h8.38a1.11 1.11 0 0 0 1-1.19v-4.05a1.11 1.11 0 0 0-1-1.19h-8.38a1.11 1.11 0 0 0-1 1.19ZM448 273h-7.76v-3.43H448Z" style="fill:#fafafa"/><path style="fill:#455a64" d="M459.88 269.55v3.43l6.42.12.09-3.66-6.51.11zM396.18 450.31s0-.16.05-.46l.2-1.31c.19-1.19.47-2.88.82-5.06.74-4.42 1.8-10.76 3.1-18.59 2.62-15.72 6.23-37.39 10.22-61.32s7.46-45.66 9.94-61.38c1.22-7.84 2.21-14.2 2.9-18.62.35-2.18.61-3.88.8-5.06.1-.56.17-1 .22-1.31s.09-.45.09-.45a3.68 3.68 0 0 1 0 .45c0 .32-.09.76-.17 1.33-.16 1.18-.39 2.89-.7 5.07-.61 4.41-1.56 10.78-2.74 18.64-2.38 15.74-5.83 37.45-9.79 61.41s-7.64 45.63-10.36 61.3c-1.38 7.82-2.49 14.16-3.27 18.56-.39 2.17-.7 3.87-.92 5-.1.56-.19 1-.25 1.31s-.14.49-.14.49ZM453.37 451c-.15 0 .11-39 .56-87.06s.94-87.06 1.08-87.06-.11 39-.56 87.07-.94 87.05-1.08 87.05ZM463.37 451.68c0 .14-6.08.26-13.59.26s-13.58-.12-13.58-.26 6.08-.26 13.58-.26 13.59.11 13.59.26ZM411.45 450.64a4.84 4.84 0 0 1-1.09.1l-3 .1-9.81.24c-3.83.08-7.3.11-9.81.09-1.26 0-2.27 0-3-.06a4.89 4.89 0 0 1-1.1-.1 4.42 4.42 0 0 1 1.09-.11l3-.1 9.8-.24c3.83-.08 7.3-.11 9.81-.08 1.26 0 2.27 0 3 .06a4.2 4.2 0 0 1 1.11.1Z"/><path d="M488.72 212.66a24.85 24.85 0 0 1-.26-5 24.85 24.85 0 0 1 .26-5 24 24 0 0 1 .26 5 24 24 0 0 1-.26 5Z" style="fill:#263238"/><path d="M492.25 213.3a23.07 23.07 0 0 1-2.25-5.19 22.81 22.81 0 0 1-1.4-5.48 46.56 46.56 0 0 1 1.89 5.31 47.8 47.8 0 0 1 1.76 5.36Z" style="fill:#263238"/><path d="M77.31 363.61c-1-1.5-2.24-2.06-3.69-3.1a7.64 7.64 0 0 1-3.32-4c-.44-1.73.64-3.91 2.42-4s2.93 1.78 3.71 3.37c1.36 2.81 3.35 6.14 4.72 8.95" style="fill:#3c37d8"/><path d="M77.31 363.61c-1-1.5-2.24-2.06-3.69-3.1a7.64 7.64 0 0 1-3.32-4c-.44-1.73.64-3.91 2.42-4s2.93 1.78 3.71 3.37c1.36 2.81 3.35 6.14 4.72 8.95" style="opacity:.4"/><path d="M71.9 362.31c-4.87-1.18-10.4-1.9-15.29-.81-2.37.53-4.94 2-5.13 4.45a4.84 4.84 0 0 0 2.27 4.1c3.33 2.32 7.93 1.53 11.61-.18s7.78-4.71 11.06-6.5" style="fill:#3c37d8"/><path d="M71.9 362.31c-4.87-1.18-10.4-1.9-15.29-.81-2.37.53-4.94 2-5.13 4.45a4.84 4.84 0 0 0 2.27 4.1c3.33 2.32 7.93 1.53 11.61-.18s7.78-4.71 11.06-6.5" style="opacity:.4"/><path d="M91.18 369.27a34.44 34.44 0 0 0-14 2.15A10.3 10.3 0 0 0 72 375c-1.77 2.72-.9 6.66 1.55 8.8a9.73 9.73 0 0 0 9.18 1.58 16 16 0 0 0 7.64-5.78 44.77 44.77 0 0 0 5.21-7.73" style="fill:#3c37d8"/><path d="M91.18 369.27a34.44 34.44 0 0 0-14 2.15A10.3 10.3 0 0 0 72 375c-1.77 2.72-.9 6.66 1.55 8.8a9.73 9.73 0 0 0 9.18 1.58 16 16 0 0 0 7.64-5.78 44.77 44.77 0 0 0 5.21-7.73" style="opacity:.4"/><path d="M104.11 377.89a21 21 0 0 1-3.76-8.29 6.62 6.62 0 0 1-.13-2.69 2.86 2.86 0 0 1 1.57-2.09 2.91 2.91 0 0 1 3 .71 7.67 7.67 0 0 1 1.69 2.71c2.32 5.41 3.26 11.5 4.5 17.26" style="fill:#3c37d8"/><path d="M104.11 377.89a21 21 0 0 1-3.76-8.29 6.62 6.62 0 0 1-.13-2.69 2.86 2.86 0 0 1 1.57-2.09 2.91 2.91 0 0 1 3 .71 7.67 7.67 0 0 1 1.69 2.71c2.32 5.41 3.26 11.5 4.5 17.26" style="opacity:.4"/><path d="M107.5 382.34a21.8 21.8 0 0 0-17.62 5 10.36 10.36 0 0 0-3.17 4.25 5.24 5.24 0 0 0 .69 5.07c1.48 1.74 4.16 1.94 6.33 1.23 2.58-.84 4.69-2.7 6.72-4.5l9.64-8.61" style="fill:#3c37d8"/><path d="M107.5 382.34a21.8 21.8 0 0 0-17.62 5 10.36 10.36 0 0 0-3.17 4.25 5.24 5.24 0 0 0 .69 5.07c1.48 1.74 4.16 1.94 6.33 1.23 2.58-.84 4.69-2.7 6.72-4.5l9.64-8.61" style="opacity:.4"/><path d="M107.79 357.34a28 28 0 0 1 11.44-19.41 14.06 14.06 0 0 1 6.54-2.78 7.08 7.08 0 0 1 6.39 2.52c1.73 2.37 1.32 5.74 0 8.38-2.08 4.3-6.11 7.43-10.52 9.25a45.15 45.15 0 0 1-14 2.8M103.18 340.32c.8-4.88 3.37-9.31 6.36-13.24a15 15 0 0 1 3.27-3.38 6 6 0 0 1 4.47-1.08 5.4 5.4 0 0 1 4 4.68 8.09 8.09 0 0 1-2.06 6 16.53 16.53 0 0 1-5.22 3.87 37.54 37.54 0 0 1-10.56 3.58M100.84 325.23c.06-6.31 2.62-13.47 7.41-17.57.85-.72 2-1.41 3-.86a2.67 2.67 0 0 1 1 1.47 12.64 12.64 0 0 1-11.44 17M100.46 319.05c-.18-5.46-3-10.08-6.39-14.36-.78-1-1.82-2-3.07-1.93-1.73.08-2.68 2.08-2.86 3.8a11.77 11.77 0 0 0 3 9c2.22 2.4 6 3.54 9.31 3.48M101.69 304.18c-2.82-4.51-3.27-12-.6-16.62a9.84 9.84 0 0 1 3.55-3.72 5.94 5.94 0 0 1 5-.49c2.75 1.09 3.95 4.56 3.3 7.45s-2.71 5.24-4.9 7.23-4.6 3.78-6.36 6.15M102.17 335.22a38.64 38.64 0 0 0-5.63-6.78 15.19 15.19 0 0 0-7.77-3.93 9.54 9.54 0 0 0-8.14 2.49 7 7 0 0 0-1.3 8.12c1.13 2 3.29 3.15 5.45 3.92a25.65 25.65 0 0 0 17.7-.2M107 354.7a19 19 0 0 0-8.6-6.7 14 14 0 0 0-10.76.38c-1.61.79-3.17 2.2-3.16 4s1.67 3.24 3.29 4.14a22.26 22.26 0 0 0 19.48.89M115.51 382.44a17.87 17.87 0 0 1 2.18-13.06 20.58 20.58 0 0 1 10.72-8.67 11 11 0 0 1 5.29-.72 5.72 5.72 0 0 1 4.3 2.89c1.35 2.75-.47 6.15-3 7.83a36.56 36.56 0 0 1-8.28 4.23c-4.5 1.49-8.59 6.64-10.35 10.28M120.64 403a28.46 28.46 0 0 1 4.59-16.35 15.55 15.55 0 0 1 6.64-6.39c2.85-1.24 6.53-1 8.68 1.29 2.75 2.9 2 7.86-.58 10.93s-6.35 4.75-10 6.42-6.47 3.59-8.66 6.93M123.78 419.88c1.41-5.07 3-10.21 6.13-14.42s8.2-7.35 13.43-6.85c2.48.24 5 1.48 6 3.76 1.23 2.84-.36 6.12-2.4 8.44a22.73 22.73 0 0 1-10.81 6.84c-2.33.66-4.77 1-7 1.8s-4.44 2.42-5.21 4.72M124.21 426.89c-1.63-5.35-6.5-9-11.4-11.71-3.67-2-7.77-3.71-11.92-3.19s-8.18 4-7.91 8.18 4.66 7.16 8.87 7.76 8.5-.36 12.75-.27 8.29 1.3 10.06 5.17M121.58 408.53a17 17 0 0 0-12-11 6.63 6.63 0 0 0-4.81.32 5.08 5.08 0 0 0-1.82 6.16 8.32 8.32 0 0 0 5.13 4.44 24.34 24.34 0 0 0 6.91 1 25 25 0 0 1 6.91.93M85.86 366.41a9.46 9.46 0 0 1-2.61-4.27 2.15 2.15 0 0 1 .06-1.58 1.63 1.63 0 0 1 1.89-.56 4.49 4.49 0 0 1 1.68 1.26 50.85 50.85 0 0 1 5.66 8.3" style="fill:#3c37d8"/><path d="M107.5 286.88a2.64 2.64 0 0 1-.15.37c-.12.26-.29.61-.49 1.05l-.81 1.7c-.28.69-.61 1.48-1 2.37a64.57 64.57 0 0 0-2.18 6.69 68.9 68.9 0 0 0-1.72 9.14 89.52 89.52 0 0 0 .59 24.17 203.52 203.52 0 0 0 7.23 28.8c3.16 10.06 6.47 19.57 8.83 28.43a212.53 212.53 0 0 1 5 23.8c1 6.85 1.5 12.44 1.76 16.3.12 1.93.2 3.43.23 4.45v1.16a2.47 2.47 0 0 1 0 .4 2.59 2.59 0 0 1 0-.4l-.09-1.15c-.08-1.05-.18-2.54-.32-4.44-.32-3.86-.85-9.43-1.92-16.26a220.8 220.8 0 0 0-5.06-23.74c-2.38-8.82-5.71-18.32-8.87-28.4a200.16 200.16 0 0 1-7.2-28.88 88.74 88.74 0 0 1-.49-24.28 70.13 70.13 0 0 1 1.8-9.18 63.71 63.71 0 0 1 2.28-6.68c.38-.89.72-1.68 1-2.36s.62-1.22.85-1.69.41-.77.54-1a1.83 1.83 0 0 1 .19-.37Z" style="fill:#263238"/><path d="M66.2 361.45a3.09 3.09 0 0 1 .73 0c.48.05 1.18.09 2.08.23a59.93 59.93 0 0 1 7.55 1.51 67.21 67.21 0 0 1 22.82 10.93 64.12 64.12 0 0 1 10.3 9.47 58.54 58.54 0 0 1 6.6 9.33 61.05 61.05 0 0 1 3.4 6.91c.37.83.6 1.5.77 1.95a3.26 3.26 0 0 1 .23.69 4.05 4.05 0 0 1-.32-.65c-.21-.43-.47-1.09-.86-1.91a73.09 73.09 0 0 0-3.54-6.8 60.2 60.2 0 0 0-6.64-9.2 65.08 65.08 0 0 0-10.25-9.37 69.21 69.21 0 0 0-22.6-11 71.65 71.65 0 0 0-7.47-1.62c-.89-.17-1.59-.25-2.06-.33a6.54 6.54 0 0 1-.74-.14ZM123.41 343.61a28.31 28.31 0 0 1-2.61 1.81 50.81 50.81 0 0 0-6 4.79 51.52 51.52 0 0 0-5.14 5.64 28 28 0 0 1-2 2.5 2.85 2.85 0 0 1 .39-.76c.28-.48.71-1.15 1.28-2a40 40 0 0 1 11.18-10.52c.84-.52 1.54-.91 2-1.16a3 3 0 0 1 .9-.3ZM130 365.73c0 .09-1.31.54-3.25 1.69a21 21 0 0 0-9.89 13.91c-.46 2.21-.45 3.63-.54 3.63a3.49 3.49 0 0 1-.07-1 17.7 17.7 0 0 1 .24-2.7 19.88 19.88 0 0 1 10.08-14.16A18 18 0 0 1 129 366a3.4 3.4 0 0 1 1-.27ZM132.58 386.54c0 .08-1 .74-2.6 2.07a25.39 25.39 0 0 0-8.16 13.39c-.46 2-.55 3.26-.65 3.25a3.14 3.14 0 0 1 0-.9 15.73 15.73 0 0 1 .3-2.43 23.34 23.34 0 0 1 2.94-7.54 22.93 22.93 0 0 1 5.35-6.05 17.07 17.07 0 0 1 2-1.39 3 3 0 0 1 .82-.4ZM139.17 406.63c0 .09-1.15.58-2.92 1.61a29.26 29.26 0 0 0-11 11.33c-1 1.81-1.43 3-1.52 3a3.07 3.07 0 0 1 .24-.87 20.1 20.1 0 0 1 1-2.27 26.08 26.08 0 0 1 11.15-11.49 17.6 17.6 0 0 1 2.24-1 3 3 0 0 1 .81-.31ZM107.85 401.52a6.73 6.73 0 0 1 2.51 0 15.38 15.38 0 0 1 10.24 6.06 7.32 7.32 0 0 1 1.24 2.19c-.08 0-.55-.79-1.52-2a17.29 17.29 0 0 0-10-5.92c-1.51-.23-2.47-.24-2.47-.33ZM105.45 420s.21-.27.75-.52a4.77 4.77 0 0 1 2.46-.34 10.75 10.75 0 0 1 3.49 1.14c1.23.59 2.58 1.25 3.95 2a27.29 27.29 0 0 1 6.5 4.81 15.17 15.17 0 0 1 1.56 1.91 3 3 0 0 1 .44.78c-.08.06-.78-1-2.26-2.43a31.41 31.41 0 0 0-6.49-4.62c-1.36-.76-2.7-1.43-3.91-2a11.31 11.31 0 0 0-3.33-1.21 5.32 5.32 0 0 0-3.16.48Z" style="fill:#263238"/><path d="M108.71 384a34.16 34.16 0 0 0-8.12 2.64 34 34 0 0 0-6.9 5 7.94 7.94 0 0 1 1.65-1.93 21.45 21.45 0 0 1 10.84-5.53 8.2 8.2 0 0 1 2.53-.18ZM108.54 383.5a6.93 6.93 0 0 1-1.1-1.72 30 30 0 0 1-1.93-4.51 29.64 29.64 0 0 1-1.18-4.76 6.51 6.51 0 0 1-.15-2c.16 0 .61 3 1.82 6.63s2.68 6.28 2.54 6.36ZM107 356.51a53.62 53.62 0 0 0-7.08-2.72 51.84 51.84 0 0 0-7.5-1.14 6.87 6.87 0 0 1 2.24-.15 23.46 23.46 0 0 1 5.39.79 23.91 23.91 0 0 1 5.06 2 7.8 7.8 0 0 1 1.89 1.22ZM117 327.52a17.86 17.86 0 0 1-2.19 1.68c-1.36 1-3.21 2.46-5.13 4.2s-3.53 3.44-4.67 4.7a17 17 0 0 1-1.89 2 12 12 0 0 1 1.61-2.25 44.75 44.75 0 0 1 9.87-9 12.57 12.57 0 0 1 2.4-1.33ZM103 338.33a24.29 24.29 0 0 1-2.4-1.33 39.57 39.57 0 0 0-12.12-4.33 18.14 18.14 0 0 1-2.64-.51 10.26 10.26 0 0 1 2.7.15 31.18 31.18 0 0 1 12.24 4.37 10.09 10.09 0 0 1 2.22 1.65ZM108.93 313.4c.12.11-2.09 2.35-4.37 5.45s-3.78 5.87-3.92 5.79a7.22 7.22 0 0 1 .84-1.89 33.4 33.4 0 0 1 2.67-4.2 34.68 34.68 0 0 1 3.23-3.8 7.06 7.06 0 0 1 1.55-1.35ZM100.28 318.47a17.31 17.31 0 0 1-1.21-1.8 26.88 26.88 0 0 0-3.41-3.93c-1.48-1.41-2.93-2.58-4-3.44a9.6 9.6 0 0 1-1.63-1.46 8.82 8.82 0 0 1 1.89 1.16 39.19 39.19 0 0 1 4.1 3.35 19.93 19.93 0 0 1 3.36 4.11 6 6 0 0 1 .9 2.01ZM93.63 370.53a44.18 44.18 0 0 0-6.63 2.55 46.38 46.38 0 0 0-5.86 4 6.69 6.69 0 0 1 1.43-1.56 20.77 20.77 0 0 1 9-4.71 6.49 6.49 0 0 1 2.06-.28ZM72.13 362.75c0 .16-3.16.35-6.91 1.36s-6.59 2.41-6.66 2.27a6.85 6.85 0 0 1 1.8-1.05 28.82 28.82 0 0 1 4.73-1.72 28.1 28.1 0 0 1 5-.87 7.32 7.32 0 0 1 2.04.01ZM78.58 364.21a16 16 0 0 1-2.23-3.5 17.14 17.14 0 0 1-1.77-3.71 16.77 16.77 0 0 1 2.23 3.5 17.37 17.37 0 0 1 1.77 3.71Z" style="fill:#263238"/><path d="M85.86 366.41a9.46 9.46 0 0 1-2.61-4.27 2.15 2.15 0 0 1 .06-1.58 1.63 1.63 0 0 1 1.89-.56 4.49 4.49 0 0 1 1.68 1.26 50.85 50.85 0 0 1 5.66 8.3" style="opacity:.4"/><path d="M102.48 435.71h44.62v19.18a22.31 22.31 0 0 1-22.31 22.31 22.31 22.31 0 0 1-22.31-22.31v-19.18Z" style="fill:#455a64"/><path d="M147.05 449.19a12.54 12.54 0 0 1-1.73-.52c-1.11-.35-2.7-.9-4.71-1.39a22.07 22.07 0 0 0-7.17-.72 15.35 15.35 0 0 0-4.14.94c-1.39.51-2.79 1.17-4.27 1.77a16.89 16.89 0 0 1-4.52 1.27 14 14 0 0 1-4.37-.29c-2.72-.61-5-1.58-7-2.19a21 21 0 0 0-4.78-1h-1.33a1.53 1.53 0 0 1-.47 0 1.62 1.62 0 0 1 .47-.07 7.12 7.12 0 0 1 1.34-.06 19.16 19.16 0 0 1 4.88.89c2 .57 4.32 1.5 7 2.07a13.41 13.41 0 0 0 4.22.25 16.32 16.32 0 0 0 4.37-1.24c1.47-.59 2.88-1.25 4.3-1.77a16.16 16.16 0 0 1 4.27-.94 21.63 21.63 0 0 1 7.3.84c2 .55 3.6 1.15 4.69 1.56l1.24.5a2.47 2.47 0 0 1 .41.1Z" style="fill:#263238"/><path d="M147.05 446.51a12.54 12.54 0 0 1-1.73-.52c-1.11-.36-2.7-.9-4.71-1.4a22.35 22.35 0 0 0-7.17-.72 15.76 15.76 0 0 0-4.14.95c-1.39.51-2.79 1.17-4.27 1.77a17.27 17.27 0 0 1-4.52 1.27 14 14 0 0 1-4.37-.3c-2.72-.61-5-1.57-7-2.19a21.48 21.48 0 0 0-4.78-1 9.3 9.3 0 0 0-1.33 0h-.47a1.39 1.39 0 0 1 .47-.08 7.29 7.29 0 0 1 1.34-.05 18.63 18.63 0 0 1 4.88.88c2 .58 4.32 1.51 7 2.07a13.41 13.41 0 0 0 4.22.26 17.09 17.09 0 0 0 4.37-1.24c1.47-.6 2.88-1.26 4.3-1.77a15.8 15.8 0 0 1 4.27-.95 22.15 22.15 0 0 1 7.3.84 46.52 46.52 0 0 1 4.69 1.57l1.24.5c.27.02.42.09.41.11Z" style="fill:#263238"/></svg>