<svg xmlns="http://www.w3.org/2000/svg" viewBox="0 0 500 500"><path d="M80.67 259.61c-93.52 54-93.52 141.53 0 195.52s245.15 54 338.66 0 93.52-141.53 0-195.52-245.15-54-338.66 0Z" style="fill:#fafafa"/><ellipse cx="97.4" cy="433.62" rx="55.39" ry="31.98" style="fill:#e0e0e0"/><ellipse cx="298.57" cy="374.5" rx="55.39" ry="31.98" style="fill:#e0e0e0"/><path d="m223.58 426.19 2.49-1.62-2.68-1.5-.86-.5-.84-.49a43.09 43.09 0 0 1-5.79-3.73 6.85 6.85 0 0 1 1.73-.41 8 8 0 0 0 3.11-.94 3.45 3.45 0 0 0 1.88-3 4.09 4.09 0 0 0-2.3-3.4 8.42 8.42 0 0 0-4.13-1 6.86 6.86 0 0 0-3.39.82 4.43 4.43 0 0 0-2 2.35 1.7 1.7 0 0 1-1.59.91H209c-2 0-4.66-1.56-8.75-3.93l-2-1.13-.87.45c-8.15 4.2-10.69 6.11-10.86 8.21v.21c0 .86.46 2.85 4.54 3a5.44 5.44 0 0 1 1.45.23 4 4 0 0 1-1 .79 7.43 7.43 0 0 1-3.52 1 2.62 2.62 0 0 1-1.24-.22c-.12-.07-.13-.1-.13-.14a3.7 3.7 0 0 0-3.89-3.2h-.16c-2.56.07-6.4 2.27-12.45 5.85-.39.22-.79.47-1.2.72l-2.92 1.7 3.13 1.76 2.48 1.39a45.86 45.86 0 0 1 5 3 7.41 7.41 0 0 1-1.6.36 8 8 0 0 0-3.12.94 3.46 3.46 0 0 0-1.88 3 4.1 4.1 0 0 0 2.3 3.39 8.4 8.4 0 0 0 4.12 1 6.8 6.8 0 0 0 3.39-.81 4.47 4.47 0 0 0 2-2.35 1.66 1.66 0 0 1 1.58-.91h.16c1.54 0 3.6 1.24 6.45 3 .89.54 1.91 1.16 3 1.8l.85.51.88-.46c9.62-4.95 12.31-6.85 12.48-8.86v-.23c0-.86-.47-2.85-4.55-3a5 5 0 0 1-1.45-.23 4 4 0 0 1 1-.79 7.57 7.57 0 0 1 3.53-1 2.52 2.52 0 0 1 1.24.22.4.4 0 0 1 .12.09 3.72 3.72 0 0 0 3.92 3.25h.13c2.92-.04 6.62-2.35 12.42-6.1ZM284.39 440a70.08 70.08 0 0 1-9.48-5.47c.24 0 .51-.06.83-.08a6.69 6.69 0 0 0 3.09-.74 3 3 0 0 0 1.59-2.6c0-1.43-1-2.84-2.81-3.88a10.23 10.23 0 0 0-4.92-1.35 5.39 5.39 0 0 0-2.72.63 3.42 3.42 0 0 0-1.76 2.65c0 .17-.34.28-.85.28-2.21-.06-6.34-2.74-11.12-5.84l-1-.62-1 .63c-1 .59-2 1.15-2.8 1.65s-1.39.84-2 1.2c-1.91 1.11-3.34 1.8-4.56 1.8h-.18a1.69 1.69 0 0 1-1.59-.92 4.44 4.44 0 0 0-2-2.33 6.69 6.69 0 0 0-3.38-.82 8.31 8.31 0 0 0-4.13 1.05 4.1 4.1 0 0 0-2.3 3.34 3.47 3.47 0 0 0 1.9 3.08 8.26 8.26 0 0 0 3.09.92 7.09 7.09 0 0 1 1.61.36 46.86 46.86 0 0 1-5 3c-.95.53-1.93 1.07-2.94 1.65l-2.54 1.46 2.46 1.6c6.62 4.28 10.72 6.61 13.44 6.69h.16a3.72 3.72 0 0 0 3.91-3.24.43.43 0 0 1 .11-.09 2.66 2.66 0 0 1 1.24-.22 7.57 7.57 0 0 1 3.53 1 4 4 0 0 1 1 .8 5.51 5.51 0 0 1-1.45.22c-4.23.17-4.55 2.37-4.55 3v.19c.19 2.18 2.95 3.95 11.14 8.16l.87.45.84-.49c1-.57 2-1.12 2.95-1.65 4.6-2.55 7.14-4 7.14-6.12a2.45 2.45 0 0 0 0-.39c-.36-2.19-3.11-2.83-4.71-3a5.41 5.41 0 0 1-2-.58 1.14 1.14 0 0 1-.22-.16 2.1 2.1 0 0 1 .57-.45 5.49 5.49 0 0 1 2.65-.63 4.09 4.09 0 0 1 2 .43 1.23 1.23 0 0 1 .59.62 4.73 4.73 0 0 0 4.25 3h.34c2.38 0 4.66-1.36 8.1-3.43.82-.49 1.72-1 2.73-1.61l2.85-1.64Z" style="fill:#e0e0e0"/><ellipse cx="419.25" cy="330.36" rx="53.84" ry="31.2" style="fill:#e0e0e0"/><path d="M306.91 35.67a1.86 1.86 0 0 0-.08-.41s0-.06 0-.09a1.68 1.68 0 0 0-.11-.4 1.83 1.83 0 0 0-.26-.57.87.87 0 0 0-.15-.24.65.65 0 0 0-.13-.16 1.18 1.18 0 0 0-.3-.29 1.83 1.83 0 0 0-.38-.23 3.25 3.25 0 0 0-3 .39L43 183c-2.48 1.43-4.5 4.93-4.5 9.94v212.3a3 3 0 0 0 1.62 2.7l.19.13.24.13a1.71 1.71 0 0 0 .38.13 2.25 2.25 0 0 0 .58.08A3 3 0 0 0 43 408l.11-.07 4.29-2.48 255-146.92a10 10 0 0 0 4.5-7.79V36.24c.04-.24.02-.39.01-.57Z" style="fill:#fafafa"/><path d="M304.43 34.32a1.14 1.14 0 0 1 .51.11h.08l.07.06.11.15.1.14.09.18v.06l.12.36V35.5a.53.53 0 0 1 0 .12v215.13a8.65 8.65 0 0 1-3.86 6.67l-255 146.92-4.17 2.41-.12.07-.08.05a1.82 1.82 0 0 1-.79.26h-.06a1.42 1.42 0 0 1-.3 0h-.09L41 407l-.1-.07h-.13a1.77 1.77 0 0 1-.94-1.57V193c0-4.86 2-7.75 3.86-8.82L303.07 34.76a2.86 2.86 0 0 1 1.36-.44m0-1.29a4.06 4.06 0 0 0-2 .61L43 183c-2.48 1.43-4.5 4.93-4.5 9.94v212.34a3 3 0 0 0 1.62 2.7l.19.13.24.13a1.71 1.71 0 0 0 .38.13 2.25 2.25 0 0 0 .58.08h.06A3 3 0 0 0 43 408l.11-.07 4.29-2.48 255-146.92a10 10 0 0 0 4.5-7.79V35.67a1.86 1.86 0 0 0-.08-.41s0-.06 0-.09a1.68 1.68 0 0 0-.11-.4 1.83 1.83 0 0 0-.26-.57.87.87 0 0 0-.15-.24.51.51 0 0 0-.13-.16 1.18 1.18 0 0 0-.3-.29 1.83 1.83 0 0 0-.38-.23 2.5 2.5 0 0 0-1-.22Z" style="fill:#3c37d8"/><path d="M305.46 33.25a3.25 3.25 0 0 0-3 .39L43 183a10 10 0 0 0-4.5 7.79v8.72l-5.74-3.36v-8.62a9.9 9.9 0 0 1 4.48-7.77L296.7 30.39a3.11 3.11 0 0 1 3.26-.26c.81.48 4.54 2.62 5.5 3.12Z" style="fill:#3c37d8"/><path d="M306.93 36.21c0-2.84-2-4-4.5-2.57L43 183a9.93 9.93 0 0 0-4.49 7.78v8.73L306.93 45Z" style="fill:#3c37d8"/><g style="opacity:.2"><path d="M302.43 33.64 43 183a9.25 9.25 0 0 0-3.17 3.33l-5.71-3.31a9 9 0 0 1 3.13-3.28L296.69 30.39a3.18 3.18 0 0 1 3.27-.27c.8.5 4.54 2.62 5.48 3.13a3.23 3.23 0 0 0-3.01.39Z" style="fill:#fff"/></g><path d="M32.76 196.2v-8.64a9.33 9.33 0 0 1 1.37-4.5l5.73 3.3a9 9 0 0 0-1.35 4.47v8.72Z" style="opacity:.15"/><path d="M287.4 46.75a4.58 4.58 0 0 0-1.9 3.65c0 1.4.85 2.05 1.9 1.44a4.56 4.56 0 0 0 1.91-3.65c0-1.4-.85-2.05-1.91-1.44ZM294.27 42.78a4.57 4.57 0 0 0-1.9 3.64c0 1.41.85 2.06 1.9 1.45a4.56 4.56 0 0 0 1.91-3.65c0-1.4-.85-2.05-1.91-1.44ZM301.14 38.81a4.56 4.56 0 0 0-1.9 3.64c0 1.41.85 2 1.9 1.44a4.54 4.54 0 0 0 1.91-3.64c0-1.41-.85-2.05-1.91-1.44Z" style="fill:#fafafa"/><path d="m40.12 408-.23-.13-4.74-2.75a4.78 4.78 0 0 1-2.35-3.48 4.87 4.87 0 0 1 0-.66v-204.8l5.75 3.37v205.71a2.93 2.93 0 0 0 1.4 2.55.61.61 0 0 0 .14.1Z" style="fill:#3c37d8"/><path d="m40.12 408-.23-.13-4.74-2.75a4.78 4.78 0 0 1-2.35-3.48 4.87 4.87 0 0 1 0-.66v-204.8l5.75 3.37v205.71a2.93 2.93 0 0 0 1.4 2.55.61.61 0 0 0 .14.1Z" style="fill:#fff;opacity:.5"/><path d="M228 177.73a.27.27 0 0 1-.17-.06.27.27 0 0 1 0-.37L253 148.21v-4.77a.26.26 0 0 1 .52 0v4.86a.24.24 0 0 1-.06.17l-25.26 29.17a.28.28 0 0 1-.2.09Z" style="fill:#455a64"/><path d="M228 175c1.16-.67 2.1-.13 2.1 1.22a4.65 4.65 0 0 1-2.1 3.64c-1.16.67-2.11.13-2.11-1.21A4.67 4.67 0 0 1 228 175Z" style="fill:#455a64"/><path d="M233.11 155.06a.75.75 0 0 1-.36-.1.71.71 0 0 1-.36-.62v-34.63a.71.71 0 0 1 .36-.63L273 96a.71.71 0 0 1 .72 0 .73.73 0 0 1 .36.62v34.63a.71.71 0 0 1-.36.62L233.47 155a.81.81 0 0 1-.36.06Zm.72-34.94v33l38.76-22.26v-33Z" style="fill:#e0e0e0"/><path d="M106.66 282.92H81.4a.27.27 0 0 1-.27-.28v-4.86a.28.28 0 1 1 .55 0v4.58h25a.28.28 0 0 1 .28.28.27.27 0 0 1-.3.28Z" style="fill:#455a64"/><path d="M106.66 280.21a4.66 4.66 0 0 0-2.1 3.65c0 1.34.94 1.88 2.1 1.21a4.63 4.63 0 0 0 2.11-3.64c0-1.35-.94-1.89-2.11-1.22Z" style="fill:#455a64"/><path d="M61.3 289.57a.75.75 0 0 1-.38-.1.77.77 0 0 1-.39-.67v-52.25a.8.8 0 0 1 .38-.67l40.21-23.33a.78.78 0 0 1 1.16.67v52.24a.77.77 0 0 1-.39.67l-40.2 23.34a.76.76 0 0 1-.39.1Zm.78-52.57v50.46L100.73 265v-50.44Z" style="fill:#e0e0e0"/><path d="M232.56 256.89a.27.27 0 0 1-.17-.06.27.27 0 0 1 0-.37L251 234.89v-8.66a.25.25 0 0 1 .26-.26.26.26 0 0 1 .26.26V235a.28.28 0 0 1-.07.17l-18.69 21.63a.25.25 0 0 1-.2.09Z" style="fill:#455a64"/><path d="M232.56 254.2c1.17-.67 2.11-.13 2.11 1.22a4.63 4.63 0 0 1-2.11 3.64c-1.16.67-2.1.13-2.1-1.21a4.65 4.65 0 0 1 2.1-3.65Z" style="fill:#455a64"/><path d="M231.19 238a.65.65 0 0 1-.36-.1.69.69 0 0 1-.36-.62v-34.59a.7.7 0 0 1 .36-.62L271 179a.71.71 0 0 1 .72 0 .73.73 0 0 1 .36.63v34.62a.73.73 0 0 1-.36.63L231.55 238a.8.8 0 0 1-.36 0Zm.72-34.93v33l38.76-22.26v-33Z" style="fill:#e0e0e0"/><path d="m187 343-17.84-4.62-17.84 4.62s-2.13 9.57.2 24.54 12.77 30 17.65 30 15.31-15 17.65-30S187 343 187 343Z" style="fill:#3c37d8"/><path d="m187 343-17.84-4.62-17.84 4.62s-2.13 9.57.2 24.54 12.77 30 17.65 30 15.31-15 17.65-30S187 343 187 343Z" style="fill:#fff;opacity:.5"/><path d="M180.85 345.13h-24.43c-3.49 21.1 7.72 37.29 12.22 37.29s15.7-16.19 12.21-37.29Z" style="fill:#3c37d8"/><path d="M168.64 345.13h4.18a18.49 18.49 0 0 1 2.27 11.27c-.5 5.69-3.94 13.09-6.45 13.09s-5.95-7.4-6.46-13.09a18.49 18.49 0 0 1 2.27-11.27h4.19" style="fill:#fff"/><path d="m197.63 332.1-2.42-25.81h-52.08l-2.42 25.81c-.51 4.56 2.23 9.22 8.28 12.7 11.15 6.43 29.21 6.43 40.35 0 6.07-3.48 8.8-8.14 8.29-12.7Z" style="fill:#37474f"/><path d="M150.73 318c-10.21-5.88-10.21-15.43 0-21.31s26.73-5.89 36.93 0 10.2 15.43 0 21.31-26.73 5.85-36.93 0Z" style="fill:#455a64"/><path d="m197.07 325.78-.81-8.65c-.75 3.33-3.33 6.55-7.76 9.11-10.66 6.15-27.94 6.15-38.61 0-4.44-2.56-7-5.78-7.77-9.11l-.82 8.65c.66 3.55 3.34 7 8.06 9.73 11 6.32 28.72 6.32 39.67 0 4.71-2.72 7.39-6.17 8.04-9.73Z" style="fill:#3c37d8"/><path d="M189.68 344.61c.27-.15.54-.31.79-.47s-8.45 4.2-21.41 3.65-20.91-5.5-21.15-9.14a46.91 46.91 0 0 1 .55-9c5.06 2.54 12.12 4.25 21.14 4.25 14.53 0 23.35-5 27.33-9.63l-.4-4.3-1.29-13.72h-52.11l-2.42 25.81a9.22 9.22 0 0 0 .06 2.57 8.3 8.3 0 0 0 .24 1.1 11.72 11.72 0 0 0 .5 1.44c1.21 2.78 3.7 5.42 7.48 7.59 5.57 3.22 12.88 4.83 20.18 4.83a49.49 49.49 0 0 0 5.45-.3c.9-.1 1.79-.23 2.67-.38a36.49 36.49 0 0 0 12.05-4.15Z" style="opacity:.2"/><path d="M169.94 324.15h-.76c-10.67.12-20.17-2.65-26.75-7.84a5.8 5.8 0 1 1 7.19-9.11c4.51 3.56 11.44 5.47 19.48 5.34h.17c8 .09 15-1.78 19.48-5.34a5.8 5.8 0 0 1 7.19 9.11c-6.43 5.07-15.64 7.84-26 7.84Z" style="fill:#455a64"/><path d="m213.32 252.49-14.36-27-3.79 5.11-6.6 59.34 6.23 3.06c8.25 4.12 14 13.21 16.22 25.74l4.12 23s1.81-17.18 3.8-37.87c1.77-18.49 1.73-38.66-5.62-51.38Z" style="fill:#37474f"/><path d="M215 197.21c0-56.78-24-105.84-41.8-117.21l-.47-.32h-.09a6.85 6.85 0 0 0-6.89 0h-.09l-.47.32c-17.84 11.36-41.83 60.42-41.83 117.2 0 54.63 15.32 103 16.78 107.55 0 .12.07.23.11.34 1.11 3.18 3.8 6.21 8.06 8.67 11.54 6.66 30.25 6.66 41.79 0 4.42-2.55 7.14-5.71 8.17-9 1.45-4.51 16.73-52.92 16.73-107.55Z" style="fill:#ebebeb"/><path d="M173.2 80c11.2 11.1 35.42 55.67 35.42 118.58 0 45.51-9.89 83.52-18.54 115.18 4.26-2.46 6.95-5.49 8.06-8.67a3.38 3.38 0 0 0 .11-.34c1.46-4.5 16.78-52.92 16.78-107.55C215 140.43 191 91.37 173.2 80Z" style="fill:#f5f5f5"/><path d="M169.19 79.69a5.91 5.91 0 0 1 2.95.8h.06a3.51 3.51 0 0 1 .4.27c9.17 5.84 19.34 21.2 27.22 41.1A209.54 209.54 0 0 1 214 197.21c0 54.22-15 102-16.73 107.25-1 3.19-3.67 6.11-7.72 8.45-5.44 3.14-12.68 4.87-20.4 4.87s-15-1.73-20.4-4.87c-3.92-2.26-6.55-5.07-7.63-8.13 0-.11-.07-.21-.1-.32-1.71-5.27-16.73-53-16.73-107.25a209.33 209.33 0 0 1 14.16-75.27c7.87-19.9 18-35.26 27.21-41.1a2.9 2.9 0 0 1 .41-.27 5.92 5.92 0 0 1 3-.8m0-1a6.82 6.82 0 0 0-3.45.93h-.08a5.72 5.72 0 0 0-.48.32c-17.84 11.36-41.83 60.42-41.83 117.2 0 54.63 15.32 103 16.78 107.55 0 .12.07.23.11.34 1.11 3.18 3.8 6.21 8.06 8.67 5.77 3.33 13.33 5 20.9 5s15.12-1.66 20.89-5c4.42-2.55 7.14-5.71 8.17-9 1.47-4.51 16.78-52.92 16.78-107.55C215 140.43 191 91.37 173.2 80l-.47-.32h-.09a6.81 6.81 0 0 0-3.44-.93Z" style="fill:#e0e0e0"/><path d="M186.25 93.65c-4.42-6.33-8.9-11-13.05-13.65-.15-.11-.31-.2-.47-.31h-.09a6.85 6.85 0 0 0-6.89 0h-.09l-.48.31c-4.14 2.65-8.62 7.32-13 13.66a115.87 115.87 0 0 0-7.64 12.74c.77 2.93 3.11 5.75 7 8 9.77 5.64 25.6 5.64 35.37 0 3.9-2.26 6.26-5.08 7-8a115.11 115.11 0 0 0-7.66-12.75Z" style="fill:#455a64"/><path d="m171.56 81.47-2.38-23.23-2.37 23.23a1.2 1.2 0 0 0 .7 1 3.73 3.73 0 0 0 3.35 0 1.2 1.2 0 0 0 .7-1Z" style="fill:#263238"/><path d="M123.34 197.21c0 54.63 15.32 103 16.78 107.55 0 .12.07.23.11.34 1.11 3.18 3.8 6.21 8.06 8.67a33.94 33.94 0 0 0 6.43 2.8c-7.47-26.86-16.24-72.47-16.24-118 0-62.89 15.52-107.46 26.69-118.57-17.84 11.37-41.83 60.43-41.83 117.21Z" style="opacity:.15"/><path d="m120.7 303.63 11.57-36.87 3.79.74 12.56 45.5-6.23 10.31a122.72 122.72 0 0 0-16.23 44.48L122 395.53s-1.81-15.09-3.8-33.49c-1.73-16.47-4.85-37.2 2.5-58.41Z" style="fill:#455a64"/><path d="m148.62 313-12.56-45.5-11.56 36.86c-7.35 21.21-5.61 42.08-4.4 60.9l1.9 30.27 4.12-27.77a122.72 122.72 0 0 1 16.23-44.48Z" style="fill:#37474f"/><path d="M206.44 157.94c-.91-5.83-3.78-10.28-7.82-12.59l-2.81-1.61A13.53 13.53 0 0 0 189 142a16 16 0 0 0-5.26.91c-8.56 3-14.41 12.72-13.93 23.18.33 7.16 3.74 13.08 8.66 16l3 1.71a13.66 13.66 0 0 0 6.89 1.87 14.41 14.41 0 0 0 4.64-.79c10-3.48 15.05-16.73 13.44-26.94Z" style="fill:#3c37d8"/><path d="M206.44 157.94c-.91-5.83-3.78-10.28-7.82-12.59l-2.81-1.61A13.53 13.53 0 0 0 189 142a16 16 0 0 0-5.26.91c-8.56 3-14.41 12.72-13.93 23.18.33 7.16 3.74 13.08 8.66 16l3 1.71a13.66 13.66 0 0 0 6.89 1.87 14.41 14.41 0 0 0 4.64-.79c10-3.48 15.05-16.73 13.44-26.94Z" style="opacity:.2"/><path d="M188.35 185.64c-8.5 0-15.27-7.73-15.75-18-.48-10.46 5.38-20.21 13.93-23.18a16 16 0 0 1 5.26-.92c7.53 0 13.28 5.65 14.65 14.38 1.61 10.21-3.41 23.46-13.45 26.91a14.41 14.41 0 0 1-4.64.81Z" style="fill:#3c37d8"/><path d="M191.39 180.18c-7.16 2.45-13.45-4.07-13.85-12.75s4.36-16.12 10.61-18.29 12.1 1.18 13.42 9.56-3.02 19.02-10.18 21.48Z" style="fill:#37474f"/><path d="M198.66 157.2c-.61-3.87-2.19-6.65-4.33-8.33a10.14 10.14 0 0 0-6.18.27c-6.25 2.17-11 9.62-10.61 18.29.22 4.86 2.3 9 5.33 11.35a8.85 8.85 0 0 0 5.61-.1c7.16-2.46 11.52-13.09 10.18-21.48Z" style="fill:#455a64"/><path d="M187.64 152.72c-5.86 2.93-8.56 9.91-7.44 16.2.09.51.29 1.11.8 1.24s1.06-.47 1.37-1c1.69-3 3.6-6.55 6.72-8.22a11.2 11.2 0 0 1 2.33-.78c2.2-.56 4.12-1.49 4.28-4.06a3.67 3.67 0 0 0-2.89-4.17 7.37 7.37 0 0 0-5.17.79Z" style="fill:#fff;opacity:.30000000000000004"/><path d="M203.57 207.26c-.71-4.46-2.9-7.86-6-9.64l-2.14-1.23a10.36 10.36 0 0 0-5.2-1.36 12.23 12.23 0 0 0-4 .71c-6.54 2.27-11 9.73-10.65 17.74.25 5.48 2.86 10 6.63 12.24l2.27 1.31a10.5 10.5 0 0 0 5.27 1.42 10.94 10.94 0 0 0 3.55-.6c7.7-2.64 11.5-12.78 10.27-20.59Z" style="fill:#3c37d8"/><path d="M203.57 207.26c-.71-4.46-2.9-7.86-6-9.64l-2.14-1.23a10.36 10.36 0 0 0-5.2-1.36 12.23 12.23 0 0 0-4 .71c-6.54 2.27-11 9.73-10.65 17.74.25 5.48 2.86 10 6.63 12.24l2.27 1.31a10.5 10.5 0 0 0 5.27 1.42 10.94 10.94 0 0 0 3.55-.6c7.7-2.64 11.5-12.78 10.27-20.59Z" style="opacity:.2"/><path d="M189.72 228.45c-6.51 0-11.69-5.91-12.05-13.75-.37-8 4.11-15.47 10.66-17.74a12.11 12.11 0 0 1 4-.7c5.76 0 10.16 4.31 11.22 11 1.23 7.81-2.62 18-10.3 20.59a10.94 10.94 0 0 1-3.53.6Z" style="fill:#3c37d8"/><path d="M192 224.28c-5.47 1.88-10.29-3.12-10.6-9.75s3.35-12.34 8.13-14 9.25.9 10.26 7.31-2.27 14.56-7.79 16.44Z" style="fill:#37474f"/><path d="M197.61 206.7a9.77 9.77 0 0 0-3.31-6.38 7.72 7.72 0 0 0-4.73.21c-4.78 1.66-8.44 7.36-8.13 14a11.51 11.51 0 0 0 4.09 8.68 6.72 6.72 0 0 0 4.29-.08c5.47-1.88 8.8-10.02 7.79-16.43Z" style="fill:#455a64"/><path d="M189.18 203.26c-4.49 2.24-6.56 7.59-5.7 12.4.07.39.22.86.61 1s.82-.36 1-.77c1.29-2.26 2.76-5 5.15-6.28a7.77 7.77 0 0 1 1.78-.6c1.68-.43 3.15-1.15 3.28-3.11a2.83 2.83 0 0 0-2.22-3.19 5.61 5.61 0 0 0-3.9.55Z" style="fill:#fff;opacity:.30000000000000004"/><path d="M98.15 78.66 91.79 75a.74.74 0 0 0-.65 0l-4.34 2a1.83 1.83 0 0 1 .13-1l5-10.11a1.13 1.13 0 0 0-.45-1.47l-5.43-3.14-6.35-3.71a1.13 1.13 0 0 0-1.49.35L72 67.31a1.87 1.87 0 0 1-.82.63l-.48-4.76a.71.71 0 0 0-.32-.57L64 59a.71.71 0 0 0-.68.06l-8.45 4.88a2.28 2.28 0 0 0-1 1.58L53 74.87a3.09 3.09 0 0 1-.88 1.75 51.65 51.65 0 0 0-4.69 5 1.62 1.62 0 0 1-1.66.47l-5.42-1.9a1.33 1.33 0 0 0-1.52.57L32.6 91.49a1.33 1.33 0 0 0 .28 1.6l4.35 3.75a1.62 1.62 0 0 1 .42 1.67 50.41 50.41 0 0 0-2 6.55 3.06 3.06 0 0 1-1.08 1.63l-7.71 5.44a2.24 2.24 0 0 0-.86 1.66v9.75a.68.68 0 0 0 .3.63l6.36 3.65a.7.7 0 0 0 .66 0l4.34-2a1.93 1.93 0 0 1-.13 1.05l-5 10.11a1.14 1.14 0 0 0 .44 1.47l7.64 4.39 4.14 2.39a1.15 1.15 0 0 0 1.5-.35l6.24-9.39a1.84 1.84 0 0 1 .83-.63l.47 4.76a.74.74 0 0 0 .33.58l6.35 3.64a.69.69 0 0 0 .69-.05l8.45-4.88a2.26 2.26 0 0 0 1-1.58l.85-9.4a3.14 3.14 0 0 1 .87-1.75 49.28 49.28 0 0 0 4.69-5 1.63 1.63 0 0 1 1.66-.47l5.43 1.89a1.31 1.31 0 0 0 1.52-.56l6.21-10.76a1.33 1.33 0 0 0-.27-1.6L87.26 106a1.6 1.6 0 0 1-.42-1.67 52 52 0 0 0 2-6.55 3.08 3.08 0 0 1 1.08-1.63l7.72-5.44a2.27 2.27 0 0 0 .81-1.71v-9.71a.7.7 0 0 0-.3-.63Zm-47 32.82c0-9.1 6.39-20.17 14.27-24.72 3.08-1.76 5.93-2.3 8.26-1.76 1.21 1.67 1.85 4.22 1.85 7.56 0 9.1-6.38 20.17-14.27 24.72-3.08 1.78-5.7 2.35-7.75 1.87a11.69 11.69 0 0 1-2.36-7.67Z" style="fill:#3c37d8"/><path d="M98.15 78.66 91.79 75a.74.74 0 0 0-.65 0l-4.34 2a1.83 1.83 0 0 1 .13-1l5-10.11a1.13 1.13 0 0 0-.45-1.47l-5.43-3.14-6.35-3.71a1.13 1.13 0 0 0-1.49.35L72 67.31a1.87 1.87 0 0 1-.82.63l-.48-4.76a.71.71 0 0 0-.32-.57L64 59a.71.71 0 0 0-.68.06l-8.45 4.88a2.28 2.28 0 0 0-1 1.58L53 74.87a3.09 3.09 0 0 1-.88 1.75 51.65 51.65 0 0 0-4.69 5 1.62 1.62 0 0 1-1.66.47l-5.42-1.9a1.33 1.33 0 0 0-1.52.57L32.6 91.49a1.33 1.33 0 0 0 .28 1.6l4.35 3.75a1.62 1.62 0 0 1 .42 1.67 50.41 50.41 0 0 0-2 6.55 3.06 3.06 0 0 1-1.08 1.63l-7.71 5.44a2.24 2.24 0 0 0-.86 1.66v9.75a.68.68 0 0 0 .3.63l6.36 3.65a.7.7 0 0 0 .66 0l4.34-2a1.93 1.93 0 0 1-.13 1.05l-5 10.11a1.14 1.14 0 0 0 .44 1.47l7.64 4.39 4.14 2.39a1.15 1.15 0 0 0 1.5-.35l6.24-9.39a1.84 1.84 0 0 1 .83-.63l.47 4.76a.74.74 0 0 0 .33.58l6.35 3.64a.69.69 0 0 0 .69-.05l8.45-4.88a2.26 2.26 0 0 0 1-1.58l.85-9.4a3.14 3.14 0 0 1 .87-1.75 49.28 49.28 0 0 0 4.69-5 1.63 1.63 0 0 1 1.66-.47l5.43 1.89a1.31 1.31 0 0 0 1.52-.56l6.21-10.76a1.33 1.33 0 0 0-.27-1.6L87.26 106a1.6 1.6 0 0 1-.42-1.67 52 52 0 0 0 2-6.55 3.08 3.08 0 0 1 1.08-1.63l7.72-5.44a2.27 2.27 0 0 0 .81-1.71v-9.71a.7.7 0 0 0-.3-.63Zm-47 32.82c0-9.1 6.39-20.17 14.27-24.72 3.08-1.76 5.93-2.3 8.26-1.76 1.21 1.67 1.85 4.22 1.85 7.56 0 9.1-6.38 20.17-14.27 24.72-3.08 1.78-5.7 2.35-7.75 1.87a11.69 11.69 0 0 1-2.36-7.67Z" style="fill:#fff;opacity:.2"/><path d="M42.12 125a.89.89 0 0 0-1.25-.59l-3.17 1.43a1.87 1.87 0 0 1-.14 1.06l-5 10.11a1.14 1.14 0 0 0 .44 1.47l7.64 4.39-1.29-.75a1.13 1.13 0 0 1-.44-1.47l5-10.1a2 2 0 0 0-.12-1.82 17.43 17.43 0 0 1-1.67-3.73Zm18.31 18.84a.92.92 0 0 1-.26-.54l-.82-8.21a.89.89 0 0 0-1.13-.79 17.63 17.63 0 0 1-4.07.41 2 2 0 0 0-.81.17l.48 4.77a.7.7 0 0 0 .33.57ZM79.68 95c0 9.1-6.38 20.16-14.26 24.72-5 2.87-9.37 2.46-11.92-.54 2 .5 4.68-.08 7.77-1.86 7.88-4.55 14.26-15.62 14.26-24.72 0-3.33-.64-5.88-1.84-7.57 3.63.89 5.99 4.43 5.99 9.97Z" style="opacity:.1"/><path d="M79.7 57.56a1.13 1.13 0 0 0-1.49.36L72 67.31a1.61 1.61 0 0 1-.42.4l6.36 3.66a1.53 1.53 0 0 0 .42-.42l6.24-9.39a1.15 1.15 0 0 1 1.37-.41ZM91.79 75a.73.73 0 0 0-.66 0l-4.34 2a2.07 2.07 0 0 0 .26.76 17 17 0 0 1 1.6 3.55.75.75 0 0 1 .07.18 1.07 1.07 0 0 0 .22.39l.11.1a.85.85 0 0 0 .25.13.79.79 0 0 0 .46 0 .56.56 0 0 0 .21-.06l7.52-3.39.19-.07a.58.58 0 0 1 .26 0 .49.49 0 0 1 .21.08ZM64 59a.69.69 0 0 0-.68.07l-8.45 4.87a2.2 2.2 0 0 0-.84 1l6.34 3.65a2.16 2.16 0 0 1 .85-1l8.45-4.89a.76.76 0 0 1 .64-.08Zm-28.79 47.06a2.76 2.76 0 0 1-.59.63l-7.72 5.43a2.11 2.11 0 0 0-.51.59l6.34 3.64a1.73 1.73 0 0 1 .52-.58l7.75-5.43a2.77 2.77 0 0 0 .59-.63Zm4.69-26a1.36 1.36 0 0 0-1.09.63L32.6 91.48a1.35 1.35 0 0 0-.14.79l6.35 3.66a1.29 1.29 0 0 1 .14-.8l6.22-10.76a1.29 1.29 0 0 1 1-.62Z" style="fill:#3c37d8"/><path d="M79.7 57.56a1.13 1.13 0 0 0-1.49.36L72 67.31a1.61 1.61 0 0 1-.42.4l6.36 3.66a1.53 1.53 0 0 0 .42-.42l6.24-9.39a1.15 1.15 0 0 1 1.37-.41ZM91.79 75a.73.73 0 0 0-.66 0l-4.34 2a2.07 2.07 0 0 0 .26.76 17 17 0 0 1 1.6 3.55.75.75 0 0 1 .07.18 1.07 1.07 0 0 0 .22.39l.11.1a.85.85 0 0 0 .25.13.79.79 0 0 0 .46 0 .56.56 0 0 0 .21-.06l7.52-3.39.19-.07a.58.58 0 0 1 .26 0 .49.49 0 0 1 .21.08ZM64 59a.69.69 0 0 0-.68.07l-8.45 4.87a2.2 2.2 0 0 0-.84 1l6.34 3.65a2.16 2.16 0 0 1 .85-1l8.45-4.89a.76.76 0 0 1 .64-.08Zm-28.79 47.06a2.76 2.76 0 0 1-.59.63l-7.72 5.43a2.11 2.11 0 0 0-.51.59l6.34 3.64a1.73 1.73 0 0 1 .52-.58l7.75-5.43a2.77 2.77 0 0 0 .59-.63Zm4.69-26a1.36 1.36 0 0 0-1.09.63L32.6 91.48a1.35 1.35 0 0 0-.14.79l6.35 3.66a1.29 1.29 0 0 1 .14-.8l6.22-10.76a1.29 1.29 0 0 1 1-.62Z" style="fill:#fff;opacity:.7000000000000001"/><path d="M98.45 89v-9.71a.63.63 0 0 0-1-.62L90 82.06a.89.89 0 0 1-1.25-.58A16.76 16.76 0 0 0 87 77.75a2.08 2.08 0 0 1-.11-1.82l5-10.11a1.13 1.13 0 0 0-.45-1.47l-5.43-3.14a1.15 1.15 0 0 0-1.5.35L78.31 71a2.08 2.08 0 0 1-1.63.82 16.69 16.69 0 0 0-4.07.41.9.9 0 0 1-1.13-.8l-.82-8.2a.63.63 0 0 0-1-.52l-8.45 4.87a2.28 2.28 0 0 0-1 1.58l-.85 9.4a3.09 3.09 0 0 1-.88 1.75 52.85 52.85 0 0 0-4.69 5 1.62 1.62 0 0 1-1.66.47l-5.42-1.89a1.32 1.32 0 0 0-1.52.56L39 95.13a1.33 1.33 0 0 0 .27 1.6l4.35 3.75a1.62 1.62 0 0 1 .42 1.67 50.81 50.81 0 0 0-2 6.55 3.21 3.21 0 0 1-1.04 1.64l-7.72 5.43a2.25 2.25 0 0 0-.86 1.66v9.75a.63.63 0 0 0 1 .62l7.52-3.38a.89.89 0 0 1 1.25.58 17.13 17.13 0 0 0 1.67 3.72 2.07 2.07 0 0 1 .12 1.83l-5 10.1a1.14 1.14 0 0 0 .44 1.47l5.44 3.14a1.15 1.15 0 0 0 1.5-.35l6.24-9.39a2.06 2.06 0 0 1 1.64-.81 16.59 16.59 0 0 0 4.06-.42.9.9 0 0 1 1.13.8l.83 8.2a.63.63 0 0 0 1 .53l8.45-4.88a2.26 2.26 0 0 0 1-1.58l.85-9.4a3.14 3.14 0 0 1 .87-1.75 49.28 49.28 0 0 0 4.69-5 1.63 1.63 0 0 1 1.66-.47l5.43 1.89a1.31 1.31 0 0 0 1.52-.56l6.21-10.76a1.33 1.33 0 0 0-.27-1.6L87.26 106a1.6 1.6 0 0 1-.42-1.67 52 52 0 0 0 2-6.55 3.12 3.12 0 0 1 1.08-1.63l7.72-5.44a2.27 2.27 0 0 0 .81-1.71Zm-33 30.67c-7.88 4.55-14.27.87-14.27-8.23s6.39-20.17 14.27-24.72S79.69 85.9 79.69 95s-6.39 20.16-14.27 24.71Z" style="fill:#3c37d8"/><path d="M98.45 89v-9.71a.63.63 0 0 0-1-.62L90 82.06a.89.89 0 0 1-1.25-.58A16.76 16.76 0 0 0 87 77.75a2.08 2.08 0 0 1-.11-1.82l5-10.11a1.13 1.13 0 0 0-.45-1.47l-5.43-3.14a1.15 1.15 0 0 0-1.5.35L78.31 71a2.08 2.08 0 0 1-1.63.82 16.69 16.69 0 0 0-4.07.41.9.9 0 0 1-1.13-.8l-.82-8.2a.63.63 0 0 0-1-.52l-8.45 4.87a2.28 2.28 0 0 0-1 1.58l-.85 9.4a3.09 3.09 0 0 1-.88 1.75 52.85 52.85 0 0 0-4.69 5 1.62 1.62 0 0 1-1.66.47l-5.42-1.89a1.32 1.32 0 0 0-1.52.56L39 95.13a1.33 1.33 0 0 0 .27 1.6l4.35 3.75a1.62 1.62 0 0 1 .42 1.67 50.81 50.81 0 0 0-2 6.55 3.21 3.21 0 0 1-1.04 1.64l-7.72 5.43a2.25 2.25 0 0 0-.86 1.66v9.75a.63.63 0 0 0 1 .62l7.52-3.38a.89.89 0 0 1 1.25.58 17.13 17.13 0 0 0 1.67 3.72 2.07 2.07 0 0 1 .12 1.83l-5 10.1a1.14 1.14 0 0 0 .44 1.47l5.44 3.14a1.15 1.15 0 0 0 1.5-.35l6.24-9.39a2.06 2.06 0 0 1 1.64-.81 16.59 16.59 0 0 0 4.06-.42.9.9 0 0 1 1.13.8l.83 8.2a.63.63 0 0 0 1 .53l8.45-4.88a2.26 2.26 0 0 0 1-1.58l.85-9.4a3.14 3.14 0 0 1 .87-1.75 49.28 49.28 0 0 0 4.69-5 1.63 1.63 0 0 1 1.66-.47l5.43 1.89a1.31 1.31 0 0 0 1.52-.56l6.21-10.76a1.33 1.33 0 0 0-.27-1.6L87.26 106a1.6 1.6 0 0 1-.42-1.67 52 52 0 0 0 2-6.55 3.12 3.12 0 0 1 1.08-1.63l7.72-5.44a2.27 2.27 0 0 0 .81-1.71Zm-33 30.67c-7.88 4.55-14.27.87-14.27-8.23s6.39-20.17 14.27-24.72S79.69 85.9 79.69 95s-6.39 20.16-14.27 24.71Z" style="fill:#fff;opacity:.55"/><g style="opacity:.55"><path d="M85.5 61.78a.46.46 0 0 1 .2 0L91.14 65a.43.43 0 0 1 .16.53l-5 10.11a2.75 2.75 0 0 0 .14 2.51A16.35 16.35 0 0 1 88 81.69a1.62 1.62 0 0 0 1.54 1.17 1.65 1.65 0 0 0 .69-.15l7.47-3.37V89a1.6 1.6 0 0 1-.55 1.08l-7.72 5.43a3.88 3.88 0 0 0-1.37 2.07 49 49 0 0 1-1.93 6.45 2.35 2.35 0 0 0 .63 2.47l4.35 3.74a.63.63 0 0 1 .12.71l-6.21 10.75a.61.61 0 0 1-.51.27h-.16L79 120.1a1.89 1.89 0 0 0-.67-.12 2.34 2.34 0 0 0-1.78.81 50.31 50.31 0 0 1-4.62 4.89 3.84 3.84 0 0 0-1.11 2.22l-.84 9.4a1.6 1.6 0 0 1-.66 1l-8.4 4.85-.86-8.15a1.59 1.59 0 0 0-1.6-1.47 2.58 2.58 0 0 0-.39 0 16.18 16.18 0 0 1-3.52.4h-.43a2.8 2.8 0 0 0-2.19 1.13l-6.25 9.39a.42.42 0 0 1-.35.18.41.41 0 0 1-.19-.05l-5.44-3.08a.42.42 0 0 1-.16-.53l5-10.11a2.79 2.79 0 0 0-.14-2.51 15.51 15.51 0 0 1-1.61-3.57 1.61 1.61 0 0 0-1.54-1.17 1.72 1.72 0 0 0-.69.15l-7.47 3.37v-9.7a1.59 1.59 0 0 1 .56-1.08l7.72-5.43a3.82 3.82 0 0 0 1.36-2.06 51.88 51.88 0 0 1 1.93-6.46 2.32 2.32 0 0 0-.62-2.46l-4.34-3.75a.61.61 0 0 1-.12-.7l6.21-10.76a.6.6 0 0 1 .51-.27h.15l5.42 1.9a2.15 2.15 0 0 0 .68.11 2.36 2.36 0 0 0 1.77-.8A50.52 50.52 0 0 1 59 80.79a3.82 3.82 0 0 0 1.1-2.22l.85-9.4a1.61 1.61 0 0 1 .65-1L70 63.3l.82 8.16a1.59 1.59 0 0 0 1.61 1.46 1.72 1.72 0 0 0 .39 0 16.11 16.11 0 0 1 3.52-.4h.43a2.79 2.79 0 0 0 2.19-1.13l6.2-9.39a.4.4 0 0 1 .34-.18M59 122.38a13.58 13.58 0 0 0 6.74-2c8.06-4.65 14.62-16 14.62-25.33a12.65 12.65 0 0 0-2.34-8 7.75 7.75 0 0 0-6.27-3 13.55 13.55 0 0 0-6.73 2c-8.07 4.66-14.63 16-14.63 25.34 0 6.62 3.38 10.9 8.61 10.9m26.5-61.22a1.13 1.13 0 0 0-.94.49L78.31 71a2.06 2.06 0 0 1-1.59.82h-.43a17.1 17.1 0 0 0-3.68.42.93.93 0 0 1-.23 0 .88.88 0 0 1-.9-.82l-.82-8.2c0-.41-.28-.65-.6-.65a.82.82 0 0 0-.42.13l-8.45 4.87a2.28 2.28 0 0 0-1 1.58l-.85 9.4a3.09 3.09 0 0 1-.88 1.75 52.85 52.85 0 0 0-4.69 5 1.62 1.62 0 0 1-1.22.54 1.31 1.31 0 0 1-.44-.07l-5.42-1.89a1.07 1.07 0 0 0-.39-.07 1.32 1.32 0 0 0-1.13.63L39 95.13a1.33 1.33 0 0 0 .27 1.6l4.35 3.75a1.62 1.62 0 0 1 .42 1.67 50.81 50.81 0 0 0-2 6.55 3.21 3.21 0 0 1-1.04 1.64l-7.72 5.43a2.25 2.25 0 0 0-.86 1.66v9.75c0 .44.24.71.59.71a.87.87 0 0 0 .37-.09l7.52-3.38a.92.92 0 0 1 .39-.09.9.9 0 0 1 .86.67 17.13 17.13 0 0 0 1.67 3.72 2.07 2.07 0 0 1 .12 1.83l-5 10.1a1.14 1.14 0 0 0 .44 1.47l5.44 3.14a1.08 1.08 0 0 0 .55.15 1.15 1.15 0 0 0 1-.5l6.24-9.39a2.08 2.08 0 0 1 1.6-.81h.43a17.09 17.09 0 0 0 3.67-.42h.24a.88.88 0 0 1 .89.82l.83 8.2c0 .41.28.65.59.65a.87.87 0 0 0 .42-.12l8.45-4.88a2.26 2.26 0 0 0 1-1.58l.85-9.4a3.14 3.14 0 0 1 .87-1.75 49.28 49.28 0 0 0 4.69-5 1.68 1.68 0 0 1 1.23-.54 1.21 1.21 0 0 1 .43.07l5.43 1.89a1 1 0 0 0 .39.07 1.33 1.33 0 0 0 1.13-.63l6.21-10.76a1.33 1.33 0 0 0-.27-1.6L87.26 106a1.62 1.62 0 0 1-.43-1.67 50.41 50.41 0 0 0 2-6.55 3.12 3.12 0 0 1 1.08-1.63l7.72-5.44a2.27 2.27 0 0 0 .82-1.71v-9.71c0-.44-.25-.71-.6-.71a.87.87 0 0 0-.36.09L90 82.06a1 1 0 0 1-.4.09.91.91 0 0 1-.85-.67A16.76 16.76 0 0 0 87 77.75a2.08 2.08 0 0 1-.11-1.82l5-10.11a1.13 1.13 0 0 0-.45-1.47l-5.43-3.14a1.14 1.14 0 0 0-.56-.14ZM59 121.66c-4.68 0-7.89-3.73-7.89-10.18 0-9.1 6.39-20.17 14.27-24.72a13 13 0 0 1 6.37-2c4.68 0 7.9 3.73 7.9 10.19 0 9.1-6.39 20.16-14.27 24.71a12.88 12.88 0 0 1-6.38 2Z" style="fill:#fff"/></g><path d="M150.62 54.19a3.84 3.84 0 0 1 1-2.06l4.16-3.82a2.55 2.55 0 0 0 .7-2.05l-.78-4.54a.89.89 0 0 0-.4-.63l-4.93-2.84a.79.79 0 0 0-.86.08l-1.79 1.17 1.73-4.67a1 1 0 0 0-.48-1.29l-4.94-2.85a1.62 1.62 0 0 0-.33-.13l-3.13-.7a1.7 1.7 0 0 0-1.78.82l-2.94 5.62a3 3 0 0 1-1.18 1.09l-.13-.45a.91.91 0 0 0-.4-.55l-4.95-2.86a.79.79 0 0 0-.92.12l-4.7 3.7a2.65 2.65 0 0 0-.89 2l.28 4.47a3.52 3.52 0 0 1-.73 2.16c-.77.92-1.5 1.89-2.18 2.89a2.45 2.45 0 0 1-1.91 1l-3-.15a1.94 1.94 0 0 0-1.74 1.06l-2.84 6.37a1.2 1.2 0 0 0 .49 1.52l3.34 1.93a1.45 1.45 0 0 1 .08.87 27.85 27.85 0 0 0-.52 3 3.87 3.87 0 0 1-1 2.07l-4.16 3.82a2.55 2.55 0 0 0-.7 2l.78 4.54a.85.85 0 0 0 .38.61l5 2.86a.79.79 0 0 0 .85-.09l1.79-1.18-1.73 4.68a1 1 0 0 0 .41 1.27l5 2.86a1.09 1.09 0 0 0 .35.15l3.13.71a1.71 1.71 0 0 0 1.78-.83l3-5.61a2.82 2.82 0 0 1 1.17-1.09l.13.45a.89.89 0 0 0 .41.55l4.91 2.83a.8.8 0 0 0 .9-.14l4.7-3.69a2.65 2.65 0 0 0 .89-2l-.28-4.47a3.52 3.52 0 0 1 .73-2.16c.77-.92 1.5-1.89 2.18-2.89a2.45 2.45 0 0 1 1.91-1l3 .15a2 2 0 0 0 1.74-1.06l2.78-6.25a1.22 1.22 0 0 0-.64-1.61l-2.44-1a1.52 1.52 0 0 1-.83-1.68 27.61 27.61 0 0 0 .53-3.08ZM125.56 68c-.93-5.35 2.45-12.93 7.55-16.93a10.29 10.29 0 0 1 5.35-2.39 8.2 8.2 0 0 1 .58 2c.93 5.35-2.45 12.93-7.54 16.93a10.32 10.32 0 0 1-5.34 2.39 7.27 7.27 0 0 1-.6-2Z" style="fill:#3c37d8"/><path d="M150.62 54.19a3.84 3.84 0 0 1 1-2.06l4.16-3.82a2.55 2.55 0 0 0 .7-2.05l-.78-4.54a.89.89 0 0 0-.4-.63l-4.93-2.84a.79.79 0 0 0-.86.08l-1.79 1.17 1.73-4.67a1 1 0 0 0-.48-1.29l-4.94-2.85a1.62 1.62 0 0 0-.33-.13l-3.13-.7a1.7 1.7 0 0 0-1.78.82l-2.94 5.62a3 3 0 0 1-1.18 1.09l-.13-.45a.91.91 0 0 0-.4-.55l-4.95-2.86a.79.79 0 0 0-.92.12l-4.7 3.7a2.65 2.65 0 0 0-.89 2l.28 4.47a3.52 3.52 0 0 1-.73 2.16c-.77.92-1.5 1.89-2.18 2.89a2.45 2.45 0 0 1-1.91 1l-3-.15a1.94 1.94 0 0 0-1.74 1.06l-2.84 6.37a1.2 1.2 0 0 0 .49 1.52l3.34 1.93a1.45 1.45 0 0 1 .08.87 27.85 27.85 0 0 0-.52 3 3.87 3.87 0 0 1-1 2.07l-4.16 3.82a2.55 2.55 0 0 0-.7 2l.78 4.54a.85.85 0 0 0 .38.61l5 2.86a.79.79 0 0 0 .85-.09l1.79-1.18-1.73 4.68a1 1 0 0 0 .41 1.27l5 2.86a1.09 1.09 0 0 0 .35.15l3.13.71a1.71 1.71 0 0 0 1.78-.83l3-5.61a2.82 2.82 0 0 1 1.17-1.09l.13.45a.89.89 0 0 0 .41.55l4.91 2.83a.8.8 0 0 0 .9-.14l4.7-3.69a2.65 2.65 0 0 0 .89-2l-.28-4.47a3.52 3.52 0 0 1 .73-2.16c.77-.92 1.5-1.89 2.18-2.89a2.45 2.45 0 0 1 1.91-1l3 .15a2 2 0 0 0 1.74-1.06l2.78-6.25a1.22 1.22 0 0 0-.64-1.61l-2.44-1a1.52 1.52 0 0 1-.83-1.68 27.61 27.61 0 0 0 .53-3.08ZM125.56 68c-.93-5.35 2.45-12.93 7.55-16.93a10.29 10.29 0 0 1 5.35-2.39 8.2 8.2 0 0 1 .58 2c.93 5.35-2.45 12.93-7.54 16.93a10.32 10.32 0 0 1-5.34 2.39 7.27 7.27 0 0 1-.6-2Z" style="fill:#fff;opacity:.2"/><path d="M120.89 78a1.2 1.2 0 0 0-1.66-.38l-2.38 1.57-1.72 4.67a1 1 0 0 0 .41 1.27l4.9 2.82a1 1 0 0 1-.37-1.24l2.12-5.71a2.08 2.08 0 0 0-.48-2 9 9 0 0 1-.82-1Zm14.46 7.16a.92.92 0 0 1-.4-.54l-1-3.52a1.08 1.08 0 0 0-1.49-.68 14.06 14.06 0 0 1-1.93.64 2.54 2.54 0 0 0-.61.25l.14.45a.93.93 0 0 0 .41.55ZM136.44 70.44c-4.39 3.45-8.62 3.12-10.28-.48a10.18 10.18 0 0 0 5.33-2.37c5.09-4 8.48-11.58 7.56-16.93a7.55 7.55 0 0 0-.6-2c2.8-.24 5 1.43 5.54 4.81.92 5.39-2.46 12.96-7.55 16.97Z" style="opacity:.1"/><path d="M119.05 49.64a2 2 0 0 1-.86.18l-3-.14a1.89 1.89 0 0 0-1.25.45l5 2.86a1.88 1.88 0 0 1 1.25-.46l3 .15a2.11 2.11 0 0 0 .87-.17Zm10.19-16.12a.81.81 0 0 0-.92.13l-4.7 3.7a2.59 2.59 0 0 0-.78 1.23l5 2.85a2.5 2.5 0 0 1 .77-1.23l4.7-3.69a.79.79 0 0 1 .93-.12Zm-16.33 33.06-4.11 3.78a2.47 2.47 0 0 0-.64 1.18l4.94 2.85a2.43 2.43 0 0 1 .65-1.18l4.11-3.77Zm31.17-35.9a1.07 1.07 0 0 0-.33-.12l-3.13-.71a1.71 1.71 0 0 0-1.78.82l-2.94 5.62a2.61 2.61 0 0 1-.67.75l4.94 2.86a2.78 2.78 0 0 0 .67-.76l2.95-5.62a1.7 1.7 0 0 1 1.77-.82l3.13.71a2 2 0 0 1 .32.11Zm6.31 7.56a.8.8 0 0 0-.86.07l-1.79 1.19-.39 1.05a2.07 2.07 0 0 0 .49 2 8.92 8.92 0 0 1 .81 1 1.21 1.21 0 0 0 .21.24l.18.14a1 1 0 0 0 .42.16 1.14 1.14 0 0 0 .55 0 .75.75 0 0 0 .3-.14l4.16-2.74a2 2 0 0 1 .31-.14.61.61 0 0 1 .35 0 .66.66 0 0 1 .2.06Z" style="fill:#3c37d8"/><path d="M119.05 49.64a2 2 0 0 1-.86.18l-3-.14a1.89 1.89 0 0 0-1.25.45l5 2.86a1.88 1.88 0 0 1 1.25-.46l3 .15a2.11 2.11 0 0 0 .87-.17Zm10.19-16.12a.81.81 0 0 0-.92.13l-4.7 3.7a2.59 2.59 0 0 0-.78 1.23l5 2.85a2.5 2.5 0 0 1 .77-1.23l4.7-3.69a.79.79 0 0 1 .93-.12Zm-16.33 33.06-4.11 3.78a2.47 2.47 0 0 0-.64 1.18l4.94 2.85a2.43 2.43 0 0 1 .65-1.18l4.11-3.77Zm31.17-35.9a1.07 1.07 0 0 0-.33-.12l-3.13-.71a1.71 1.71 0 0 0-1.78.82l-2.94 5.62a2.61 2.61 0 0 1-.67.75l4.94 2.86a2.78 2.78 0 0 0 .67-.76l2.95-5.62a1.7 1.7 0 0 1 1.77-.82l3.13.71a2 2 0 0 1 .32.11Zm6.31 7.56a.8.8 0 0 0-.86.07l-1.79 1.19-.39 1.05a2.07 2.07 0 0 0 .49 2 8.92 8.92 0 0 1 .81 1 1.21 1.21 0 0 0 .21.24l.18.14a1 1 0 0 0 .42.16 1.14 1.14 0 0 0 .55 0 .75.75 0 0 0 .3-.14l4.16-2.74a2 2 0 0 1 .31-.14.61.61 0 0 1 .35 0 .66.66 0 0 1 .2.06Z" style="fill:#fff;opacity:.7000000000000001"/><path d="m156.5 46.26-.78-4.54a.75.75 0 0 0-1.24-.54l-4.16 2.74a1.21 1.21 0 0 1-1.67-.38 7.92 7.92 0 0 0-.81-1 2.05 2.05 0 0 1-.49-2l2.12-5.74a1 1 0 0 0-.77-1.42l-3.14-.71a1.69 1.69 0 0 0-1.77.83l-2.95 5.61a3.08 3.08 0 0 1-1.78 1.34 15.56 15.56 0 0 0-1.93.64 1.06 1.06 0 0 1-1.48-.68l-1.06-3.51a.78.78 0 0 0-1.33-.42l-4.7 3.69a2.65 2.65 0 0 0-.89 2l.28 4.47a3.46 3.46 0 0 1-.73 2.16c-.77.92-1.5 1.89-2.18 2.89a2.44 2.44 0 0 1-1.91 1l-3-.15a1.93 1.93 0 0 0-1.73 1.06l-2.86 6.4a1.2 1.2 0 0 0 .63 1.61l2.44 1a1.51 1.51 0 0 1 .84 1.68 27.67 27.67 0 0 0-.53 3 3.76 3.76 0 0 1-1 2.06l-4.17 3.82a2.52 2.52 0 0 0-.69 2.05l.78 4.54a.75.75 0 0 0 1.24.54l4.16-2.74a1.21 1.21 0 0 1 1.67.38 7.92 7.92 0 0 0 .81 1 2.07 2.07 0 0 1 .48 2l-2.12 5.74a1 1 0 0 0 .78 1.42l3.13.71a1.71 1.71 0 0 0 1.78-.83l3-5.61a3 3 0 0 1 1.72-1.37 14.52 14.52 0 0 0 1.93-.64 1.07 1.07 0 0 1 1.48.68l1.1 3.55a.78.78 0 0 0 1.32.42l4.7-3.69a2.65 2.65 0 0 0 .89-2l-.28-4.47a3.58 3.58 0 0 1 .73-2.16c.77-.92 1.5-1.89 2.18-2.89a2.45 2.45 0 0 1 1.91-1l3 .15a2 2 0 0 0 1.74-1.06l2.81-6.33a1.22 1.22 0 0 0-.64-1.61l-2.44-1a1.52 1.52 0 0 1-.83-1.68 27.61 27.61 0 0 0 .52-3 3.84 3.84 0 0 1 1-2.06l4.16-3.82a2.55 2.55 0 0 0 .73-2.13Zm-20.06 24.18c-5.09 4-10 2.91-10.88-2.43s2.45-12.93 7.55-16.93 10-2.91 10.88 2.43-2.46 12.93-7.55 16.93Z" style="fill:#3c37d8"/><path d="m156.5 46.26-.78-4.54a.75.75 0 0 0-1.24-.54l-4.16 2.74a1.21 1.21 0 0 1-1.67-.38 7.92 7.92 0 0 0-.81-1 2.05 2.05 0 0 1-.49-2l2.12-5.74a1 1 0 0 0-.77-1.42l-3.14-.71a1.69 1.69 0 0 0-1.77.83l-2.95 5.61a3.08 3.08 0 0 1-1.78 1.34 15.56 15.56 0 0 0-1.93.64 1.06 1.06 0 0 1-1.48-.68l-1.06-3.51a.78.78 0 0 0-1.33-.42l-4.7 3.69a2.65 2.65 0 0 0-.89 2l.28 4.47a3.46 3.46 0 0 1-.73 2.16c-.77.92-1.5 1.89-2.18 2.89a2.44 2.44 0 0 1-1.91 1l-3-.15a1.93 1.93 0 0 0-1.73 1.06l-2.86 6.4a1.2 1.2 0 0 0 .63 1.61l2.44 1a1.51 1.51 0 0 1 .84 1.68 27.67 27.67 0 0 0-.53 3 3.76 3.76 0 0 1-1 2.06l-4.17 3.82a2.52 2.52 0 0 0-.69 2.05l.78 4.54a.75.75 0 0 0 1.24.54l4.16-2.74a1.21 1.21 0 0 1 1.67.38 7.92 7.92 0 0 0 .81 1 2.07 2.07 0 0 1 .48 2l-2.12 5.74a1 1 0 0 0 .78 1.42l3.13.71a1.71 1.71 0 0 0 1.78-.83l3-5.61a3 3 0 0 1 1.72-1.37 14.52 14.52 0 0 0 1.93-.64 1.07 1.07 0 0 1 1.48.68l1.1 3.55a.78.78 0 0 0 1.32.42l4.7-3.69a2.65 2.65 0 0 0 .89-2l-.28-4.47a3.58 3.58 0 0 1 .73-2.16c.77-.92 1.5-1.89 2.18-2.89a2.45 2.45 0 0 1 1.91-1l3 .15a2 2 0 0 0 1.74-1.06l2.81-6.33a1.22 1.22 0 0 0-.64-1.61l-2.44-1a1.52 1.52 0 0 1-.83-1.68 27.61 27.61 0 0 0 .52-3 3.84 3.84 0 0 1 1-2.06l4.16-3.82a2.55 2.55 0 0 0 .73-2.13Zm-20.06 24.18c-5.09 4-10 2.91-10.88-2.43s2.45-12.93 7.55-16.93 10-2.91 10.88 2.43-2.46 12.93-7.55 16.93Z" style="fill:#fff;opacity:.55"/><g style="opacity:.55"><path d="M145.26 33.42h.14l3.13.7a.33.33 0 0 1 .23.15.31.31 0 0 1 0 .28l-2.12 5.74a2.79 2.79 0 0 0 .65 2.75 9.46 9.46 0 0 1 .71.96 2 2 0 0 0 1.65.89 1.87 1.87 0 0 0 1-.32l4.16-2.73h.07a.25.25 0 0 0 0 .07l.78 4.54a1.84 1.84 0 0 1-.47 1.38l-4.16 3.82a4.58 4.58 0 0 0-1.25 2.53 26.83 26.83 0 0 1-.51 3 2.27 2.27 0 0 0 1.27 2.54l2.44 1a.43.43 0 0 1 .25.26.45.45 0 0 1 0 .36l-2.84 6.36a1.2 1.2 0 0 1-1 .62l-3-.15h-.11a3.21 3.21 0 0 0-2.46 1.3c-.67 1-1.39 1.94-2.13 2.83a4.29 4.29 0 0 0-.91 2.69l.28 4.46a1.87 1.87 0 0 1-.6 1.36l-4.7 3.69-.09.07a.27.27 0 0 1-.06-.11l-1.06-3.52a1.77 1.77 0 0 0-1.73-1.3 2 2 0 0 0-.75.15 13.47 13.47 0 0 1-1.83.6A3.83 3.83 0 0 0 128 82l-2.94 5.61a1 1 0 0 1-.81.46h-.15l-3.13-.7a.3.3 0 0 1-.23-.15.38.38 0 0 1 0-.28l2.13-5.74a2.82 2.82 0 0 0-.65-2.75 8.16 8.16 0 0 1-.74-.91 2 2 0 0 0-1.65-.89 1.9 1.9 0 0 0-1 .32l-4.15 2.73h-.07a.14.14 0 0 1 0-.07l-.79-4.54a1.8 1.8 0 0 1 .47-1.37l4.16-3.83a4.52 4.52 0 0 0 1.26-2.53 26.83 26.83 0 0 1 .51-3 2.27 2.27 0 0 0-1.28-2.54l-2.44-1a.49.49 0 0 1-.25-.26.5.5 0 0 1 0-.36l2.84-6.36a1.21 1.21 0 0 1 1-.62l3 .15h.11a3.2 3.2 0 0 0 2.46-1.3c.67-1 1.39-1.94 2.14-2.83a4.34 4.34 0 0 0 .9-2.69l-.28-4.46a1.9 1.9 0 0 1 .61-1.36l4.69-3.69.1-.07a.61.61 0 0 1 .05.11l1.06 3.52a1.79 1.79 0 0 0 1.73 1.3 2 2 0 0 0 .75-.15 13.93 13.93 0 0 1 1.83-.6 3.8 3.8 0 0 0 2.26-1.72l2.95-5.61a1 1 0 0 1 .81-.46M130.59 73.6a10.53 10.53 0 0 0 6.31-2.6c5.28-4.15 8.79-12.06 7.83-17.64-.59-3.36-2.73-5.44-5.73-5.44a10.55 10.55 0 0 0-6.31 2.57c-5.27 4.15-8.78 12.06-7.82 17.64.59 3.43 2.74 5.47 5.77 5.47m14.67-40.93a1.72 1.72 0 0 0-1.47.86l-2.95 5.61a3.08 3.08 0 0 1-1.78 1.34 14.06 14.06 0 0 0-1.93.64 1.35 1.35 0 0 1-.47.09 1 1 0 0 1-1-.77l-1.06-3.51a.81.81 0 0 0-.75-.65 1 1 0 0 0-.58.23l-4.69 3.69a2.62 2.62 0 0 0-.9 2l.28 4.47a3.46 3.46 0 0 1-.73 2.16c-.77.92-1.5 1.89-2.18 2.89a2.45 2.45 0 0 1-1.84 1h-.07l-3-.15H120a1.94 1.94 0 0 0-1.66 1.06l-2.8 6.37a1.2 1.2 0 0 0 .63 1.61l2.44 1a1.51 1.51 0 0 1 .84 1.68 27.67 27.67 0 0 0-.53 3 3.76 3.76 0 0 1-1 2.06l-4.16 3.82a2.49 2.49 0 0 0-.7 2.05l.78 4.54c.08.46.36.72.71.72a1 1 0 0 0 .53-.18l4.16-2.74a1.13 1.13 0 0 1 .63-.19 1.29 1.29 0 0 1 1 .57 7.92 7.92 0 0 0 .81 1 2.07 2.07 0 0 1 .48 2l-2.12 5.74a1 1 0 0 0 .78 1.42l3.13.71a1.55 1.55 0 0 0 .31 0 1.71 1.71 0 0 0 1.47-.86l3-5.61a3 3 0 0 1 1.76-1.34 14.52 14.52 0 0 0 1.93-.64 1.25 1.25 0 0 1 .46-.09 1 1 0 0 1 1 .77l1.12 3.55a.79.79 0 0 0 .74.65.9.9 0 0 0 .58-.23l4.7-3.69a2.65 2.65 0 0 0 .89-2l-.28-4.47a3.58 3.58 0 0 1 .73-2.16c.77-.92 1.5-1.89 2.18-2.89a2.45 2.45 0 0 1 1.84-1h.07l3 .15h.07a2 2 0 0 0 1.67-1.06l2.81-6.33a1.22 1.22 0 0 0-.64-1.61l-2.44-1a1.52 1.52 0 0 1-.83-1.68 27.61 27.61 0 0 0 .52-3 3.84 3.84 0 0 1 1-2.06l4.16-3.82a2.55 2.55 0 0 0 .7-2.05l-.78-4.54c-.08-.46-.36-.72-.72-.72a1 1 0 0 0-.52.18L150.29 44a1.16 1.16 0 0 1-.63.19 1.28 1.28 0 0 1-1-.57 7.92 7.92 0 0 0-.81-1 2.08 2.08 0 0 1-.49-2l2.12-5.74a1 1 0 0 0-.77-1.42l-3.14-.71a1.53 1.53 0 0 0-.3 0Zm-14.72 40.18c-2.55 0-4.49-1.67-5-4.84-.92-5.35 2.46-12.93 7.56-16.93a9.76 9.76 0 0 1 5.85-2.41c2.55 0 4.49 1.67 5 4.84.92 5.35-2.46 12.93-7.55 16.93a9.78 9.78 0 0 1-5.85 2.41Z" style="fill:#fff"/></g><path d="M402.9 441.77c-9.39 0-18.78-2.06-25.93-6.19s-10.89-9.47-10.89-15.25 3.92-11.2 10.92-15.25c14.3-8.26 37.57-8.26 51.88 0 7 4.05 10.88 9.47 10.88 15.25s-3.87 11.2-10.89 15.25-16.57 6.19-25.97 6.19Zm0-41.95c-9.23 0-18.45 2-25.47 6.08-6.72 3.88-10.41 9-10.41 14.43s3.69 10.56 10.41 14.43c14 8.11 36.89 8.11 50.93 0 6.72-3.87 10.41-9 10.41-14.43s-3.69-10.55-10.41-14.43c-7.01-4.05-16.23-6.08-25.45-6.08Z" style="fill:#3c37d8"/><path d="M403.88 412.66v6.12l-6-16.42v-6.11Z" style="fill:#263238"/><path style="fill:#37474f" d="M403.88 412.66v6.12l24.92-8.65v-6.11l-24.92 8.64z"/><path d="m397.84 396.25 6 16.41L428.8 404c-6.8-5.95-18.73-8.93-30.96-7.75Z" style="fill:#455a64"/><path d="M371.81 413.8a1.09 1.09 0 0 0 0 .18v-.18Z" style="fill:#3c37d8"/><path d="m401.4 420.38-3.7 17.4c-15.11-1.47-26-9.11-25.89-17.84v-6c0 8.67 10.88 16.23 25.9 17.69l2.54-12Z" style="fill:#3c37d8"/><path d="m401.4 420.38-3.7 17.4c-15.11-1.47-26-9.11-25.89-17.84v-6c0 8.67 10.88 16.23 25.9 17.69l2.54-12Z" style="opacity:.4"/><path d="M400.53 431.87V438a48.26 48.26 0 0 0 18.39-2.52c7.12-2.47 12.15-6.39 14.16-11.05a11.07 11.07 0 0 0 .94-4.26v-6.32a6.52 6.52 0 0 1-3.75-2.29l-4.67 1.62-21.37 7.41Z" style="fill:#3c37d8"/><path d="M400.53 431.87V438a48.26 48.26 0 0 0 18.39-2.52c7.12-2.47 12.15-6.39 14.16-11.05a11.07 11.07 0 0 0 .94-4.26v-6.32a6.52 6.52 0 0 1-3.75-2.29l-4.67 1.62-21.37 7.41Z" style="fill:#fff;opacity:.6000000000000001"/><path style="fill:#3c37d8" d="m381.94 406.81 18.56 10.72v-6.12l-18.56-10.71v6.11z"/><path style="opacity:.1" d="m381.94 406.81 18.56 10.72v-6.12l-18.56-10.71v6.11z"/><path d="M372 411.78c-2 9.55 9.39 18.3 25.67 19.89l3.7-17.4-21.48-12.41c-4.46 2.81-7.04 6.06-7.89 9.92Z" style="fill:#3c37d8"/><path d="M372 411.78c-2 9.55 9.39 18.3 25.67 19.89l3.7-17.4-21.48-12.41c-4.46 2.81-7.04 6.06-7.89 9.92Z" style="opacity:.30000000000000004"/><path d="m400.64 431.36-.11.51a48.26 48.26 0 0 0 18.39-2.51c7.12-2.47 12.15-6.4 14.16-11.05 1.89-4.39.89-8.93-2.81-12.88l-4.67 1.62-21.37 7.42Z" style="fill:#3c37d8"/><path d="m400.64 431.36-.11.51a48.26 48.26 0 0 0 18.39-2.51c7.12-2.47 12.15-6.4 14.16-11.05 1.89-4.39.89-8.93-2.81-12.88l-4.67 1.62-21.37 7.42Z" style="fill:#fff;opacity:.75"/><path d="m381.94 400.7 18.56 10.71-5.5-14.82a38 38 0 0 0-13.06 4.11ZM401.4 420.38v-6.12l-3.71 17.41v6.11l3.71-17.4z" style="fill:#3c37d8"/><path style="opacity:.55" d="M401.4 420.38v-6.12l-3.71 17.41v6.11l3.71-17.4z"/><path style="fill:#3c37d8" d="m425.08 387.08-4.05 2.33 4.05 2.34 4.04-2.34-4.04-2.33z"/><path style="opacity:.30000000000000004" d="m425.08 387.08-4.05 2.33 4.05 2.34 4.04-2.34-4.04-2.33z"/><path style="fill:#3c37d8" d="M429.12 389.41v2.34l-4.04 2.34v-2.34l4.04-2.34z"/><path style="opacity:.4" d="M429.12 389.41v2.34l-4.04 2.34v-2.34l4.04-2.34z"/><path style="fill:#3c37d8" d="M425.08 391.75v2.34l-4.05-2.34v-2.34l4.05 2.34z"/><path style="opacity:.55" d="M425.08 391.75v2.34l-4.05-2.34v-2.34l4.05 2.34z"/><path d="m431.25 385.27 12.7-7.33a3.45 3.45 0 0 1 3.14-.06c.84.48.79 1.29-.1 1.81l-12.7 7.31a3.48 3.48 0 0 1-3.14.06c-.84-.47-.79-1.28.1-1.79Z" style="fill:#e0e0e0"/><path style="fill:#3c37d8" d="m434.19 392.34-4.05 2.33 4.05 2.34 4.04-2.34-4.04-2.33z"/><path style="fill:#fff;opacity:.88" d="m434.19 392.34-4.05 2.33 4.05 2.34 4.04-2.34-4.04-2.33z"/><path style="fill:#3c37d8" d="M438.23 394.67v2.34l-4.04 2.34v-2.34l4.04-2.34z"/><path style="fill:#fff;opacity:.75" d="M438.23 394.67v2.34l-4.04 2.34v-2.34l4.04-2.34z"/><path style="fill:#3c37d8" d="M434.19 397.01v2.34l-4.05-2.34v-2.34l4.05 2.34z"/><path style="fill:#fff;opacity:.6000000000000001" d="M434.19 397.01v2.34l-4.05-2.34v-2.34l4.05 2.34z"/><path d="m440.36 390.53 12.7-7.33a3.45 3.45 0 0 1 3.14-.06c.84.48.8 1.29-.1 1.81l-12.7 7.33a3.48 3.48 0 0 1-3.14.06c-.84-.49-.79-1.34.1-1.81Z" style="fill:#e0e0e0"/><path style="fill:#3c37d8" d="m443.3 397.6-4.04 2.33 4.04 2.34 4.04-2.34-4.04-2.33z"/><path style="fill:#fff;opacity:.30000000000000004" d="m443.3 397.6-4.04 2.33 4.04 2.34 4.04-2.34-4.04-2.33z"/><path style="fill:#3c37d8" d="M447.35 399.93v2.34l-4.05 2.34v-2.34l4.05-2.34zM443.3 402.27v2.34l-4.04-2.34v-2.34l4.04 2.34z"/><path style="opacity:.1" d="M443.3 402.27v2.34l-4.04-2.34v-2.34l4.04 2.34z"/><path d="m449.47 395.79 12.71-7.33a3.43 3.43 0 0 1 3.13-.06c.84.48.8 1.29-.1 1.81l-12.7 7.33a3.48 3.48 0 0 1-3.14.06c-.83-.49-.79-1.3.1-1.81Z" style="fill:#e0e0e0"/><path style="fill:#455a64" d="m452.41 402.86-4.04 2.33 4.04 2.34 4.04-2.34-4.04-2.33z"/><path style="fill:#37474f" d="m456.46 405.19-.01 2.34-4.04 2.34v-2.34l4.05-2.34z"/><path style="fill:#263238" d="M452.41 407.53v2.34l-4.04-2.34v-2.34l4.04 2.34z"/><path d="m458.59 401.05 12.7-7.33a3.43 3.43 0 0 1 3.13-.06c.84.48.8 1.29-.1 1.81l-12.7 7.33a3.46 3.46 0 0 1-3.13.06c-.84-.49-.8-1.3.1-1.81Z" style="fill:#e0e0e0"/><path d="m293.13 152.28 60.59-35c1-.56 1.78-.1 1.78 1v83.31a4 4 0 0 1-1.78 3.09l-60.59 35c-1 .57-1.78.11-1.78-1v-83.31a4 4 0 0 1 1.78-3.09Z" style="opacity:.2"/><path d="M351.19 125.48 298 156.15a4.33 4.33 0 0 0-2 3.4v79.86a4.3 4.3 0 0 0 2 3.38l3.73 2.12a4.37 4.37 0 0 0 3.94 0l53.17-30.67a4.32 4.32 0 0 0 2-3.4V131a4.28 4.28 0 0 0-2-3.38l-3.74-2.12a4.35 4.35 0 0 0-3.91-.02Z" style="fill:#3c37d8"/><path d="M305.7 244.89a4.47 4.47 0 0 1-3.94 0l-3.76-2.1a4.28 4.28 0 0 1-2-3.38v-79.86a4.08 4.08 0 0 1 .63-2l7.64 4.42a4 4 0 0 0-.58 1.94v79.85c.05 1.14.86 1.8 2.01 1.13Z" style="opacity:.2"/><g style="opacity:.2"><path d="M360.81 130.6c-.16-1-1-1.34-1.94-.78l-53.16 30.68a3.91 3.91 0 0 0-1.39 1.46l-7.65-4.42a3.76 3.76 0 0 1 1.35-1.39l53.17-30.68a4.42 4.42 0 0 1 3.93 0l3.74 2.12a4.36 4.36 0 0 1 1.95 3.01Z" style="fill:#fff"/></g><path d="M358.87 129.83 305.7 160.5a4.33 4.33 0 0 0-2 3.4v79.86c0 1.25.88 1.76 2 1.13l53.17-30.67a4.31 4.31 0 0 0 2-3.4V131c-.04-1.29-.87-1.8-2-1.17Z" style="fill:#fafafa"/><path d="M359.26 131.41v79.41a2.82 2.82 0 0 1-1.17 2l-52.78 30.48v-79.4a2.8 2.8 0 0 1 1.18-2l52.77-30.45m.49-1.85a1.74 1.74 0 0 0-.88.27L305.7 160.5a4.33 4.33 0 0 0-2 3.4v79.86c0 .89.44 1.4 1.08 1.4a1.78 1.78 0 0 0 .88-.27l53.17-30.67a4.31 4.31 0 0 0 2-3.4V131c0-.89-.44-1.4-1.08-1.4Z" style="fill:#3c37d8"/><path d="m347.72 211 .13-65c0-1.22-.8-1.74-1.78-1.17a4.08 4.08 0 0 0-1.79 3.23l-.13 65.06c0 1.21.8 1.74 1.79 1.17a4.11 4.11 0 0 0 1.78-3.29Z" style="fill:#e0e0e0"/><path d="M347.71 193v18a4.11 4.11 0 0 1-1.78 3.24c-1 .57-1.79 0-1.79-1.17v-18Z" style="fill:#3c37d8"/><path d="M345.8 201.36a4.39 4.39 0 0 1-1.66.59v-6.86l3.58-2.06v6.72a8 8 0 0 1-1.92 1.61Z" style="opacity:.30000000000000004"/><path d="M350.46 191.44c0-2.89-2-4.07-4.54-2.62a10 10 0 0 0-4.54 7.86c0 2.9 2 4.07 4.54 2.62a10 10 0 0 0 4.54-7.86Z" style="fill:#3c37d8"/><path d="M350.46 191.44c0-2.89-2-4.07-4.54-2.62a10 10 0 0 0-4.54 7.86c0 2.9 2 4.07 4.54 2.62a10 10 0 0 0 4.54-7.86Z" style="fill:#fff;opacity:.30000000000000004"/><path d="m334.09 218.85.13-65c0-1.22-.8-1.74-1.79-1.17a4.1 4.1 0 0 0-1.78 3.23l-.13 65.06c0 1.21.8 1.74 1.78 1.17a4.09 4.09 0 0 0 1.79-3.29Z" style="fill:#e0e0e0"/><path d="m334.16 171-.07 47.86a4.09 4.09 0 0 1-1.79 3.24c-1 .57-1.78 0-1.78-1.17l.06-47.86Z" style="fill:#3c37d8"/><path d="M332.25 179.09a4.41 4.41 0 0 1-1.68.59v-6.62l3.58-2.07v6.51a8 8 0 0 1-1.9 1.59Z" style="opacity:.30000000000000004"/><path d="M336.91 169.17c0-2.89-2-4.06-4.54-2.62a10 10 0 0 0-4.54 7.87c0 2.89 2 4.07 4.54 2.62a10 10 0 0 0 4.54-7.87Z" style="fill:#3c37d8"/><path d="M336.91 169.17c0-2.89-2-4.06-4.54-2.62a10 10 0 0 0-4.54 7.87c0 2.89 2 4.07 4.54 2.62a10 10 0 0 0 4.54-7.87Z" style="fill:#fff;opacity:.30000000000000004"/><path d="m320.46 226.72.13-65.05c0-1.22-.8-1.74-1.79-1.17a4.08 4.08 0 0 0-1.79 3.23l-.13 65.06c0 1.21.8 1.74 1.79 1.17a4.09 4.09 0 0 0 1.79-3.24Z" style="fill:#e0e0e0"/><path d="M320.44 208.77v17.95a4.09 4.09 0 0 1-1.79 3.24c-1 .57-1.79 0-1.79-1.17v-18Z" style="fill:#3c37d8"/><path d="M318.54 217.1a4.37 4.37 0 0 1-1.67.59v-6.86l3.57-2.06v6.72a8.18 8.18 0 0 1-1.9 1.61Z" style="opacity:.30000000000000004"/><path d="M323.2 207.18c0-2.9-2-4.07-4.54-2.62a10 10 0 0 0-4.54 7.86c0 2.9 2 4.07 4.54 2.62a10 10 0 0 0 4.54-7.86Z" style="fill:#3c37d8"/><path d="M323.2 207.18c0-2.9-2-4.07-4.54-2.62a10 10 0 0 0-4.54 7.86c0 2.9 2 4.07 4.54 2.62a10 10 0 0 0 4.54-7.86Z" style="fill:#fff;opacity:.30000000000000004"/><path d="m293.13 70.41 60.59-35c1-.57 1.78-.11 1.78 1V89.2a4 4 0 0 1-1.78 3.08l-60.59 35c-1 .57-1.78.11-1.78-1V73.49a3.93 3.93 0 0 1 1.78-3.08Z" style="opacity:.2"/><path d="M351.19 43.6 298 74.27a4.36 4.36 0 0 0-2 3.4V127a4.3 4.3 0 0 0 2 3.38l3.73 2.12a4.44 4.44 0 0 0 3.94 0l53.17-30.67a4.34 4.34 0 0 0 2-3.4V49.08a4.3 4.3 0 0 0-2-3.38l-3.74-2.12a4.38 4.38 0 0 0-3.91.02Z" style="fill:#3c37d8"/><path d="M305.7 132.44a4.5 4.5 0 0 1-3.94 0l-3.76-2.11a4.25 4.25 0 0 1-2-3.37V77.67a4 4 0 0 1 .63-2l7.64 4.42a3.92 3.92 0 0 0-.58 1.93v49.28c.05 1.15.86 1.81 2.01 1.14Z" style="opacity:.2"/><g style="opacity:.2"><path d="M360.81 48.73c-.16-1-1-1.35-1.94-.78l-53.16 30.67a3.94 3.94 0 0 0-1.39 1.47l-7.65-4.42a3.87 3.87 0 0 1 1.35-1.4l53.17-30.67a4.35 4.35 0 0 1 3.93 0l3.74 2.12a4.34 4.34 0 0 1 1.95 3.01Z" style="fill:#fff"/></g><path d="M358.87 48 305.7 78.62a4.36 4.36 0 0 0-2 3.4v49.29c0 1.25.88 1.75 2 1.13l53.17-30.67a4.33 4.33 0 0 0 2-3.4V49.08c-.04-1.25-.87-1.76-2-1.08Z" style="fill:#fafafa"/><path d="M359.26 49.54v48.83a2.83 2.83 0 0 1-1.17 2l-52.78 30.44V82a2.8 2.8 0 0 1 1.18-2l52.77-30.44m.49-1.86a1.84 1.84 0 0 0-.88.27L305.7 78.62a4.36 4.36 0 0 0-2 3.4v49.29c0 .88.44 1.4 1.08 1.4a1.78 1.78 0 0 0 .88-.27l53.17-30.67a4.33 4.33 0 0 0 2-3.4V49.08c0-.88-.44-1.4-1.08-1.4Z" style="fill:#3c37d8"/><path style="fill:#3c37d8" d="M346.3 100.81V66.65l-3.05-1.76v34.17l3.05 1.75z"/><path style="opacity:.2" d="M346.3 100.81V66.65l-3.05-1.76v34.17l3.05 1.75z"/><path style="fill:#3c37d8" d="m346.3 100.81 8.85-5.1V61.55l-8.85 5.1v34.16zM355.15 61.55l-3.05-1.77-8.85 5.11 3.05 1.76 8.85-5.1z"/><path style="fill:#fff;opacity:.25" d="m355.15 61.55-3.05-1.77-8.85 5.11 3.05 1.76 8.85-5.1z"/><path d="m355.15 61.55-8.85 5-3.05-1.63 2.93 2c-.07 1 0 33 .12 34 .13-1 .19-33 .12-34Z" style="fill:#fff;opacity:.30000000000000004"/><path style="fill:#3c37d8" d="M329.71 110.39V82.95l-3.05-1.76v27.44l3.05 1.76z"/><path style="fill:#fff;opacity:.1" d="M329.71 110.39V82.95l-3.05-1.76v27.44l3.05 1.76z"/><path style="fill:#3c37d8" d="m329.71 110.39 8.85-5.11V77.84l-8.85 5.11v27.44z"/><path style="fill:#fff;opacity:.30000000000000004" d="m329.71 110.39 8.85-5.11V77.84l-8.85 5.11v27.44z"/><path style="fill:#3c37d8" d="m338.56 77.84-3.05-1.76-8.85 5.11 3.05 1.76 8.85-5.11z"/><path style="fill:#fff;opacity:.55" d="m338.56 77.84-3.05-1.76-8.85 5.11 3.05 1.76 8.85-5.11z"/><path d="m329.83 83 8.73-5.17-8.85 5c-1-.54-3-1.63-3-1.63s1.95 1.25 2.93 1.83c0 1 .05 26.32.12 27.37.02-1.06.1-26.4.07-27.4Z" style="fill:#fff;opacity:.30000000000000004"/><path style="fill:#3c37d8" d="M313.12 119.97V96.94l-3.05-1.76v23.03l3.05 1.76z"/><path style="opacity:.45" d="M313.12 119.97V96.94l-3.05-1.76v23.03l3.05 1.76z"/><path style="fill:#3c37d8" d="m313.12 119.97 8.85-5.11V91.83l-8.85 5.11v23.03z"/><path style="opacity:.30000000000000004" d="m313.12 119.97 8.85-5.11V91.83l-8.85 5.11v23.03z"/><path style="fill:#3c37d8" d="m321.97 91.83-3.05-1.76-8.85 5.11 3.05 1.76 8.85-5.11z"/><path style="opacity:.15" d="m321.97 91.83-3.05-1.76-8.85 5.11 3.05 1.76 8.85-5.11z"/><path d="m322 91.83-8.85 5-3.05-1.62 2.9 1.88s0 22.25.12 22.88c.14-.63.13-22.88.13-22.88Z" style="fill:#fff;opacity:.30000000000000004"/><path d="M225.1 40.27V28.94c0-.08 0-.29-.19-.29a.35.35 0 0 0-.2.07l-32.43 18.72a1.28 1.28 0 0 0-.57 1V79.5c0 .09 0 .3.19.3a.4.4 0 0 0 .21-.07L224.53 61a1.28 1.28 0 0 0 .57-1V40.27Z" style="fill:#fafafa"/><path d="M191.9 80.13c-.26 0-.52-.19-.52-.63V48.43a1.6 1.6 0 0 1 .74-1.28l32.42-18.72c.41-.23.89-.12.89.51V60a1.61 1.61 0 0 1-.73 1.28L192.27 80a.78.78 0 0 1-.37.13Zm32.88-51.07-32.33 18.66a1 1 0 0 0-.41.71v31l32.33-18.66a1 1 0 0 0 .41-.71Z" style="fill:#e0e0e0"/><path d="M197 72.31c-.1.06-.18 0-.18-.17v-22.7a.46.46 0 0 1 .18-.38c.11-.06.19 0 .19.17v22.7a.46.46 0 0 1-.19.38Z" style="fill:#455a64"/><path d="m220.66 58.65-25.82 14.91c-.1.06-.19 0-.19-.17a.46.46 0 0 1 .19-.38l25.82-14.91c.1-.06.18 0 .18.17a.46.46 0 0 1-.18.38Z" style="fill:#455a64"/><path style="fill:#3c37d8" d="m201.46 51.1-3.17 1.84v15.93l3.17-1.83V51.1z"/><path style="fill:#fff;opacity:.2" d="m201.46 51.1-3.17 1.84v15.93l3.17-1.83V51.1z"/><path style="fill:#3c37d8" d="m205.97 59.56-3.18 1.83v4.88l3.18-1.83v-4.88zM210.47 54.39l-3.17 1.83v7.45l3.17-1.83v-7.45z"/><path style="fill:#fff;opacity:.30000000000000004" d="m210.47 54.39-3.17 1.83v7.45l3.17-1.83v-7.45z"/><path style="fill:#3c37d8" d="m214.97 42.41-3.17 1.83v16.83l3.17-1.83V42.41zM219.48 49.39l-3.17 1.83v7.25l3.17-1.83v-7.25z"/><path style="fill:#fff;opacity:.4" d="m219.48 49.39-3.17 1.83v7.25l3.17-1.83v-7.25z"/><path d="M169.58 425.37v-3.58l1.48-.89c5-3 9.38-5.55 11.6-5.61a1.93 1.93 0 0 1 2.22 1.62 1.94 1.94 0 0 0 1 1.47c1.46.84 4.4.51 6.55-.74a6.53 6.53 0 0 0 .7-.46 6.86 6.86 0 0 0-1.95-.32c-1.31-.05-2.81-.4-2.82-1.22a.13.13 0 0 1 0-.06c.05-.63 0-2.84 0-3.53a.13.13 0 0 1 0-.06c.12-1.51 4.77-4.13 9.89-6.76l1.1.63c4.63 2.68 7.43 4.3 9.94 4.17a3.44 3.44 0 0 0 3.17-2.1 2.78 2.78 0 0 1 1.22-1.4 6.36 6.36 0 0 1 5.73.24 2.37 2.37 0 0 1 1.4 1.86v3.58a1.71 1.71 0 0 1-1 1.45 6.22 6.22 0 0 1-2.42.71 8.79 8.79 0 0 0-2 .48 52.77 52.77 0 0 0 5.42 3.41l.84.49 1 .56v3.58s-9 5.79-11.42 5.86a1.94 1.94 0 0 1-2.22-1.63 1.93 1.93 0 0 0-1-1.47c-1.45-.83-4.39-.5-6.55.74-.26.15-.49.31-.7.46a6.52 6.52 0 0 0 2 .32c1.32.06 2.82.41 2.83 1.23v3.65c-.13 1.43-5.89 4.53-11.52 7.43l-3-1.79c-3.33-2-5.52-3.34-7.64-3.22a3.44 3.44 0 0 0-3.17 2.1 2.71 2.71 0 0 1-1.22 1.39 6.36 6.36 0 0 1-5.73-.23 2.33 2.33 0 0 1-1.39-1.85v-3.59a1.68 1.68 0 0 1 1-1.45 6.22 6.22 0 0 1 2.42-.71 9.18 9.18 0 0 0 1.87-.41c-1.13-.79-2.73-1.68-4.59-2.72Z" style="fill:#3c37d8"/><path d="M169.58 425.37v-3.58l1.48-.89c5-3 9.38-5.55 11.6-5.61a1.93 1.93 0 0 1 2.22 1.62 1.94 1.94 0 0 0 1 1.47c1.46.84 4.4.51 6.55-.74a6.53 6.53 0 0 0 .7-.46 6.86 6.86 0 0 0-1.95-.32c-1.31-.05-2.81-.4-2.82-1.22a.13.13 0 0 1 0-.06c.05-.63 0-2.84 0-3.53a.13.13 0 0 1 0-.06c.12-1.51 4.77-4.13 9.89-6.76l1.1.63c4.63 2.68 7.43 4.3 9.94 4.17a3.44 3.44 0 0 0 3.17-2.1 2.78 2.78 0 0 1 1.22-1.4 6.36 6.36 0 0 1 5.73.24 2.37 2.37 0 0 1 1.4 1.86v3.58a1.71 1.71 0 0 1-1 1.45 6.22 6.22 0 0 1-2.42.71 8.79 8.79 0 0 0-2 .48 52.77 52.77 0 0 0 5.42 3.41l.84.49 1 .56v3.58s-9 5.79-11.42 5.86a1.94 1.94 0 0 1-2.22-1.63 1.93 1.93 0 0 0-1-1.47c-1.45-.83-4.39-.5-6.55.74-.26.15-.49.31-.7.46a6.52 6.52 0 0 0 2 .32c1.32.06 2.82.41 2.83 1.23v3.65c-.13 1.43-5.89 4.53-11.52 7.43l-3-1.79c-3.33-2-5.52-3.34-7.64-3.22a3.44 3.44 0 0 0-3.17 2.1 2.71 2.71 0 0 1-1.22 1.39 6.36 6.36 0 0 1-5.73-.23 2.33 2.33 0 0 1-1.39-1.85v-3.59a1.68 1.68 0 0 1 1-1.45 6.22 6.22 0 0 1 2.42-.71 9.18 9.18 0 0 0 1.87-.41c-1.13-.79-2.73-1.68-4.59-2.72Z" style="opacity:.2"/><path d="M173.21 434.15a6.42 6.42 0 0 0 5.73.23 2.69 2.69 0 0 0 1.22-1.4 3.46 3.46 0 0 1 3.17-2.1c2.12-.11 4.31 1.21 7.64 3.22.88.54 1.9 1.15 3 1.79 5.63-2.89 11.39-6 11.52-7.43v-.06c0-.82-1.51-1.17-2.83-1.23a5.33 5.33 0 0 1-2.53-.58c-1.46-.83-.88-2.53 1.28-3.78s5.1-1.58 6.55-.74a1.93 1.93 0 0 1 1 1.47 2 2 0 0 0 2.22 1.63c2.43-.08 6.4-2.61 11.42-5.86l-.08-.05-.89-.51-.84-.49c-4.26-2.46-7.24-4.27-7-5.65.17-1.05 2.06-1.64 3.63-1.83a6 6 0 0 0 2.42-.71 1.7 1.7 0 0 0 1-1.44 2.37 2.37 0 0 0-1.4-1.86 6.36 6.36 0 0 0-5.73-.24 2.78 2.78 0 0 0-1.22 1.4 3.44 3.44 0 0 1-3.17 2.1c-2.51.13-5.31-1.49-9.94-4.17l-1.1-.63c-5.12 2.63-9.77 5.25-9.89 6.76a.13.13 0 0 0 0 .06c0 .82 1.51 1.17 2.82 1.22a5.61 5.61 0 0 1 2.55.59c1.45.84.86 2.53-1.3 3.78s-5.09 1.58-6.55.74a1.94 1.94 0 0 1-1-1.47 1.93 1.93 0 0 0-2.22-1.62c-2.22.06-6.57 2.64-11.6 5.61l-1.48.89 2.93 1.63c3.8 2.11 6.56 3.64 6.35 4.88-.17 1.05-2.06 1.64-3.63 1.83a6.22 6.22 0 0 0-2.42.71 1.68 1.68 0 0 0-1 1.45 2.33 2.33 0 0 0 1.37 1.86Z" style="fill:#3c37d8"/><path d="M173.21 434.15a6.42 6.42 0 0 0 5.73.23 2.69 2.69 0 0 0 1.22-1.4 3.46 3.46 0 0 1 3.17-2.1c2.12-.11 4.31 1.21 7.64 3.22.88.54 1.9 1.15 3 1.79 5.63-2.89 11.39-6 11.52-7.43v-.06c0-.82-1.51-1.17-2.83-1.23a5.33 5.33 0 0 1-2.53-.58c-1.46-.83-.88-2.53 1.28-3.78s5.1-1.58 6.55-.74a1.93 1.93 0 0 1 1 1.47 2 2 0 0 0 2.22 1.63c2.43-.08 6.4-2.61 11.42-5.86l-.08-.05-.89-.51-.84-.49c-4.26-2.46-7.24-4.27-7-5.65.17-1.05 2.06-1.64 3.63-1.83a6 6 0 0 0 2.42-.71 1.7 1.7 0 0 0 1-1.44 2.37 2.37 0 0 0-1.4-1.86 6.36 6.36 0 0 0-5.73-.24 2.78 2.78 0 0 0-1.22 1.4 3.44 3.44 0 0 1-3.17 2.1c-2.51.13-5.31-1.49-9.94-4.17l-1.1-.63c-5.12 2.63-9.77 5.25-9.89 6.76a.13.13 0 0 0 0 .06c0 .82 1.51 1.17 2.82 1.22a5.61 5.61 0 0 1 2.55.59c1.45.84.86 2.53-1.3 3.78s-5.09 1.58-6.55.74a1.94 1.94 0 0 1-1-1.47 1.93 1.93 0 0 0-2.22-1.62c-2.22.06-6.57 2.64-11.6 5.61l-1.48.89 2.93 1.63c3.8 2.11 6.56 3.64 6.35 4.88-.17 1.05-2.06 1.64-3.63 1.83a6.22 6.22 0 0 0-2.42.71 1.68 1.68 0 0 0-1 1.45 2.33 2.33 0 0 0 1.37 1.86Z" style="fill:#fff;opacity:.5"/><path d="M283.57 436.23s-7.27-3.85-9.15-5.21a8.83 8.83 0 0 1 1.26-.14 5 5 0 0 0 2.26-.51 1.19 1.19 0 0 0 .69-1.05v-3.58c0-.73-.68-1.61-1.91-2.33-2-1.13-4.58-1.45-5.86-.71a1.69 1.69 0 0 0-.86 1.3c-.11.89-.87 1.91-2.69 1.87-2.68-.08-6.63-2.62-12.05-6.13l-.1.06c-1 .58-1.93 1.13-2.77 1.63s-1.41.85-2 1.21c-2.35 1.36-4 2.13-5.73 2a3.48 3.48 0 0 1-3.19-2.11 2.66 2.66 0 0 0-1.21-1.39 6.39 6.39 0 0 0-5.73.23 2.4 2.4 0 0 0-1.4 1.84v3.58a1.73 1.73 0 0 0 1 1.48 6.45 6.45 0 0 0 2.42.7 9.33 9.33 0 0 1 1.87.41c-1.14.79-2.74 1.68-4.6 2.71l-2.9 1.63v3.59s10 6.33 12.52 6.41a1.94 1.94 0 0 0 2.22-1.63 2 2 0 0 1 1-1.47c1.45-.83 4.39-.5 6.55.75a6.53 6.53 0 0 1 .7.46 7.24 7.24 0 0 1-2 .32c-1.32.05-2.83.4-2.83 1.23a.13.13 0 0 0 0 .06c.05.62 0 3.56 0 3.58.12 1.44 4.47 3.79 10.17 6.72 1-.58 2-1.12 3-1.64 3.47-1.93 6.24-3.46 6.23-4.57V444a.41.41 0 0 0 0-.11c-.14-.87-1.79-1.37-3.16-1.53a7.11 7.11 0 0 1-2.62-.76c.09-.06.16-.12.25-.17a7.14 7.14 0 0 1 6.45-.21 3.07 3.07 0 0 1 1.38 1.57 2.92 2.92 0 0 0 2.66 1.83c1.94.11 4-1.12 7.41-3.17l2.76-1.63Z" style="fill:#3c37d8"/><path d="M283.57 436.23s-7.27-3.85-9.15-5.21a8.83 8.83 0 0 1 1.26-.14 5 5 0 0 0 2.26-.51 1.19 1.19 0 0 0 .69-1.05v-3.58c0-.73-.68-1.61-1.91-2.33-2-1.13-4.58-1.45-5.86-.71a1.69 1.69 0 0 0-.86 1.3c-.11.89-.87 1.91-2.69 1.87-2.68-.08-6.63-2.62-12.05-6.13l-.1.06c-1 .58-1.93 1.13-2.77 1.63s-1.41.85-2 1.21c-2.35 1.36-4 2.13-5.73 2a3.48 3.48 0 0 1-3.19-2.11 2.66 2.66 0 0 0-1.21-1.39 6.39 6.39 0 0 0-5.73.23 2.4 2.4 0 0 0-1.4 1.84v3.58a1.73 1.73 0 0 0 1 1.48 6.45 6.45 0 0 0 2.42.7 9.33 9.33 0 0 1 1.87.41c-1.14.79-2.74 1.68-4.6 2.71l-2.9 1.63v3.59s10 6.33 12.52 6.41a1.94 1.94 0 0 0 2.22-1.63 2 2 0 0 1 1-1.47c1.45-.83 4.39-.5 6.55.75a6.53 6.53 0 0 1 .7.46 7.24 7.24 0 0 1-2 .32c-1.32.05-2.83.4-2.83 1.23a.13.13 0 0 0 0 .06c.05.62 0 3.56 0 3.58.12 1.44 4.47 3.79 10.17 6.72 1-.58 2-1.12 3-1.64 3.47-1.93 6.24-3.46 6.23-4.57V444a.41.41 0 0 0 0-.11c-.14-.87-1.79-1.37-3.16-1.53a7.11 7.11 0 0 1-2.62-.76c.09-.06.16-.12.25-.17a7.14 7.14 0 0 1 6.45-.21 3.07 3.07 0 0 1 1.38 1.57 2.92 2.92 0 0 0 2.66 1.83c1.94.11 4-1.12 7.41-3.17l2.76-1.63Z" style="opacity:.2"/><path d="M283.57 436.23c-1 .58-1.92 1.13-2.76 1.63-3.4 2-5.47 3.27-7.41 3.16a2.92 2.92 0 0 1-2.66-1.83 3.08 3.08 0 0 0-1.38-1.56 7.17 7.17 0 0 0-6.45.2c-1.87 1.08-2 2.74-.34 3.71a6.88 6.88 0 0 0 2.71.81c1.37.16 3 .66 3.16 1.53a.41.41 0 0 1 0 .11c0 1.1-2.76 2.63-6.23 4.56-1 .52-1.94 1.07-3 1.65-5.7-2.93-10-5.29-10.17-6.72a.13.13 0 0 1 0-.06c0-.83 1.51-1.18 2.83-1.23a5.55 5.55 0 0 0 2.54-.58c1.46-.84.87-2.54-1.29-3.79s-5.1-1.57-6.55-.74a1.91 1.91 0 0 0-1 1.47 1.93 1.93 0 0 1-2.22 1.62c-2.56-.07-7.66-3.26-12.52-6.41 1-.57 2-1.11 2.9-1.63 3.81-2.11 6.56-3.64 6.36-4.87-.18-1.05-2.07-1.65-3.63-1.84a6.26 6.26 0 0 1-2.42-.7 1.7 1.7 0 0 1-1-1.47 2.4 2.4 0 0 1 1.4-1.84 6.39 6.39 0 0 1 5.73-.23 2.66 2.66 0 0 1 1.21 1.39 3.48 3.48 0 0 0 3.19 2.11c1.71.09 3.38-.68 5.73-2 .63-.36 1.3-.76 2-1.21s1.76-1.05 2.77-1.63l.1-.06c5.42 3.51 9.37 6.05 12.05 6.13 1.82 0 2.58-1 2.69-1.87a1.69 1.69 0 0 1 .87-1.3c1.28-.74 3.9-.42 5.86.71 1.23.72 1.91 1.6 1.91 2.33a1.18 1.18 0 0 1-.69 1 4.74 4.74 0 0 1-2.26.51c-1.54.07-3.3.51-3.21 1.55.19 1.45 4.41 3.9 11.18 7.39Z" style="fill:#3c37d8"/><path d="M283.57 436.23c-1 .58-1.92 1.13-2.76 1.63-3.4 2-5.47 3.27-7.41 3.16a2.92 2.92 0 0 1-2.66-1.83 3.08 3.08 0 0 0-1.38-1.56 7.17 7.17 0 0 0-6.45.2c-1.87 1.08-2 2.74-.34 3.71a6.88 6.88 0 0 0 2.71.81c1.37.16 3 .66 3.16 1.53a.41.41 0 0 1 0 .11c0 1.1-2.76 2.63-6.23 4.56-1 .52-1.94 1.07-3 1.65-5.7-2.93-10-5.29-10.17-6.72a.13.13 0 0 1 0-.06c0-.83 1.51-1.18 2.83-1.23a5.55 5.55 0 0 0 2.54-.58c1.46-.84.87-2.54-1.29-3.79s-5.1-1.57-6.55-.74a1.91 1.91 0 0 0-1 1.47 1.93 1.93 0 0 1-2.22 1.62c-2.56-.07-7.66-3.26-12.52-6.41 1-.57 2-1.11 2.9-1.63 3.81-2.11 6.56-3.64 6.36-4.87-.18-1.05-2.07-1.65-3.63-1.84a6.26 6.26 0 0 1-2.42-.7 1.7 1.7 0 0 1-1-1.47 2.4 2.4 0 0 1 1.4-1.84 6.39 6.39 0 0 1 5.73-.23 2.66 2.66 0 0 1 1.21 1.39 3.48 3.48 0 0 0 3.19 2.11c1.71.09 3.38-.68 5.73-2 .63-.36 1.3-.76 2-1.21s1.76-1.05 2.77-1.63l.1-.06c5.42 3.51 9.37 6.05 12.05 6.13 1.82 0 2.58-1 2.69-1.87a1.69 1.69 0 0 1 .87-1.3c1.28-.74 3.9-.42 5.86.71 1.23.72 1.91 1.6 1.91 2.33a1.18 1.18 0 0 1-.69 1 4.74 4.74 0 0 1-2.26.51c-1.54.07-3.3.51-3.21 1.55.19 1.45 4.41 3.9 11.18 7.39Z" style="fill:#fff;opacity:.4"/><path d="m409.83 307.25 1.57-13.93-15.86-1.43s.67 10.74.57 15.66c0 2.32-1.68 6.69-1.68 6.69s6.63 3.44 10.08 2 5.72-6.84 5.64-7.83-.32-1.16-.32-1.16Z" style="fill:#ffbda7"/><path d="M376 329.16c-.22 0-.38 2 .83 3a15.59 15.59 0 0 0 11.17 2.57c5.31-.77 8.16-2.44 10.26-4.23s5-4.32 7.44-4.89a17.25 17.25 0 0 0 5.92-3.05c.71-.7.55-3.72.55-3.72Z" style="fill:#263238"/><path d="M409.83 307.22a.86.86 0 0 1 .82.7c.18.83.4 3.25.78 4.62a23.73 23.73 0 0 1 .66 7.34c-.26 1.56-4.48 3.49-6.79 4.41a29.71 29.71 0 0 0-7.46 4.82c-2.47 2.08-7.69 4.28-11.16 4.32-4.11 0-8.75-1.19-9.85-3.05-1.35-2.29-2.35-5 3.68-7.85 1.14-.55 5.15-3 6.51-3.86 3.69-2.37 6.27-4.54 7.92-8.67a2.25 2.25 0 0 1 .85-1.26 1.9 1.9 0 0 1 1.18-.13 39.78 39.78 0 0 1 6 1c.83.37 2 .8 2 1.83a3.44 3.44 0 0 1-.21 1.05c-.07.21-.13.49.06.61s.41 0 .57-.16a16.87 16.87 0 0 0 1.61-2 16.3 16.3 0 0 1 1.53-1.78 12.22 12.22 0 0 0 1-.68c.39-.32.29-.77.3-1.26Z" style="fill:#455a64"/><path d="M397.84 329.11a39.15 39.15 0 0 1 3.27-2.49s-7.08 4.41-10 2.52c-1.88-1.23-1-2.76-1-3.25s-6.61-3.81-8.42-4c-.5.28-.91.53-1.18.64-4.72 2-5.31 4.37-4.46 7.39 1.1 1.86 5.25 3.72 10.56 3.63 3.47-.06 8.76-2.36 11.23-4.44Z" style="fill:#37474f"/><path d="M390.59 324.45c-3.76 1.56-2.13 2.23-1.07 2.36s7.36-3.65 11.19-6.74c4-3.23 7.08-7.52 8.56-8.71.55-.44 1.15-1 1.68-1.49-.12-.81-.21-1.56-.3-1.95a.86.86 0 0 0-.82-.7c0 .49.09.94-.27 1.31a12.22 12.22 0 0 1-1 .68A16.3 16.3 0 0 0 407 311a16.87 16.87 0 0 1-1.61 2c-3.23 4.14-11.05 9.9-14.8 11.45Z" style="fill:#37474f"/><path d="M389.78 326.25a.4.4 0 0 0 .23-.08.37.37 0 0 0 .05-.52c-1.1-1.27-6.22-4.24-9-3.89a.36.36 0 0 0-.32.41.37.37 0 0 0 .42.32c2.59-.32 7.46 2.63 8.32 3.63a.36.36 0 0 0 .3.13ZM393 324.2a.44.44 0 0 0 .24-.09.38.38 0 0 0 0-.52c-1.09-1.27-6.21-4.24-9-3.89a.37.37 0 1 0 .09.73c2.6-.32 7.46 2.63 8.33 3.64a.39.39 0 0 0 .34.13ZM396.31 322.24a.38.38 0 0 0 .23-.08.37.37 0 0 0 0-.52c-1.1-1.27-6.21-4.24-9-3.89a.36.36 0 0 0-.33.41.38.38 0 0 0 .42.32c2.6-.32 7.46 2.63 8.33 3.63a.33.33 0 0 0 .35.13ZM399.33 320a.33.33 0 0 0 .23-.09.37.37 0 0 0 .05-.52c-1.09-1.27-6.23-4.24-9-3.89a.37.37 0 1 0 .09.73c2.59-.32 7.46 2.63 8.33 3.64a.39.39 0 0 0 .3.13ZM402.29 317.81a.4.4 0 0 0 .23-.08.37.37 0 0 0 .05-.52c-1.5-1.8-6.85-4.27-9.63-3.92a.37.37 0 1 0 .09.73c2.5-.31 7.63 2.06 9 3.66a.39.39 0 0 0 .26.13Z" style="fill:#263238"/><path d="m436.12 313.79-3.78-16.73 16.5-2.57.26 16.51s1.26 4.44.34 6-10.85 3.14-11.75 2.12-1.57-5.33-1.57-5.33Z" style="fill:#ffbda7"/><path d="M437.76 340.14c.44 3.75 1.22 6.18 2.85 8.21s4.51 2.38 7.37 1.37 6.49-3.19 7.16-6.55a18.54 18.54 0 0 0-.44-9Z" style="fill:#263238"/><path d="M449.1 311c1.2-.06.88 2.89 1.44 7.95.61 5.47 3.08 9.76 4 14.14 1 5 .81 7.33-1.06 10.67s-8.91 7.24-12.65 3.24c-3-3.25-3.36-7.23-3.35-12.36a112.66 112.66 0 0 0-.37-13c-.42-3.8-2-7.3-1-7.85.1.55 1.12 4.39 1.79 4.33a6.92 6.92 0 0 0-.06-1.44 1.67 1.67 0 0 1 .27-1.28 5.44 5.44 0 0 1 1.92-1c1.16-.35 3.24-.79 4.43-1 .59-.12 1.19-.22 1.78-.29a5.52 5.52 0 0 1 1.52 0 .9.9 0 0 1 .67.44 1.39 1.39 0 0 1 .09.58 3.5 3.5 0 0 0 .21 1c.05.15.17.32.34.26a.3.3 0 0 0 .18-.33c-.01-.59-.1-3.74-.15-4.06Z" style="fill:#455a64"/><path d="M454.15 331.67c.16.73 1.1 5.52-.36 6.58s-2.65-2.58-2.65-2.58-3.86-.56-9.29 2.26c.32.76-.4 3.47-2 3.11s-2.4-5.88-2.42-6c0 4.92.4 8.77 3.35 11.92 3.74 4 10.74.09 12.61-3.24s2.06-5.65 1.06-10.67c-.05-.46-.17-.93-.3-1.38Z" style="fill:#37474f"/><path d="M450.72 336.05c.12 1.85 2.14 1 2.1-1.65s-1.41-9-1.93-13.24c-.34-6.16-.59-10.22-1.79-10.16v.19c0 .07.12 3.5.14 3.9.22 3.76.26 11.07.8 14.46a52.89 52.89 0 0 1 .68 6.5ZM442.49 337.8a51.43 51.43 0 0 1-1.45-6.33c-.58-3.36-2.59-10.09-3.59-13.71-.32-.59-1.33-4-1.33-4-.83.23 0 3.45.38 5s.86 3.13 1.35 5.29c1.24 4.27 1.35 10.67 2.15 13.13s3 2.39 2.49.62Z" style="fill:#37474f"/><path d="m441.74 338.1.16-.07a16.41 16.41 0 0 1 9.14-2 .5.5 0 0 0 .53-.35.37.37 0 0 0-.34-.44 17.14 17.14 0 0 0-9.77 2.11.38.38 0 0 0-.16.55.43.43 0 0 0 .44.2ZM440.55 334.21h.14a20.29 20.29 0 0 1 10.24-2.2.49.49 0 0 0 .52-.36.37.37 0 0 0-.36-.43 21 21 0 0 0-10.81 2.33.39.39 0 0 0-.18.55.42.42 0 0 0 .45.11ZM450.46 328.19a.47.47 0 0 0 .36-.31.36.36 0 0 0-.3-.46c-5.43-.95-10.59 2.1-10.81 2.23a.39.39 0 0 0-.16.55.47.47 0 0 0 .61.1s5.06-3 10.11-2.1a.61.61 0 0 0 .19-.01ZM450 324.64a.46.46 0 0 0 .36-.3.35.35 0 0 0-.29-.47 15.81 15.81 0 0 0-11 2.23.38.38 0 0 0-.12.56.47.47 0 0 0 .61.06 15 15 0 0 1 10.27-2.08.41.41 0 0 0 .17 0ZM449.41 320.66a.48.48 0 0 0 .36-.3.35.35 0 0 0-.28-.47c-5.6-1.16-10.88 2.2-11.1 2.35a.38.38 0 0 0-.14.55.46.46 0 0 0 .61.07c.06 0 5.15-3.27 10.35-2.2Z" style="fill:#263238"/><path d="M443.55 184.83c3.65 19.95 2.49 73.95 2.49 73.95.2 2.25 1.49 5.41 2.53 16.52 1.1 11.73 1.06 28.47 1.06 28.47s-9.91 4.24-16.07 2.05c0 0-6.62-25.12-9.83-38.93-3-13.07-5.26-33.51-5.26-33.51l-3.6 19.69s.45 8.46.24 14.38c-.25 6.89-4 33.26-4 33.26s-9.21 5.51-15.62.25c0 0-4.32-38.77-4.53-47-.41-16.25.33-48.13 2.25-69.08Z" style="fill:#37474f"/><path d="m418.47 233.38-3.24-21.11s-7.46-1.13-11.3-4.83c0 0 2.49 4.9 9.53 6.78l3.21 19.22-1.8 19.63Z" style="fill:#263238"/><path d="M354 149c1.67 1.73 3.3 4.3 6.13 7.36s7 8.32 11.31 11.72 6.4 4.82 13-.37a161.39 161.39 0 0 0 17.08-16.26l6.23-21.17c-6.25.12-9.14 2-13.85 6.74l-16.79 17s-12.55-9.93-14.15-11.45a7.32 7.32 0 0 1-2.24-4.29 34.82 34.82 0 0 0-.85-4.07c-.36-1.42-.5-2-.9-3.74s-.49-4.68-.6-5.34c-.29-.76-1.36-.85-2.5.75a6.91 6.91 0 0 0-.89 3.36c-.1 1 0 2.35-.3 2.47s-1.7-.84-3.13-1.41-2.64-1.38-4.35-1.13a2 2 0 0 0-1.71 2.37 2.51 2.51 0 0 0 .73 1.12 2.1 2.1 0 0 0-1.64.26 2.28 2.28 0 0 0-.45 2.86 1.29 1.29 0 0 0-1.42 1c-.32.94-.35 1.92.56 2.44 0 0-.82.07-.94.53a2.31 2.31 0 0 0 .44 2.24 7.63 7.63 0 0 0 2.68 1.06s.1.37.95 1a23.7 23.7 0 0 0 2.85 2.11c1.11.57 3.38 1.44 4.75 2.84Z" style="fill:#ffbda7"/><path d="M348.38 141.09a.87.87 0 0 1-.3.68 6.13 6.13 0 0 1-.8.59l-.41.26a2.07 2.07 0 0 1-.44.15l-1 .21a4.1 4.1 0 0 0 1.05.07 1.3 1.3 0 0 0 .54-.13 4.45 4.45 0 0 0 .48-.26 5.21 5.21 0 0 0 .8-.7 1.14 1.14 0 0 0 .22-.52.78.78 0 0 0-.06-.35 5.43 5.43 0 0 0 .82-.18 2.59 2.59 0 0 0 1.19-.6 1.81 1.81 0 0 0 .31-.6.78.78 0 0 0 0-.22l.37-.39a5.74 5.74 0 0 0 1 2.52 6.76 6.76 0 0 0 2.5 2.21 5.95 5.95 0 0 1-1.75-7.71h.1a1 1 0 0 0 .37-.34 1.26 1.26 0 0 0 .16-.9 2.75 2.75 0 0 0-.29-.82 4.9 4.9 0 0 0-2.55-2 2.46 2.46 0 0 0-.32-.65 3.35 3.35 0 0 0-.49-.57 3.75 3.75 0 0 1 .42.62 2 2 0 0 1 .25.67 4.93 4.93 0 0 1 2.35 2 1.38 1.38 0 0 1 .13 1.36c-.16.22-.26.27-.51.2s-.5-.17-.76-.24c-.54-.16-1.07-.25-1.58-.39a6.64 6.64 0 0 1-1.46-.61c-.46-.27-.9-.59-1.34-.9a11.2 11.2 0 0 1-1.28-1 13.19 13.19 0 0 0 2.48 2.11 5.47 5.47 0 0 0 1.51.7c.53.16 1.06.25 1.57.41l.3.11a1 1 0 0 1 .26.67 1.11 1.11 0 0 1-.71 1 7 7 0 0 1-1.26.5 4 4 0 0 1-1.32.11 9.62 9.62 0 0 1-2.45-1.17c-.82-.45-1.63-.89-2.48-1.3.77.54 1.55 1.05 2.33 1.55.39.25.79.49 1.2.73a4 4 0 0 0 1.35.55 3.89 3.89 0 0 0 .9-.05 1.35 1.35 0 0 1 .65.57.64.64 0 0 1 0 .52 1.86 1.86 0 0 1-.31.49 2.76 2.76 0 0 1-1.07.47 2.68 2.68 0 0 1-1.17.13 5.06 5.06 0 0 1-1.1-.51 7.94 7.94 0 0 0-1.2-.45c-.82-.24-1.64-.45-2.47-.61.79.31 1.59.59 2.38.88.39.15.78.29 1.15.47a4.41 4.41 0 0 0 1.17.58 2.17 2.17 0 0 0 .57.08Zm3.85-5.05Z" style="fill:#f0997a"/><path d="M407.13 129.93c-5.43.26-7.6 1.43-13 6.27s-17 17.42-17 17.42l-11.25-8.54s.79 1.75-1.9 5.49a7.64 7.64 0 0 1-6.42 3.42s7 8.12 10.2 11.22 7 6.17 9 6.36 3.58-.45 8-3.66 22.35-19.44 22.35-19.44Z" style="fill:#e0e0e0"/><path d="M441.89 148.86c3.14-1.55 6.1-1.41 7.11-5.36.79-3.07-1.07-6.27-1.38-9.17-.34-3.25 1.4-7-.6-9.56-1.35-1.76-3.94-2.17-5.36-3.88-1.94-2.34-.9-6-2.22-8.74a5.6 5.6 0 0 0-6.13-2.9c-2.76.66-5.2.53-7.79 1.7s-4.86 3.46-5.21 6.27c-.39 3.13 1.59 6.2 1.18 9.33-.24 1.9-1.34 3.57-2.12 5.32s-1.2 3.91-.15 5.52 3.17 2.1 4.58 3.4c2.26 2.11 2.16 5.72 3.71 8.39a7.7 7.7 0 0 0 10 2.73c1.58-.86 2.78-2.27 4.38-3.05Z" style="fill:#263238"/><path d="m409.29 129.88 21.83.93 6.79 1.63c2 .89 4.68 6.19 3.79 18.45-.36 4.93-1.89 13.93-1.93 17.62 0 5.38 4.51 12.77 5 23.25-16.13 9.91-46.74 6.9-52.52 1.59.75-10.36 1.15-11.4 2.48-20.12a129.63 129.63 0 0 0 1.27-13.1s-3.09-5.2-2.84-8.7c.37-5.15 1.44-7 6.15-12.72 4.48-5.47 7.79-8.78 7.79-8.78Z" style="fill:#f0f0f0"/><path d="M430.32 94.33c5.54.61 6.88 9.67 5.57 14.78-2.54 9.87-9.2 11-9.46 15.23l-10-5.85-7.71-4.49a27.32 27.32 0 0 1-4.74-3.37c-1.41-1.27-3.05-1.86-3.92-3.69a8.42 8.42 0 0 1-.42-5.45 2.76 2.76 0 0 1-2-1.63 4.64 4.64 0 0 1-.26-2.61c.44-2.7 2.4-4.91 4.55-6.58.31-.24.62-.48.94-.7a21.55 21.55 0 0 1 15.82-3.79c4.85.82 10.13 2.97 11.63 8.15Z" style="fill:#263238"/><path d="m426.2 128.29.55-9.15a4 4 0 0 0 4.91-1c2.73-2.83 3-5.92 1.51-7.9-1.64-2.19-5.29-1.36-6.86 1.31-2.38.57-3.34-2.83-1.54-6.31 0 0-11.51.78-16.85-8a2.89 2.89 0 0 0-4.65.72c-.57 1.3-1.31 3.47-.77 7.87.19 1.63-.59 3.58-.53 5.78.24 8.7 2.22 11.5 4.6 13a13.33 13.33 0 0 0 6.5 1.47l-.19 2.34c-.05 1.27-.35 1.31-1.45 1.37l-1.65.1 3.41 10.93c3.67-4.71 10.08-6 17.58-9.54l-1.83-.27c-2.02-.29-2.57-1.01-2.74-2.72Z" style="fill:#ffbda7"/><path d="m415.72 116-4.72 1.5a2.44 2.44 0 0 0 3.08 1.69 2.6 2.6 0 0 0 1.64-3.19Z" style="fill:#b16668"/><path d="M415.42 117.07a2.71 2.71 0 0 0-2.72 2.14 2.37 2.37 0 0 0 1.37 0 2.57 2.57 0 0 0 1.72-2.07 2.52 2.52 0 0 0-.37-.07Z" style="fill:#f28f8f"/><path d="m404.09 104.14 3.13-1.4a1.65 1.65 0 0 0-2.21-.91 1.81 1.81 0 0 0-.92 2.31ZM407.54 106.79a1.46 1.46 0 0 1-1.31 1.56 1.38 1.38 0 0 1-1.54-1.25 1.49 1.49 0 0 1 1.31-1.57 1.38 1.38 0 0 1 1.54 1.26ZM419.06 105.4l-3.06-1.66a1.68 1.68 0 0 1 2.31-.74 1.83 1.83 0 0 1 .75 2.4ZM418.35 107.1a1.47 1.47 0 0 1-1.31 1.56 1.38 1.38 0 0 1-1.53-1.26 1.46 1.46 0 0 1 1.31-1.56 1.37 1.37 0 0 1 1.53 1.26Z" style="fill:#263238"/><path style="fill:#f0997a" d="m412.91 104.21-1.01 9.77-4.77-2.52 5.78-7.25zM413.07 126.09c6.3.1 10.29-2.2 12-6a9.41 9.41 0 0 1-3.1 5.48c-2.87 2.16-9.06 2.24-9.06 2.24Z"/><path d="M431.12 130.81a17.18 17.18 0 0 1-2-1.21c-1.22-.83-1.59-1.79-2.89-1.79-.74 3.41-5 6.72-8.31 8.07s-4.73 5-4.73 5 3.83-3.55 6.36-2.47 7.38 3.91 7.38 3.91a32.09 32.09 0 0 0 3.42-6.65 13.76 13.76 0 0 0 .77-4.86Zm-19.48 3.88c-.3-1.07.66-5 .66-5s.53 0 .58-1.06V128a4.54 4.54 0 0 0-.92.59 14.32 14.32 0 0 1-2.69 1.28s-4.31 4.19-5.58 8.48c2.38-1.72 4.66-2.06 6.57-.87a6.34 6.34 0 0 1 2.91 3.34c.19-2.03-1.23-5.06-1.53-6.13Z" style="fill:#e0e0e0"/><path style="fill:#3c37d8" d="m369.31 159.74 37.32 5.12 16.14 43.58-35.6-5.8-17.86-42.9z"/><path d="M402.39 191.16a8.66 8.66 0 0 0 6.32 6 34.52 34.52 0 0 0 10.36.21l-1.85-5ZM381.08 165l-.47-1.34c-.26-.75 1.86-1 4.73-.65l5.5.73c2.87.38 5.41 1.29 5.66 2l.47 1.34Z" style="opacity:.15"/><path d="M377.94 160.05c-.16-.46.68-.69 1.89-.51l2.18.32s-1-2.9 3.81-2.43 6.25 3.74 6.25 3.74l2.33.36c1.29.2 2.49.74 2.7 1.19l.37.83-19.23-2.64Z" style="fill:#3c37d8"/><path d="M377.94 160.05c-.16-.46.68-.69 1.89-.51l2.18.32s-1-2.9 3.81-2.43 6.25 3.74 6.25 3.74l2.33.36c1.29.2 2.49.74 2.7 1.19l.37.83-19.23-2.64Z" style="opacity:.30000000000000004"/><path d="M396.3 165.88c-.22-.61-2-1.34-4.26-1.79 0-.08-.05-.16-.07-.22-.21-.65 0-1.08 1.38-.89v-.54l-13.32-1.72.62.51c1.75.2 2.49.34 2.89 1.49l.08.26c-2.08-.12-3.47.18-3.26.78l.47 1.35 15.89 2.12Z" style="fill:#3c37d8"/><path d="M396.3 165.88c-.22-.61-2-1.34-4.26-1.79 0-.08-.05-.16-.07-.22-.21-.65 0-1.08 1.38-.89v-.54l-13.32-1.72.62.51c1.75.2 2.49.34 2.89 1.49l.08.26c-2.08-.12-3.47.18-3.26.78l.47 1.35 15.89 2.12Z" style="opacity:.4"/><path d="M462.7 175.88a52.67 52.67 0 0 0-2.5-10.13l-15.1 6.65s-3.21 1.68-10.56 5.19c-4 1.91-7.56 3.33-11 2.62-1-.21-4.54-.7-5.59-.79s-2.28 0-3.42 0c-.72 0-2.53-.15-2.53-.15l1.42 3.83a5.28 5.28 0 0 1 .6.39c.45.29.42.82-.24 1.09a15.1 15.1 0 0 1-6 1 34.05 34.05 0 0 1-6-.75 4.16 4.16 0 0 0-1.05-.1 1.2 1.2 0 0 0-.91.48 1.26 1.26 0 0 0 .06 1.32 4.18 4.18 0 0 0 1 1 2.85 2.85 0 0 1 .85 1.1c.22.64 0 1.4.3 2s1.28.9 1.9 1.39a9 9 0 0 1 1.28 1.65 5.94 5.94 0 0 0 2.66 1.82c2.89 1.07 5.8.77 8.79.38 6.24-.81 10.95-3.21 13.94-4.13s6.8-1.6 15.74-4.07a98.21 98.21 0 0 0 11.93-3.79c3.13-1.22 5.06-2.97 4.43-8Z" style="fill:#ffbda7"/><path d="M462.08 170.75c-1.77-5.74-4.18-13.07-6.87-20.2a91.65 91.65 0 0 0-4.32-10.55c-2.32-4.81-7.49-5.94-13-7.59a26.13 26.13 0 0 0-1.62 20c1.91 6.05 8.32 19.65 8.32 19.65l-12.07 6.25a15.61 15.61 0 0 1 3.89 5.1c1.65 3.36-.39 7.39-.39 7.39s12.15-3.41 16.75-4.5 8.83-3.58 10-5.42 1.09-4.39-.69-10.13Z" style="fill:#e0e0e0"/><path d="m312.81 382.61 6.19-12.14 12.41 7.26-15.3 18.06s-7.58-.7-8.8-4.66 3.41-7.2 5.5-8.52Z" style="fill:#ffa8a7"/><path d="M304.07 387.38a6.56 6.56 0 0 0-1.72 1.88c-.5.74-.34 4.34-.82 6s-.85 2.11-1.64 4.2c-.89 2.32-2.52 4.44-.68 10.39s4.81 8.8 7.31 10.25a6.48 6.48 0 0 0 3 .73s3.27-1.23 2.76-3.17-8.21-30.28-8.21-30.28Z" style="fill:#263238"/><path d="M318.42 393.92a7.2 7.2 0 0 1-1.29 2.06 16.06 16.06 0 0 0-2.12 6c-1.93 9.42 1.82 14.21-3.26 17.75-1.47.92-4.52.67-9.15-5.27-2.37-3-3.72-9.28-2.8-12.1s2.19-4.67 2.79-6.84.28-6.23 1.48-8.1a9 9 0 0 1 2.94-2.53c.9-.54 2.87-1.26 3.79-1.79s1.42-1.11 2-.45l-1.06 1.31c-1.65 2.29-1.19 2.63-1.15 3.85a19.33 19.33 0 0 1-.61 3.88c1.17-1.48 1.65-2.78 2.94-2.55s1.44.16 3.28 1.89 2.3 2.35 2.22 2.89Z" style="fill:#455a64"/><path d="M302.6 414.42c-2.37-3-3.72-9.28-2.8-12.1a27 27 0 0 1 1.09-2.74c0 .19-.1.38-.12.55-.06.36-.11.73-.14 1.1a8.43 8.43 0 0 0 .47 4.28c.53 1.17 1.76 4.12 3.35 4.18.9 0 1.65-.84 2-1.84.15-.43.39-1.57.39-1.57A13.84 13.84 0 0 1 311 408c2.3 1.53 2.22 1.86 2.22 1.86a6.12 6.12 0 0 0-.08 2 5 5 0 0 0 .86 2 3.15 3.15 0 0 0 .58.47 6.12 6.12 0 0 1-2.79 5.37c-1.51.91-4.56.66-9.19-5.28Z" style="fill:#37474f"/><path d="M315 401.94a31.78 31.78 0 0 0-.59 7.53c-.87 2.41-1.63 2.34-1.73 1.09s1.56-6.44 2.8-10.73c-.18.71-.33 1.43-.48 2.11ZM309.27 386.82a5.27 5.27 0 0 1 .92-3.45c.23-.11.44-.21.61-.31 1-.56 1.42-1.11 2-.45l-1.06 1.31c-1.65 2.29-1.19 2.63-1.15 3.85a19.33 19.33 0 0 1-.61 3.88c-1 4.09-1.84 5.46-2.29 9.33s.32 6.46-.23 6.68-1.65-.22-1.85-3.32 1.17-8.31 2.13-10.77 1.73-5.1 1.53-6.75Z" style="fill:#37474f"/><path d="M306.56 406.55a.43.43 0 0 0 .2.11 9.26 9.26 0 0 1 6.18 3.62.39.39 0 0 0 .59-.5 10.05 10.05 0 0 0-6.62-3.88.38.38 0 0 0-.45.3.4.4 0 0 0 .1.35ZM307.05 403.33a.35.35 0 0 0 .19.1 10.34 10.34 0 0 1 6.51 4 .39.39 0 0 0 .56 0 .4.4 0 0 0 .05-.56 11.16 11.16 0 0 0-6.94-4.21.4.4 0 0 0-.47.3.41.41 0 0 0 .1.37ZM307 399.78a.52.52 0 0 0 .22.12 11.7 11.7 0 0 1 7.27 4.44.45.45 0 0 0 .62 0 .43.43 0 0 0 0-.61 12.63 12.63 0 0 0-7.74-4.73.44.44 0 0 0-.41.74ZM307.5 396.74a.37.37 0 0 0 .21.12 11.42 11.42 0 0 1 7.11 4.34.43.43 0 0 0 .65-.56 12.29 12.29 0 0 0-7.57-4.64.42.42 0 0 0-.51.32.4.4 0 0 0 .11.42ZM308.61 393.79a.4.4 0 0 0 .21.12 11.45 11.45 0 0 1 7.11 4.33.44.44 0 0 0 .61.05.42.42 0 0 0 0-.6 12.32 12.32 0 0 0-7.57-4.62.43.43 0 0 0-.51.32.41.41 0 0 0 .15.4Z" style="fill:#ebebeb"/><path style="fill:#ffa8a7" d="m316.16 383.59 8.03 6.56 4.55 2.86-5.19 9.8-14.61-6.99 7.22-12.23z"/><path d="M297 340.29s32-5.41 44.54-5.29c12.77.08 14 9.67 10.76 15.54-6.12 11.24-27.39 35.08-27.39 35.08s-7.14-3.27-9.34-9.45l4.86-11.17-15.27 4.89-7.8-5.23-.63-4Z" style="fill:#3c37d8"/><path d="M297 340.29s32-5.41 44.54-5.29c12.77.08 14 9.67 10.76 15.54-6.12 11.24-27.39 35.08-27.39 35.08s-7.14-3.27-9.34-9.45l4.86-11.17-15.27 4.89-7.8-5.23-.63-4Z" style="opacity:.4"/><path d="m297 340.29-47.79 7.86s-.5 12.12 4.27 23a24.74 24.74 0 0 0 18.94 14.46 142.24 142.24 0 0 0 15.31 1.25 38.31 38.31 0 0 0 8 4.7c4 1.61 21.66 9 21.66 9s4.95-4.19 4.46-12.93l-16.65-17.7c-3.77-4.59-5.09-6.08-7.18-7.11.98-14.63.03-16.37-1.02-22.53Z" style="fill:#3c37d8"/><path d="m297 340.29-47.79 7.86s-.5 12.12 4.27 23a24.74 24.74 0 0 0 18.94 14.46 142.24 142.24 0 0 0 15.31 1.25 38.31 38.31 0 0 0 8 4.7c4 1.61 21.66 9 21.66 9s4.95-4.19 4.46-12.93l-16.65-17.7c-3.77-4.59-5.09-6.08-7.18-7.11.98-14.63.03-16.37-1.02-22.53Z" style="opacity:.30000000000000004"/><g style="opacity:.30000000000000004"><path d="M323 355.53a106.7 106.7 0 0 0-6.44 10.72l3.9-1.25c4.39-10.47 5.29-13.52 12.32-18.43-.03 0-5.07 1.9-9.78 8.96ZM284 381s2.66 3.86 11.29 7.52c4.85 2 19.86 7.93 24.42 9a12 12 0 0 1-2.32 3s-17.63-7.38-21.66-9a25 25 0 0 1-2.57-1.2l-1.07-.6c-.9-.52-1.73-1.05-2.41-1.51s-1.22-.85-1.56-1.1l-.34-.26h-.05C283.9 383.53 284 381 284 381ZM302.64 366.92c1.71 2 2.52 3 2.52 3l2.44-.8s-4.33-4.72-7.13-7.19a8.52 8.52 0 0 0-1.6-1.26c1.41-3.7 1.36-9.78 1.36-9.78a19.58 19.58 0 0 1-3.69 8.89 16.06 16.06 0 0 0-7-.08c-4.89.81-19.09 3.23-19.09 3.23s13.61-1.23 20.69-1.5 9.8 3.49 11.5 5.49Z"/></g><path d="M347.16 398.12c3.44 1.35 5.56 2.72 7.15 4.79s2.07 4.18.56 6.7-4.28 5.47-7.57 5.27a17.8 17.8 0 0 1-8.38-2.67Z" style="fill:#263238"/><path d="M319.67 401c0 1 4.3 3.08 8.81 5.23 4.84 2.31 6 3.81 10 5.76 4.51 2.22 6.23 2.34 9.73 1.37s7.82-6 4.81-10.59c-2.45-3.76-5.63-4.79-10.45-6.06a89.59 89.59 0 0 1-11.28-3.65c-3.49-1.35-6.36-3.78-7.07-2.94.49.25 4.14 2.49 3.45 3.11-.17.31-.69.21-1.59-.16a1.52 1.52 0 0 0-1.25-.06 2.39 2.39 0 0 0-.9 1.09 25.53 25.53 0 0 0-1.09 2.76c-.27.63-.16.27-.41.91a7 7 0 0 0-.75 2.47c0 .39.34.52.64.72a11.12 11.12 0 0 1 1 .65c.11.09.32.38.26.53s-.74.14-1 0-.7-.22-1-.34-1.11-.4-1.91-.8Z" style="fill:#455a64"/><path d="M336.91 411.27c.65.33 4.74 2.23 6 1.09s-1.89-3.21-1.89-3.21-.5-3.09 3.22-7.63c.65.5 3.34.47 3.31-1.11s-4.55-3.53-4.62-3.56c4.62 1.24 7.66 2.3 10 5.95 3 4.61-1.31 9.62-4.81 10.59s-5.22.85-9.73-1.37c-.39-.23-1.08-.52-1.48-.75Z" style="fill:#37474f"/><path d="M341.49 408.84c1.71.57.53 2.13-2 1.62-3.75-.75-6.86-2.88-11-4.2-4.51-2.15-9.11-4.16-8.81-5.3.81.31 2.53 1 2.53 1l1.21.47c3.43 1.47 7.21 3.85 10.91 4.85 3.25.91 5.45.99 7.16 1.56ZM344 402.1c-1.57-.9-1.84-1.67-4.91-3.08s-8.24-4.42-11.45-6.29a39.18 39.18 0 0 1-3.47-2.58c.53-.6 2.48 0 4.43 1.19s3.15 2 5.09 3c3.76 2.26 8 3.78 10.2 5.17s1.7 3.49.11 2.59Z" style="fill:#37474f"/><path d="M344.26 401.69a.55.55 0 0 1-.09.14 13.64 13.64 0 0 0-2.93 7.56.45.45 0 0 1-.43.43.38.38 0 0 1-.34-.44 14.35 14.35 0 0 1 3.18-8.14.35.35 0 0 1 .55 0 .44.44 0 0 1 .06.45ZM341.23 399.47a.57.57 0 0 1-.08.13 18.61 18.61 0 0 0-3.63 8.93.44.44 0 0 1-.44.41.38.38 0 0 1-.33-.45 19.28 19.28 0 0 1 3.86-9.46.37.37 0 0 1 .55 0 .44.44 0 0 1 .07.44ZM334.55 408.21a.44.44 0 0 1-.37.28.37.37 0 0 1-.37-.41c.18-5.48 3.71-10.62 3.87-10.8a.36.36 0 0 1 .55 0 .47.47 0 0 1 0 .6s-3.45 5.07-3.61 10.16a.8.8 0 0 1-.07.17ZM331.74 406.42a.42.42 0 0 1-.35.27.37.37 0 0 1-.39-.39 16.16 16.16 0 0 1 4.09-10.25.36.36 0 0 1 .54 0 .46.46 0 0 1-.06.61 15.47 15.47 0 0 0-3.79 9.56.37.37 0 0 1-.04.2Z" style="fill:#f0f0f0"/><path d="M328.11 404.89a.48.48 0 0 1-.35.27.37.37 0 0 1-.39-.39c0-5.7 4-10.11 4.21-10.29a.36.36 0 0 1 .55 0 .46.46 0 0 1-.06.6c0 .05-3.9 4.31-3.92 9.6a.65.65 0 0 1-.04.21Z" style="fill:#ebebeb"/><g style="opacity:.99"><path d="M350.21 286.84a4.39 4.39 0 0 0 .58-2.65c-.1-.6-1.37-1.07-1.37-1.07s.3-.78.39-1.05a6 6 0 0 0 .24-1.18.57.57 0 0 0-.31-.53c-.08 0-.34-.13-.43-.15-1.45-.33-2.47.79-3.27 1.82-2.09 2.69-3 5.2-5.35 7.66a9.19 9.19 0 0 1-3.2 2.36c-1 0-.13-3.68-1.24-6-.54-1.16-2.34-1.89-2.45-.12-.24 3.7-1.41 5.34-1.87 7.65s.14 4.07-3 6.93c-3 2.71-15.25 9.22-16.67 10 0 0-9.59-10.19-14.2-15-7.37-7.75-11.28-8.2-16.46-7.45-2.89 7 6 20.4 6 20.4s5.58 5.34 13.77 13.62c7.76 7.85 11.19 7.33 19.16 1 1-.76 2.05-1.62 3.14-2.54 6.79-5.6 8.18-7.74 10.65-9.92v-.05c.83-.74 1.57-1.39 2.17-1.9 3.6-3 5.9-3.88 8.72-6.89a36.14 36.14 0 0 0 4.77-6.74c1.42-2.63.64-4.25.18-4.56 1.18-2.01.52-3.15.05-3.64Z" style="fill:#ffa8a7"/><path d="M279.53 286.44c7.12-.3 10.58.66 16.54 6.54 3.87 3.81 12.15 12.87 12.15 12.87a28.89 28.89 0 0 1-6.16 7.19c-4.37 3.45-7.12 3.83-7.12 3.83s-7.5-7.8-9.26-9.73c-2.2-2.41-8.9-15.02-6.15-20.7Z" style="fill:#3c37d8"/><path d="M338.53 293.1c1.06 2.16.23 5.91-3.15 8.19 3.62-.8 5.79-5.56 3.15-8.19ZM307.22 316.3a7.34 7.34 0 0 1 3.81-7.08c.74.82 1.19 1.27 1.19 1.27a9 9 0 0 0-5 5.81Z" style="fill:#f28f8f"/></g><path d="M292.93 305.11c-1.22-13.54-5.86-18.09-12.77-18.58a138.21 138.21 0 0 0-15.1 1.48 59.46 59.46 0 0 0-16.57 6.42c-3.43 2.14-4.53 6.73-4.59 16.32a213 213 0 0 0 1.8 27.67 143.15 143.15 0 0 0 4.72 23.84c9.55 3.19 46.83-9.86 46.54-22-1-2.77-2.15-4.49-2.93-10.11-1.03-9.84-.71-20.78-1.1-25.04Z" style="fill:#455a64"/><path d="M259.41 284c-.79-3.77-4.72-7.58-6.54-10.82s-2.83-5.55-2.76-8.55c0-1.78 1.06-4.23 2.36-4.78-1.78-6.54 3-9.37 5.2-10.23 1-.38 3.1-1 4.05-1.44 1.41-.65 1.69-1.81 2.8-2.83 1.92-1.76 5.26-1.93 6.63.57 1.25-1.76 3-1.78 5.13-1.34a3.54 3.54 0 0 1 2.86 3.89 3.7 3.7 0 0 1 5.63 1.81c.24 1.2 0 2.22.85 3.26s2.6 1.09 3.07.1c.35 1.69-.27 3-2.12 3a3.87 3.87 0 0 1 .61 3.23 3.52 3.52 0 0 1-3.1 2.56 6.19 6.19 0 0 1-.72 2.63 6.12 6.12 0 0 1-2.1 2c-2.75 1.45-5.82 2-8.81 2.74l-3.55.88c-.21.05-1.28.15-1.4.34Z" style="fill:#263238"/><path d="M254.63 279.23a3.67 3.67 0 0 0 4.46-.3l.29 12.5c2.28 5.27 11.46 5.82 14.72 4.18s2.77-3.6.5-6.51l.15-2.05a36.51 36.51 0 0 0 4.5-.38c2.95-.52 5.1-3 5.82-6.27a33.29 33.29 0 0 0-.13-12.76 11.24 11.24 0 0 1-.28-3.11 14.7 14.7 0 0 0-1.18-6.66c-3.37-2.51-11-3.11-17.85 1.44 1 4.17-.53 7.56-3.52 9.27.19 1.13.44 4-1.43 4-1.34 0-1.49-1.66-2.93-3.09s-4.66-1.7-5.82.53a7.25 7.25 0 0 0 2.7 9.21Z" style="fill:#ffa8a7"/><path d="m265.38 266-8.22 3a3.55 3.55 0 0 1 1.34 1.39l7.28-2.78Z" style="fill:#37474f"/><path d="M285.54 262.77H285a16.18 16.18 0 0 0-5.65 1.09c-1.73.86-2.26 1.61-3.27 1.77s-1.87-.38-3.91-.65a18.74 18.74 0 0 0-6.13.77l-.6.17a1 1 0 0 0-.54 1.16 2.34 2.34 0 0 0 .76 1.15 1.8 1.8 0 0 1 .27.48 22.58 22.58 0 0 0 1.22 3.37 4.3 4.3 0 0 0 1 1.14 2.47 2.47 0 0 0 .46.31l.25.13a3.39 3.39 0 0 0 .76.25h.52a4.37 4.37 0 0 0 .63 0H271.38a4.26 4.26 0 0 0 3.85-3.3c.42-1.42 0-3.25 1.13-3.42h.21c.9.07 1.08 1.79 1.83 2.93a5.2 5.2 0 0 0 1.07 1.23l.23.18.13.08.12.08.12.06.12.07h.17a3.7 3.7 0 0 0 1.1.28h.09a5.2 5.2 0 0 0 1.28-.07 3.51 3.51 0 0 0 3.15-3 22.56 22.56 0 0 0 0-3.57 1.05 1.05 0 0 1 .13-.48 2.4 2.4 0 0 0 .29-1.34c-.1-.44-.54-.88-.86-.87Zm-11.23 6.73a4.13 4.13 0 0 1-.6 2 3.52 3.52 0 0 1-2.62 1.5 3 3 0 0 1-2.88-.94l-.1-.12-.1-.12a.76.76 0 0 1-.08-.11l-.07-.11-.06-.08v-.07a.83.83 0 0 1-.07-.13c-.07-.13-.13-.25-.18-.37l-.09-.22c-.06-.13-.1-.25-.14-.36v-.13c-.32-.89-.8-2.65-.42-3.12a4.81 4.81 0 0 1 3.35-1.17h.21a8.42 8.42 0 0 1 .87 0h.35a7.47 7.47 0 0 1 .87.16l.28.07.29.09h.06l.11.05a1.71 1.71 0 0 1 .64.38 4.41 4.41 0 0 1 .38 2.8Zm10.94-2.12a3.92 3.92 0 0 1-1.24 3.24 3.52 3.52 0 0 1-4.44-.4l-.06-.08-.08-.09V270l-.09-.13-.11-.16-.05-.08a.25.25 0 0 1 0-.07v-.05a4.15 4.15 0 0 1-.3-.66 4.61 4.61 0 0 1-.41-2.76 5 5 0 0 1 2.82-1.81 6.08 6.08 0 0 1 .85-.2h.86a3.2 3.2 0 0 1 .44 0h.45l.22.05a2.06 2.06 0 0 1 .51.23c.52.27.64 2.08.63 3.02Z" style="fill:#37474f"/><path d="m281.65 273.17-4.38 2.5-1.84-7c.08-.75.22-1.34.86-1.43h.22a.41.41 0 0 1 .16 0l.24.19a1.62 1.62 0 0 1 .2.18 13.3 13.3 0 0 1 1.43 1.51c.52.62 1.06 1.31 1.6 2 .24.31.47.63.7 1l.2.26c.2.26.41.52.61.79ZM274.75 287.05c-4.74-.38-8.34-.75-10.92-4.07a30.05 30.05 0 0 1-3.06-5.48 23.25 23.25 0 0 0 2.29 6.92c1.27 2.14 4.15 3.95 11.56 4.31Z" style="fill:#f28f8f"/><path d="M272.63 268.73a1.33 1.33 0 1 1-1.44-1.26 1.35 1.35 0 0 1 1.44 1.26ZM271.3 263.2l-2.91 1.43a1.7 1.7 0 0 1 .77-2.22 1.57 1.57 0 0 1 2.14.79Z" style="fill:#263238"/><path d="m272.18 277.35 4.46 1.14a2.42 2.42 0 0 1-2.88 1.7 2.25 2.25 0 0 1-1.58-2.84Z" style="fill:#b16668"/><path d="M275 280.14a2.72 2.72 0 0 0-2.94-2.13 2.22 2.22 0 0 0 1.67 2.18 2.28 2.28 0 0 0 1.27-.05Z" style="fill:#f28f8f"/><path d="m282.88 262.41-3.26-.26a1.57 1.57 0 0 1 1.69-1.52 1.73 1.73 0 0 1 1.57 1.78ZM283.2 267.3a1.33 1.33 0 1 1-1.33-1.38 1.35 1.35 0 0 1 1.33 1.38Z" style="fill:#263238"/><path d="M271.33 366.22v.89a2.5 2.5 0 0 0 1.25 2.19l24 14a2.49 2.49 0 0 0 1.27.34 2.38 2.38 0 0 0 1.26-.33L343.39 358a2.53 2.53 0 0 0 1.28-2.18v-.62l-46.81 26.75Z" style="fill:#ebebeb"/><path d="m344.67 355.17-26.12-15.23a1.53 1.53 0 0 0-1.51 0L271.5 366a.33.33 0 0 0 0 .58l26.36 15.38Z" style="fill:#fafafa"/><path style="fill:#e0e0e0" d="m297.63 379.7-14.09-8.21 41.41-23.66 14.16 8.16-41.48 23.71zM290.79 357.01l.26.15 6.9 4.03 12.35-7.06.25-.14-7.16-4.18-12.6 7.2z"/><path style="fill:#e6e6e6" d="m291.05 357.16 6.9 4.03 12.35-7.06-6.91-4.02-12.34 7.05z"/><path d="M297.86 381.92v1.68a2.38 2.38 0 0 0 1.26-.33L343.39 358a2.53 2.53 0 0 0 1.28-2.18v-.62Z" style="fill:#ebebeb"/><g style="mix-blend-mode:multiply;opacity:.5"><path d="M297.86 381.92v1.68a2.38 2.38 0 0 0 1.26-.33L343.39 358a2.53 2.53 0 0 0 1.28-2.18v-.62Z" style="fill:#e0e0e0"/></g><path d="M236.4 337.37c.61-11.79 1.25-22.47 2.61-31.15.75-4.8 5.14-9.4 9.74-11.27 6.78 3.69 6.47 17.36 6 20.72l-2.5 20.84s5.92 3.79 12.12 7.27c5.23 2.94 8.69 5.37 14.45 5.35s8-.48 11.14.44c1.66.5 5.45 1.65 6.75 2.12s3.77 2.42 6 3.67-.19 2.43-1.72 2.17a19 19 0 0 1-4.73-1.62 25.68 25.68 0 0 0-4-1 23.15 23.15 0 0 1 1.35 4.36c.11.82.41 1.79-.23 2.47a6.61 6.61 0 0 1-1.62.91 1.23 1.23 0 0 1-.25.83 2.05 2.05 0 0 1-1.4.55 5.48 5.48 0 0 1-.84 0 1.53 1.53 0 0 1-.78 1.29 6.65 6.65 0 0 1-3.47.54c-.18-.05-1.56-.59-2-.74a3.48 3.48 0 0 1-1.38-.65c-.33-.39.34-1.47 1-1.66a7 7 0 0 1 2.23-.12 7.55 7.55 0 0 1-.88-1.83c-.72-.9-5 .62-8.91.42-3-.15-5.43-2.67-6.82-3.1-8.87-2.77-15.61-4.64-24.73-8.73-8.32-3.74-7.45-5.96-7.13-12.08Z" style="fill:#ffa8a7"/><path d="M293 355.08c-.58-1-1.43-2.28-2.31-2.48a10.35 10.35 0 0 1 1.53 2.32ZM291.73 362.66a9.75 9.75 0 0 0-.22-2.41 20.74 20.74 0 0 0-.6-2.35 10.3 10.3 0 0 0-.94-2.26 4.46 4.46 0 0 0-1.67-1.75 3.32 3.32 0 0 1 .77.9 6.92 6.92 0 0 1 .59 1 17.88 17.88 0 0 1 .81 2.23c.24.76.46 1.52.69 2.29a20.82 20.82 0 0 1 .57 2.35ZM289.24 364a11.82 11.82 0 0 0-.29-2.37 19.91 19.91 0 0 0-.64-2.29 16.23 16.23 0 0 0-.92-2.2 4.51 4.51 0 0 0-1.46-1.88 3 3 0 0 1 .66 1c.17.35.33.7.47 1.07.29.72.56 1.46.81 2.2.51 1.47.99 2.95 1.37 4.47ZM282.65 362.8a4 4 0 0 1 1 0c.33 0 .57.17 1 .25l-.19-.24a.92.92 0 0 0 .12.46.91.91 0 0 0 .27.34 1.33 1.33 0 0 0 .71.35 3.35 3.35 0 0 1-.47-.55 2 2 0 0 1-.14-.3 1 1 0 0 1 0-.27v-.18l-.19-.06a3.06 3.06 0 0 0-.95-.08 2.07 2.07 0 0 0-1.16.28Z" style="fill:#f28f8f"/><path d="M248.78 294.25a16.62 16.62 0 0 0-10.1 12c-1.63 7.4-2.3 22.07-2.3 22.07s2.47 2.32 9 2.9 8.19-1 8.19-1 1.1-10.28 1.58-15 1.05-18.11-6.37-20.97ZM298.57 382.3a3 3 0 0 0 2.58-.19l44.08-25.19a3 3 0 0 0 1.47-2.09l4.94-28.68a4.22 4.22 0 0 0 0-.49 3 3 0 0 0-.88-2.13L305 349.71a2.23 2.23 0 0 0-1.08 1.54Z" style="fill:#3c37d8"/><g style="opacity:.7000000000000001"><path d="M298.57 382.3a3 3 0 0 0 2.58-.19l44.08-25.19a3 3 0 0 0 1.47-2.09l4.94-28.68a4.22 4.22 0 0 0 0-.49 3 3 0 0 0-.88-2.13L305 349.71a2.23 2.23 0 0 0-1.08 1.54Z" style="fill:#fff"/></g><path d="m297.86 381.93.3.17.41.2 5.34-31.05a2.23 2.23 0 0 1 1.08-1.54l45.81-26.18a2.61 2.61 0 0 0-.61-.47l-45.9 26.23a2.23 2.23 0 0 0-1.08 1.55Z" style="fill:#fafafa"/><path d="M323.45 355.91c.33-1.92 2.33-4.47 4.46-5.69s3.59-.64 3.26 1.28-2.33 4.46-4.46 5.68-3.59.65-3.26-1.27Z" style="fill:#3c37d8"/><path d="M87.38 242.87c-6.42.62-9.58 1.41-14.87 10.74l-10.08 17.75s-14-4.29-17.51-6.34-2.09-3.27-3.62-7.76c-1.27-3.7-.41-5.51-1.38-6.51-.78-.81-2.8.32-2.49 5.21.25 4-1.52 3.18-2.49 2a17.44 17.44 0 0 1-2.18-4.74v-4.11a16.4 16.4 0 0 0-1.47 1.15 3.58 3.58 0 0 0-1.38 2.26c-.1.87.17 1.8-.2 2.6-.16.36-.45.66-.59 1-.37 1.06.61 2.16.49 3.28a10.37 10.37 0 0 1-.34 1.21 4.4 4.4 0 0 0 .49 2.76 21.48 21.48 0 0 0 4.8 7.16c.57.57 5.51 3.39 6.82 4.14 3.19 1.82 12 6.44 18.22 9.22 5.53 2.5 7.92 2.83 11.84-1.92 5-6.09 10.68-13.91 10.68-13.91Z" style="fill:#ffa8a7"/><path d="M145.06 435.62c.58-.12.71 1.64.58 2.42s-2.25 3.57-6.44 4.93-10.19 1.22-12.74 1.39-6.29 1.83-8.74 2.63c-5.69 1.85-9.18.11-10.84-1.16a2.67 2.67 0 0 1-.86-2c-.13-1.69 0-2.05.18-2.06Z" style="fill:#37474f"/><path d="M106.38 436.27a33.43 33.43 0 0 0-.54 3.59c-.13 1.45-.21 3.3.88 4.33a8.05 8.05 0 0 0 6 2 18 18 0 0 0 7.35-1.62 16.62 16.62 0 0 1 6.25-1.93c2.64-.14 6.3-.07 8.89-.63a21.26 21.26 0 0 0 6.34-2.12 8.22 8.22 0 0 0 3.53-4 6 6 0 0 0-4-5.51 13.42 13.42 0 0 0-6.75-.61c-2.47.3-4.3.85-6.52.95a10.81 10.81 0 0 1-4.48-.55c-.68-.26-1.24-1.19-1.61-1.79s-.65-1.42-1.36-1.41c0 0-11.58 1.29-12.63 1.47s-.86 1.81-.81 2.68 0 .77 0 1.52a9.69 9.69 0 0 1-.36 2.51Z" style="fill:#455a64"/><path d="M129.69 430.1a1.67 1.67 0 0 1 .52-.25c1-.27 1.87.63 2.38 1.35a6.18 6.18 0 0 1 .7 1.44 3.58 3.58 0 0 1 .27 2c0 .17-.14.37-.31.35s-.21-.21-.25-.36a7.42 7.42 0 0 0-1.06-2.55 2.86 2.86 0 0 0-.73-.89 3 3 0 0 0-1.07-.52c-.16 0-.83.05-.7-.27a.42.42 0 0 1 .12-.15ZM126.78 430.44a2 2 0 0 1 1.38.22 2.76 2.76 0 0 1 .94 1.24 4.18 4.18 0 0 1 .47 3.37c-.15.32-.44.2-.58-.07a5 5 0 0 1-.24-1 9 9 0 0 0-.88-2.16 3.55 3.55 0 0 0-.51-.77 1.45 1.45 0 0 0-.49-.36 1.4 1.4 0 0 0-.29-.09 2.62 2.62 0 0 0-.28 0c0-.14.14-.24.27-.29ZM123.76 430a1.9 1.9 0 0 1 .92.48 2.47 2.47 0 0 1 .5.84 9.76 9.76 0 0 1 .65 2.16 2.77 2.77 0 0 1-.19 1.56c-.1.19-.28.39-.48.32s-.24-.4-.28-.59c-.07-.35-.08-.72-.12-1.07a6.28 6.28 0 0 0-1.62-3.48c0-.05-.09-.1-.08-.17s.14-.12.24-.11a2.42 2.42 0 0 1 .46.06Z" style="fill:#fafafa"/><path d="M132.81 430c1-.13 3.33 1 4.73 4a18 18 0 0 1 1.27 7.05 10.17 10.17 0 0 0 5.38-3.33 6.14 6.14 0 0 0 1.22-2 6.3 6.3 0 0 0-1.61-4.67c-1.69-1.61-4.12-2.52-7.76-2.3-4.09.24-4.32 1.36-4.32 1.36Z" style="fill:#fafafa"/><path d="M105.26 410.61s2.23 16.14 2.56 19.46c.15 1.41 3.27 3 7.59 2.54 3-.31 4.92-2.14 5.19-3.71s1.16-20.6 1.16-20.6ZM60.23 411.43l4.91-15.58 14.55 2.7s-8.87 16.81-10 18.34c-1.94 2.52-9.46-5.46-9.46-5.46Z" style="fill:#ffa8a7"/><path d="M54.54 416a11.87 11.87 0 0 0 .2 4.36c.2 1.44.41 2.86.52 4.32a17.57 17.57 0 0 0 .36 2.62 16.76 16.76 0 0 1 .13 3.17c0 1.11 0 2.22.06 3.33a6.13 6.13 0 0 1 0 1.42c-.12.46 7 4.56 9.91 6.14l.52.25a4.56 4.56 0 0 0 4.68-1.1A7.94 7.94 0 0 0 69 431.8s-.37 0-.29-2.8c0-2 0-4.05.21-6.05a13.17 13.17 0 0 1 .95-3.66c.44-1.07 1.27-2.2 1.23-3.39a5 5 0 0 0-1.1-2.36c-1-1.81-3.36-3.29-5.22-4.13-1.06-.47-2.79-1-3.88-.34-.59.36-.86 1.05-1.28 1.59a7.82 7.82 0 0 1-1.88 1.55 7.34 7.34 0 0 0-3 3.48c-.14.12-.17.23-.2.31Z" style="fill:#455a64"/><path d="M69 431.8a10.4 10.4 0 0 1 .93 1.34 10.07 10.07 0 0 1 1 7.41c5-.46 6.37-3.37 6.37-3.37s.28-2.52-2.62-4.35a6.07 6.07 0 0 0-1.1-.57 7.33 7.33 0 0 0-4.58-.46Z" style="fill:#fafafa"/><path d="M53.36 416.83c-1.32.51-1 4.15-.14 7.66s1.29 4.73.87 7.65-.67 4.22.51 5.29 10.66 5.49 10.66 5.49a34.7 34.7 0 0 1-2.12-11c-.25-6.46-.68-10.62-3.68-13.56a5.68 5.68 0 0 0-6.1-1.53Z" style="fill:#263238"/><path d="M77.3 437.17a17.66 17.66 0 0 1-7.9 3.45c-4.22.48-4.43-1.14-4.88-6.15s-.61-11.92-2.58-15-5.29-4.39-6.59-4.08c-.27-.14-1.56.82-2 1.41a7.23 7.23 0 0 1 5.54 2.2c2.64 2.58 3.12 8 3.24 13s.34 10.68 4.28 11.28A14.3 14.3 0 0 0 77.15 440a2 2 0 0 0 .15-2.83Z" style="fill:#37474f"/><path d="M68.68 430a1.35 1.35 0 0 1 .58.91 2.82 2.82 0 0 1-1.43 2.6c-.53.3-1 .18-.13-.86a5.39 5.39 0 0 0 .98-2.65ZM68.76 426.47a1.21 1.21 0 0 1 .36.76 4.38 4.38 0 0 1-1.74 2.77c-.92.41-.42-.61 0-1.09a18 18 0 0 0 1.38-2.44ZM69 422.64a.82.82 0 0 1 .44.62c0 .4-1.88 1.83-2.47 1.78s-.74-.23 0-.73 2.03-1.67 2.03-1.67Z" style="fill:#fafafa"/><path d="M73.66 410.68s11.19-20.36 17.89-34.1c2.31-4.73 3.35-6.76 4-10.39S99 352.57 99 352.57l3.7 21.16a72.53 72.53 0 0 0-1.67 11.72c-.22 4.44.49 9.61 2.08 19.29 2.28 14 3.28 17.41 3.28 17.41 1 .75 3.56.9 6.14 1 6 .27 8.82-2.52 8.82-2.52s1.57-24.59 2.11-30.24c1.85-19.27 2-27.43 1.53-49.91-.38-19.17-2.45-42.23-2.45-42.23L80 288.06s-7.83 13.7-7 27.12c.86 14.58 1.34 46.72 1.34 46.72-2.31 3.77-4.37 7.61-6.54 16.83-1.27 5.41-3.75 17.12-5.5 25.69a13 13 0 0 1 11.36 6.26Z" style="fill:#455a64"/><path d="m99 352.57-5.42-30s-5.83-.68-13.51-7.42c0 0 .51 5.26 10.73 9.76l5.84 26.63-1.04 14.65Z" style="fill:#37474f"/><path d="M106.76 199c5.46.19 10.6 3 12.84 8.42s-3.24 9-3.24 9Z" style="fill:#263238"/><path style="fill:#ffa8a7" d="m106.47 235.55-.76 15.76-14.53-1.17 1.11-17.13 14.18 2.54z"/><path d="M116 217.64s3.76 5.51 3.36 6a7.37 7.37 0 0 1-2.34 1Z" style="fill:#f28f8f"/><path d="M107.27 203.06c2.93.58 7 1.83 9 11.08.27 1.27-.16 3.2 0 4.78.22 1.78 1 3.75 1 5.17.2 7.43-1.95 10.29-3.23 11.51-1 1-6.37 1.33-9.15.48-3.49-1.06-11-4.73-14.57-10.43-4.16-6.7-5-15.64-.22-19.15 6.84-4.93 14.4-3.99 17.17-3.44Z" style="fill:#ffa8a7"/><path d="M113.83 235.79c-1.25.69-4.8 1-7.44.59l.08-2a20.16 20.16 0 0 0 3.52 1.15 12.18 12.18 0 0 0 3.84.26Z" style="fill:#f28f8f"/><path d="M111.28 201.48c-13.91-9.72-28.82-.26-29.11 13.13v.12c0 4.51-.24 9.36-.24 14.15 0 4.38.83 8.1 7.18 10.42 6 2.19 17.69 1.71 21 .28-3.1-1.17-3.45-4.7-3.45-10.18a10.5 10.5 0 0 0 .12-2.46c-3.54 3.26-7.49-2.6-5.93-6.59 1-2.38 4.85-1.94 5.86.15.49.65.89 1.53 1.74 1.78 1.74.4 1.27-1.74 1.43-2.78a7.09 7.09 0 0 0 3.75-5.17c.21 1 .81 2.12.13 2.89 4.79-5.39 2.78-12.22-2.48-15.74Z" style="fill:#263238"/><path d="M79.31 249.13c1.22-4.22 4.69-5.9 8.07-6.26l4.29-.41c.82 1.44 10.59 1.95 14.43.69.93.17 3.41.78 6.8 1.74l1.3.71c4.9 1.6 8.72 3.78 12 17.72a12.85 12.85 0 0 1-4.41 13.38c.12 4-.77 6-.28 9.86 1.58 12.26 2.06 18.42 2.06 18.42S113 310.4 96.3 308.79c-10.29-1-20.08-6.69-22-8.55 0 0 1.75-6.45 7.17-17.37-1.66-13.81-4.7-24.96-2.16-33.74Z" style="fill:#3c37d8"/><path d="M112.9 244.89c8.61 2.46 10.6 2.61 17.15 10.13 6.18 7.09 15.13 16.5 15.13 16.5s25.45 1.06 27 .42 3.23-3.44 4.21-4.58a17.51 17.51 0 0 1 3-3c1-.65 1.86-1.34 2.74-2.07s1.91-1.55 2 .12a4.52 4.52 0 0 1-.65 2.61c-.3.5-.75.87-1.09 1.34a11 11 0 0 0-.87 1.53 1.43 1.43 0 0 0-.21 1 1 1 0 0 0 .65.65 2.49 2.49 0 0 0 .94.13 12.75 12.75 0 0 0 7.67-2.86c1.3-1 2.79-2.45 4.48-1.18a.39.39 0 0 0 .24.12.43.43 0 0 0 .21-.09 2.9 2.9 0 0 1 2.6-.38 1 1 0 0 1 .67.66c.2.78-.74 1.43-.76 2.21 0 .2.05.4.07.61a3.55 3.55 0 0 1-.66 2.34c-.44.7-1 1.31-1.5 2a3.7 3.7 0 0 0-.49.92c-.13.37-.16.78-.27 1.16a4.53 4.53 0 0 1-1.47 2 20.85 20.85 0 0 1-1.71 1.54c-1.47 1-3 2-4.57 2.91a8.17 8.17 0 0 1-3.29.84 31.8 31.8 0 0 1-3.64.25c-2.14.05-4.28-.13-6.41.13-2.46.3-29.77 5-33.94 2.71-3.82-2.08-14.12-9.72-21.38-15.26-13.11-13.43-5.85-25.41-5.85-25.41Z" style="fill:#ffa8a7"/></svg>