<svg xmlns="http://www.w3.org/2000/svg" viewBox="0 0 500 500"><path d="M466 255.68c-7.79 41.36-30.17 88.54-69.73 108.2-59.78 29.7-58.53 81.81-172.23 96.6a230.91 230.91 0 0 1-50 1.27 190.56 190.56 0 0 1-24.27-3.67C79.15 442.76 34.59 389.92 21.11 328.89c-17.74-80.25 32-128.56 64.83-157.48S147.83 47.36 259.49 32a223.64 223.64 0 0 1 51.45-1.34c39.1 3.66 80.93 19.46 108.64 48.33q3.12 3.25 6.05 6.71c38.19 44.95 51 113.59 40.37 169.98Z" style="fill:#3c37d8"/><path d="M466 255.68c-7.79 41.36-30.17 88.54-69.73 108.2-59.78 29.7-58.53 81.81-172.23 96.6a230.91 230.91 0 0 1-50 1.27 190.56 190.56 0 0 1-24.27-3.67C79.15 442.76 34.59 389.92 21.11 328.89c-17.74-80.25 32-128.56 64.83-157.48S147.83 47.36 259.49 32a223.64 223.64 0 0 1 51.45-1.34c39.1 3.66 80.93 19.46 108.64 48.33q3.12 3.25 6.05 6.71c38.19 44.95 51 113.59 40.37 169.98Z" style="fill:#fff;opacity:.7000000000000001"/><path d="M362 217.24c.29-.91-.37-2.68-.61-3.21-1.24-2.76-4.3-4-7.2-3.77a8.35 8.35 0 0 1-3.15 0 5.13 5.13 0 0 1-2.73-2.73 26.26 26.26 0 0 0-4.29-6c-2.61-2.72-6.14-4.72-10-4.59-10.43.36-9.36 9-12.24 11.52-1.6 1.4-2.75-.6-4.11-1.28a4.77 4.77 0 0 0-5.38.57c-1.49 1.25-2.37 3.07-3.54 4.63s-2.93 3-4.87 2.75c-1.62-.17-2.91-1.43-4.46-1.95a6.68 6.68 0 0 0-5.42.82 14.26 14.26 0 0 0-3.62 3.27ZM463.78 106.12c.45-1.39-.56-4.1-.93-4.92-1.9-4.23-6.6-6.15-11.05-5.78-1.62.13-3.28.51-4.83 0-1.94-.6-3.25-2.39-4.2-4.19a40.23 40.23 0 0 0-6.58-9.23c-4-4.18-9.42-7.25-15.38-7-16 .56-14.36 13.81-18.78 17.68-2.46 2.16-4.23-.91-6.32-2a7.3 7.3 0 0 0-8.25.87c-2.29 1.93-3.64 4.72-5.44 7.11s-4.49 4.55-7.47 4.22c-2.49-.27-4.47-2.19-6.85-3a10.27 10.27 0 0 0-8.27 1.21 22.27 22.27 0 0 0-5.56 5ZM128.22 59.23c.29-.92-.37-2.68-.61-3.21-1.24-2.76-4.3-4-7.2-3.77a8.35 8.35 0 0 1-3.15 0 5.13 5.13 0 0 1-2.73-2.73 26.26 26.26 0 0 0-4.29-6c-2.61-2.72-6.14-4.72-10-4.59-10.43.36-9.36 9-12.24 11.52-1.6 1.4-2.75-.6-4.11-1.28a4.77 4.77 0 0 0-5.38.57C77 51 76.12 52.81 75 54.37s-2.93 3-4.87 2.75c-1.62-.18-2.91-1.43-4.46-1.95a6.65 6.65 0 0 0-5.39.79 14.26 14.26 0 0 0-3.62 3.27ZM445.15 431.36a11 11 0 0 0 1.11-4.82 10.62 10.62 0 0 0-10.36-10.85 9.93 9.93 0 0 0-5.31 1.55 9.82 9.82 0 0 0 .14-1.55 8.63 8.63 0 1 0-17.24-.57h-.6a19.31 19.31 0 0 0-10.12 2.88 20.82 20.82 0 0 0-12-9.32 9.41 9.41 0 0 0 4.88-8.33 8.92 8.92 0 1 0-17.83 0 9.43 9.43 0 0 0 4.09 7.85 19.9 19.9 0 0 0-6.18 2.15 16.47 16.47 0 0 0-15.46-11.51 15.87 15.87 0 0 0-10.72 4.2c-1.4-12.78-11.76-22.72-24.34-22.72a23.94 23.94 0 0 0-18.2 8.5c-4.16-12.08-15.19-20.72-28.15-20.72a28.8 28.8 0 0 0-16.1 4.9 17.77 17.77 0 0 0-16.12 1.42 17.77 17.77 0 0 0-16.12-1.42 28.8 28.8 0 0 0-16.08-4.92c-13 0-24 8.64-28.15 20.72a24 24 0 0 0-18.21-8.5c-12.58 0-22.94 9.94-24.33 22.72a15.89 15.89 0 0 0-10.72-4.2 16.46 16.46 0 0 0-15.46 11.51 20.08 20.08 0 0 0-6.18-2.15 9.43 9.43 0 0 0 4.09-7.85 8.92 8.92 0 1 0-17.83 0 9.39 9.39 0 0 0 4.88 8.33 20.82 20.82 0 0 0-12 9.32 19.34 19.34 0 0 0-10.12-2.88h-.61a8.62 8.62 0 1 0-17.09 2.12 9.94 9.94 0 0 0-5.32-1.55A10.61 10.61 0 0 0 47 426.54a11 11 0 0 0 1.11 4.82Z" style="fill:#fff;stroke:#263238;stroke-miterlimit:10"/><path style="fill:none;stroke:#263238;stroke-miterlimit:10" d="M322.54 79.85h19.99v350.06h-19.99zM322.53 184.09h-15.36M322.53 276.94h-19.96"/><path style="fill:none;stroke:#263238;stroke-miterlimit:10" d="m342.53 79.85-19.25 24.44h19.03l-19.77-24.44M342.53 104.9l-19.25 24.43h19.03l-19.77-24.43M342.53 129.94l-19.25 24.44h19.03l-19.77-24.44M342.53 154.99l-19.25 24.43h19.03l-19.77-24.43M342.53 180.03l-19.25 24.43h19.03l-19.77-24.43h-15.33M342.53 205.07l-19.25 24.43h19.03l-19.77-24.43M342.53 230.12l-19.25 24.43h19.03l-19.77-24.43M342.53 255.16l-19.25 24.43h19.03l-19.77-24.43M342.53 280.2l-19.25 24.44h19.03l-19.77-24.44H302.6M342.53 305.25l-19.25 24.43h19.03l-19.77-24.43M342.53 330.29l-19.25 24.43h19.03l-19.77-24.43M342.53 355.33l-19.25 24.44h19.03l-19.77-24.44M342.53 380.38l-19.25 24.43h19.03l-19.77-24.43M342.53 405.42l-19.25 24.43h19.03l-19.77-24.43"/><path style="fill:#fff;stroke:#263238;stroke-miterlimit:10" d="M342.13 430.56H150.36l27.4-29.62h136.97l27.4 29.62z"/><circle cx="187.43" cy="416.39" r="7.54" style="fill:#263238;stroke:#263238;stroke-linecap:round;stroke-linejoin:round"/><circle cx="217.58" cy="416.39" r="7.54" style="fill:#263238;stroke:#263238;stroke-linecap:round;stroke-linejoin:round"/><circle cx="247.73" cy="416.39" r="7.54" style="fill:#263238;stroke:#263238;stroke-linecap:round;stroke-linejoin:round"/><circle cx="277.88" cy="416.39" r="7.54" style="fill:#263238;stroke:#263238;stroke-linecap:round;stroke-linejoin:round"/><circle cx="308.03" cy="416.39" r="7.54" style="fill:#263238;stroke:#263238;stroke-linecap:round;stroke-linejoin:round"/><path style="fill:#263238;stroke:#263238;stroke-linecap:round;stroke-linejoin:round" d="M24.93 429.94h442.62v12.91H24.93z"/><path d="m307.56 167.55-10 219.24H194.83l-10-219.24c0-29.9 12.51-57.25 26.1-78.53 12.41-19.43 25.72-33.8 31.24-40.48a4.69 4.69 0 0 1 7.19 0C255 55.18 268.51 69.57 281.09 89c13.79 21.3 26.47 48.64 26.47 78.55ZM300.09 190.12l-8.34 188.74" style="fill:#fff;stroke:#263238;stroke-miterlimit:10"/><path d="M281.56 103.41c10.18 18 18.66 39.77 19.38 63.27" style="fill:#fff;stroke:#263238;stroke-miterlimit:10"/><path d="M281.09 89h-70.16c12.41-19.43 25.72-33.8 31.24-40.48a4.69 4.69 0 0 1 7.19 0C255 55.18 268.51 69.57 281.09 89ZM189.68 275.11s-26.06 9-35.86 33.47c-7.68 19.21-9.71 56.15-10.23 71.15a6.36 6.36 0 0 0 6.36 6.58h0a6.34 6.34 0 0 0 5.59-3.33c5.1-9.46 21-35.88 37.58-31.86ZM302.74 274.89s26.14 9.2 35.93 33.69c7.69 19.21 9.72 56.15 10.23 71.15a6.36 6.36 0 0 1-6.36 6.58h0A6.34 6.34 0 0 1 337 383c-5.1-9.46-21.19-35.73-37.78-31.71Z" style="fill:#3c37d8;stroke:#263238;stroke-linecap:round;stroke-linejoin:round"/><path d="M310 278.27a59.29 59.29 0 0 0-7.29-3.38l-3.57 76.38a14.76 14.76 0 0 1 5.24-.3ZM204.51 386.63h84.63v15.01h-84.63z" style="fill:#263238;stroke:#263238;stroke-linecap:round;stroke-linejoin:round"/><circle cx="245.33" cy="328.22" r="22.81" transform="rotate(-13.54 245.407 328.29)" style="fill:#fff;stroke:#263238;stroke-miterlimit:10"/><circle cx="245.33" cy="328.22" r="17.96" transform="rotate(-13.18 245.317 328.195)" style="fill:#3c37d8;stroke:#263238;stroke-miterlimit:10"/><circle cx="245.33" cy="328.22" r="14.76" transform="rotate(-13.2 245.276 328.181)" style="fill:#fff;stroke:#263238;stroke-miterlimit:10"/><circle cx="245.33" cy="328.22" r="10.75" transform="rotate(-13.22 245.318 328.221)" style="fill:#3c37d8;stroke:#263238;stroke-miterlimit:10"/><circle cx="245.33" cy="328.22" r="6.79" style="fill:#fff;stroke:#263238;stroke-miterlimit:10"/><path d="M248.47 328.22a3.15 3.15 0 1 0-3.14 3.14 3.14 3.14 0 0 0 3.14-3.14Z" style="fill:#3c37d8;stroke:#263238;stroke-miterlimit:10"/><path style="fill:#fff;stroke:#263238;stroke-miterlimit:10" d="m246.62 323.29-1.29 4.93 4.65 1.02-3.36-5.95zM248.61 326.04l20.43-11.13M262.48 318.57l.31-5.34 9.6-5.49v6.1l-9.91 4.73z"/><path style="fill:#fff;stroke:#263238;stroke-miterlimit:10" d="m276.51 316.74-4.21-3.11-9.86 5.19 4.75 2.75 9.32-4.83z"/><circle cx="245.33" cy="262.08" r="22.81" style="fill:none;stroke:#263238;stroke-miterlimit:10"/><path style="fill:#3c37d8;stroke:#263238;stroke-miterlimit:10" d="M231.68 258.88h6.86v13.87h-6.86zM241.96 254.47h6.86v18.28h-6.86zM252.24 250.37h6.86v22.38h-6.86z"/><circle cx="245.33" cy="197.57" r="22.81" style="fill:none;stroke:#263238;stroke-miterlimit:10"/><path d="M261.86 200.67v-5.92h-3.93a12.56 12.56 0 0 0-1.56-3.84l2.84-2.85-4.21-4.18-2.83 2.83a12.49 12.49 0 0 0-3.78-1.57V181h-5.91v4.11a12.31 12.31 0 0 0-3.7 1.53l-3-3-4.18 4.19 3 3a12.85 12.85 0 0 0-1.54 3.63h-4.28v5.92H233a12.58 12.58 0 0 0 1.46 3.66l-3 3 4.18 4.18 2.94-2.93a12.85 12.85 0 0 0 3.67 1.61v4.18h5.91v-4a12.77 12.77 0 0 0 3.81-1.49l2.88 2.87 4.18-4.18-2.79-2.8a12.65 12.65 0 0 0 1.64-3.8Zm-16.39 3.64a6.75 6.75 0 1 1 6.74-6.74 6.75 6.75 0 0 1-6.74 6.74Z" style="fill:#3c37d8;stroke:#263238;stroke-miterlimit:10"/><circle cx="245.33" cy="133.06" r="22.81" style="fill:none;stroke:#263238;stroke-miterlimit:10"/><path d="M257.12 127.86a12 12 0 0 0-23.94-.51 11.85 11.85 0 0 0 2.49 7.82 13.58 13.58 0 0 1 3 8.26v.64h13v-.64a13.18 13.18 0 0 1 2.91-8.17 11.86 11.86 0 0 0 2.54-7.4Z" style="fill:#3c37d8;stroke:#263238;stroke-miterlimit:10"/><rect x="240.7" y="146.17" width="9.01" height="6.34" rx="1.9" style="fill:#fff;stroke:#263238;stroke-linecap:round;stroke-linejoin:round"/><path style="fill:#fff;stroke:#263238;stroke-linecap:round;stroke-linejoin:round" d="M238.65 144.07h13.08v2.97h-13.08zM250.41 150.25h-10.46l-1.3-2.98h13.07l-1.31 2.98z"/><path d="M68.49 286.36A3 3 0 0 1 67 286a2 2 0 0 1-.9-1 4.42 4.42 0 0 1-.36-1.7l1.71-.29a4.58 4.58 0 0 0 .12 1 1.31 1.31 0 0 0 .31.6.75.75 0 0 0 .53.19.55.55 0 0 0 .52-.24 1.1 1.1 0 0 0 .14-.55 1.72 1.72 0 0 0-.3-1 4.83 4.83 0 0 0-.77-.83l-1-.87a4.13 4.13 0 0 1-.88-1 2.68 2.68 0 0 1-.34-1.41 2.38 2.38 0 0 1 .7-1.85 2.78 2.78 0 0 1 1.92-.64 2.61 2.61 0 0 1 1.2.24 1.78 1.78 0 0 1 .73.65 2.67 2.67 0 0 1 .36.87 6.24 6.24 0 0 1 .13.94l-1.7.26a7.51 7.51 0 0 0-.07-.78 1.08 1.08 0 0 0-.22-.53.6.6 0 0 0-.49-.19.56.56 0 0 0-.51.25 1.08 1.08 0 0 0-.17.57 1.47 1.47 0 0 0 .23.85 4.06 4.06 0 0 0 .65.69l1 .86a5.75 5.75 0 0 1 1 1.21 3 3 0 0 1 .44 1.67 2.56 2.56 0 0 1-.31 1.24 2.18 2.18 0 0 1-.87.86 2.66 2.66 0 0 1-1.31.29ZM72.94 286.22V278h-1.5v-1.5h5v1.5h-1.5v8.24ZM76.46 286.22l1.88-9.72h2.2l1.87 9.72h-1.83l-.35-2.13h-1.54l-.37 2.13Zm2.41-3.34H80l-.55-3.88ZM85.75 286.37a2.58 2.58 0 0 1-1.56-.42 2.15 2.15 0 0 1-.82-1.17 5.6 5.6 0 0 1-.25-1.77v-3.25a5.63 5.63 0 0 1 .25-1.8 2.14 2.14 0 0 1 .88-1.17 3.13 3.13 0 0 1 1.71-.41 3.32 3.32 0 0 1 1.65.35 1.91 1.91 0 0 1 .87 1 3.81 3.81 0 0 1 .27 1.51v.56h-1.93v-.68a4.5 4.5 0 0 0 0-.68.8.8 0 0 0-.22-.46.81.81 0 0 0-.56-.17.75.75 0 0 0-.58.2 1.08 1.08 0 0 0-.23.52 5 5 0 0 0 0 .68v4.31a3.23 3.23 0 0 0 .07.73 1 1 0 0 0 .27.51 1 1 0 0 0 1.14 0 1.09 1.09 0 0 0 .29-.53 3.42 3.42 0 0 0 .07-.75v-1H86v-1.2h2.73v5h-1.25l-.12-.87a1.8 1.8 0 0 1-.58.73 1.7 1.7 0 0 1-1.03.23ZM90.13 286.22v-9.72h4.23v1.37h-2.25v2.58h1.74v1.38h-1.74v3.05h2.28v1.34ZM100.94 286.22V284H98v-1.5l2.53-6h2.16v6h.94v1.5h-.94v2.26Zm-1.49-3.68h1.49v-4.13Z" style="fill:#263238"/><path style="fill:none;stroke:#263238;stroke-miterlimit:10" d="M65.36 295.17h48.76M65.36 301.96h48.76M65.36 308.74h48.76M65.36 315.52h48.76M222.52 327.75h-58.2V281.1h-51.24"/><path d="M68.49 224.25a3.08 3.08 0 0 1-1.5-.33 2.07 2.07 0 0 1-.9-1 4.47 4.47 0 0 1-.36-1.7l1.71-.29a4.48 4.48 0 0 0 .12 1 1.21 1.21 0 0 0 .31.6.76.76 0 0 0 .53.2.55.55 0 0 0 .52-.24 1.1 1.1 0 0 0 .14-.55 1.72 1.72 0 0 0-.3-1 4.83 4.83 0 0 0-.77-.83l-1-.88a4.08 4.08 0 0 1-.88-1 2.72 2.72 0 0 1-.34-1.42 2.36 2.36 0 0 1 .7-1.84 2.73 2.73 0 0 1 1.92-.64 2.61 2.61 0 0 1 1.2.24 1.76 1.76 0 0 1 .73.64 2.72 2.72 0 0 1 .36.88 6.07 6.07 0 0 1 .13.94l-1.7.25c0-.29 0-.55-.07-.78a1.12 1.12 0 0 0-.22-.53.63.63 0 0 0-.49-.19.57.57 0 0 0-.51.26 1 1 0 0 0-.17.57 1.49 1.49 0 0 0 .23.85 4.06 4.06 0 0 0 .65.69l1 .86a5.29 5.29 0 0 1 1 1.21 3 3 0 0 1 .44 1.67 2.56 2.56 0 0 1-.31 1.24 2.32 2.32 0 0 1-.87.86 2.66 2.66 0 0 1-1.3.26ZM72.94 224.12v-8.24h-1.5v-1.48h5v1.48h-1.5v8.24ZM76.46 224.12l1.88-9.72h2.2l1.87 9.72h-1.83l-.35-2.12h-1.54l-.37 2.14Zm2.41-3.35H80l-.59-3.92ZM85.75 224.26a2.58 2.58 0 0 1-1.56-.41 2.21 2.21 0 0 1-.82-1.18 5.52 5.52 0 0 1-.25-1.77v-3.25a5.71 5.71 0 0 1 .25-1.8 2.15 2.15 0 0 1 .88-1.16 3.13 3.13 0 0 1 1.71-.41 3.32 3.32 0 0 1 1.65.35 1.93 1.93 0 0 1 .87 1 3.88 3.88 0 0 1 .27 1.51v.57h-1.93V217a4.36 4.36 0 0 0 0-.67.86.86 0 0 0-.22-.47.81.81 0 0 0-.56-.16.72.72 0 0 0-.58.2 1.08 1.08 0 0 0-.23.52 4.88 4.88 0 0 0 0 .68v4.31a3.29 3.29 0 0 0 .07.73.93.93 0 0 0 .27.5.81.81 0 0 0 .57.18.77.77 0 0 0 .57-.19 1 1 0 0 0 .29-.52 3.42 3.42 0 0 0 .07-.75v-1H86v-1.2h2.73v5h-1.25l-.12-.88a1.83 1.83 0 0 1-.58.74 1.7 1.7 0 0 1-1.03.24ZM90.13 224.12v-9.72h4.23v1.37h-2.25v2.58h1.74v1.38h-1.74v3.05h2.28v1.34ZM100.72 224.29a2.79 2.79 0 0 1-1.54-.37 2.05 2.05 0 0 1-.82-1 4.23 4.23 0 0 1-.25-1.53V221H100v.33a4 4 0 0 0 .07.77.91.91 0 0 0 .24.46.65.65 0 0 0 .48.16.69.69 0 0 0 .48-.16 1 1 0 0 0 .21-.48 4.15 4.15 0 0 0 .06-.77 2.5 2.5 0 0 0-.21-1.13.9.9 0 0 0-.87-.41h-.32v-1.37h.29a1 1 0 0 0 .88-.35 2 2 0 0 0 .23-1.09 2 2 0 0 0-.16-.9.65.65 0 0 0-.63-.33.59.59 0 0 0-.6.36 2.66 2.66 0 0 0-.15.93v.43h-1.89v-.53a3 3 0 0 1 .31-1.44 2.11 2.11 0 0 1 .89-.91 2.87 2.87 0 0 1 1.4-.31 3.1 3.1 0 0 1 1.42.3 2 2 0 0 1 .89.87 3 3 0 0 1 .31 1.43 2.6 2.6 0 0 1-.36 1.42 1.58 1.58 0 0 1-.87.72 1.63 1.63 0 0 1 .64.39 2 2 0 0 1 .43.74 3.47 3.47 0 0 1 .16 1.15 4.62 4.62 0 0 1-.25 1.55 2.15 2.15 0 0 1-.83 1.06 2.69 2.69 0 0 1-1.53.4Z" style="fill:#263238"/><path style="fill:none;stroke:#263238;stroke-miterlimit:10" d="M65.36 233.07h48.76M65.36 239.85h48.76M65.36 246.64h48.76M65.36 253.42h48.76M222.52 263.57h-58.2v-46.66h-51.24"/><path d="M68.49 162.15a3.08 3.08 0 0 1-1.5-.33 2.05 2.05 0 0 1-.9-1 4.41 4.41 0 0 1-.36-1.69l1.71-.29a4.48 4.48 0 0 0 .12 1 1.21 1.21 0 0 0 .31.6.76.76 0 0 0 .53.2.55.55 0 0 0 .52-.24 1.12 1.12 0 0 0 .14-.55 1.72 1.72 0 0 0-.3-1A4.49 4.49 0 0 0 68 158l-1-.88a4.08 4.08 0 0 1-.88-1 2.74 2.74 0 0 1-.34-1.42 2.36 2.36 0 0 1 .7-1.84 2.73 2.73 0 0 1 1.92-.64 2.61 2.61 0 0 1 1.2.24 1.76 1.76 0 0 1 .73.64 2.72 2.72 0 0 1 .36.88 6.07 6.07 0 0 1 .13.94l-1.7.25a7.51 7.51 0 0 0-.07-.78 1.12 1.12 0 0 0-.22-.53.6.6 0 0 0-.49-.19.57.57 0 0 0-.51.26 1 1 0 0 0-.17.57 1.46 1.46 0 0 0 .23.84 4.06 4.06 0 0 0 .65.69l1 .87a5.46 5.46 0 0 1 1 1.2 3.07 3.07 0 0 1 .44 1.68 2.52 2.52 0 0 1-.31 1.23 2.27 2.27 0 0 1-.87.87 2.66 2.66 0 0 1-1.31.27ZM72.94 162v-8.25h-1.5v-1.45h5v1.47h-1.5V162ZM76.46 162l1.88-9.72h2.2l1.87 9.72h-1.83l-.35-2.14h-1.54l-.37 2.14Zm2.41-3.35H80l-.59-3.92ZM85.75 162.16a2.65 2.65 0 0 1-1.56-.41 2.21 2.21 0 0 1-.82-1.18 5.6 5.6 0 0 1-.25-1.77v-3.25a5.63 5.63 0 0 1 .25-1.8 2.15 2.15 0 0 1 .88-1.16 3 3 0 0 1 1.71-.41 3.21 3.21 0 0 1 1.65.35 1.93 1.93 0 0 1 .87 1 3.84 3.84 0 0 1 .27 1.51v.57h-1.93v-.69a4.61 4.61 0 0 0 0-.68.83.83 0 0 0-.22-.46.81.81 0 0 0-.56-.17.72.72 0 0 0-.58.21 1 1 0 0 0-.23.52 4.88 4.88 0 0 0 0 .68v4.31a3.29 3.29 0 0 0 .07.73 1 1 0 0 0 .27.5.81.81 0 0 0 .57.18.77.77 0 0 0 .57-.19 1.06 1.06 0 0 0 .29-.52 3.42 3.42 0 0 0 .07-.75v-1H86V157h2.73v5h-1.25l-.12-.88a1.73 1.73 0 0 1-.58.73 1.64 1.64 0 0 1-1.03.31ZM90.13 162v-9.7h4.23v1.37h-2.25v2.58h1.74v1.38h-1.74v3h2.28V162ZM98.14 162v-1.31l2.37-3.64.5-.78a4.49 4.49 0 0 0 .38-.76 2.31 2.31 0 0 0 .15-.83 1.24 1.24 0 0 0-.18-.72.61.61 0 0 0-.52-.24.7.7 0 0 0-.55.2 1 1 0 0 0-.26.52 3.11 3.11 0 0 0-.07.71v.45h-1.82v-.48a4.05 4.05 0 0 1 .27-1.53 2.18 2.18 0 0 1 .86-1.05 2.67 2.67 0 0 1 1.53-.38 2.56 2.56 0 0 1 1.93.67 2.62 2.62 0 0 1 .65 1.88 3.16 3.16 0 0 1-.18 1.09 4.78 4.78 0 0 1-.48 1c-.19.31-.4.63-.63.95l-1.87 2.82h2.89V162Z" style="fill:#263238"/><path style="fill:none;stroke:#263238;stroke-miterlimit:10" d="M65.36 170.97h48.76M65.36 177.75h48.76M65.36 184.53h48.76M65.36 191.32h48.76M222.52 199.39h-58.2v-46.66h-51.24"/><path d="M68.49 89a3.08 3.08 0 0 1-1.5-.33 2.07 2.07 0 0 1-.9-1 4.47 4.47 0 0 1-.36-1.7l1.71-.29a4.48 4.48 0 0 0 .12 1 1.21 1.21 0 0 0 .31.6.76.76 0 0 0 .53.2.55.55 0 0 0 .52-.24 1.1 1.1 0 0 0 .14-.55 1.72 1.72 0 0 0-.3-1 4.83 4.83 0 0 0-.77-.83L67 84a4.08 4.08 0 0 1-.88-1 2.72 2.72 0 0 1-.34-1.42 2.36 2.36 0 0 1 .7-1.84 2.73 2.73 0 0 1 1.9-.74 2.61 2.61 0 0 1 1.2.24 1.76 1.76 0 0 1 .73.64 2.72 2.72 0 0 1 .36.88 6.07 6.07 0 0 1 .13.94l-1.7.3c0-.29 0-.55-.07-.78a1.12 1.12 0 0 0-.22-.53.63.63 0 0 0-.49-.19.57.57 0 0 0-.51.26 1 1 0 0 0-.17.57 1.49 1.49 0 0 0 .23.85 4.06 4.06 0 0 0 .65.69l1 .86a5.29 5.29 0 0 1 1 1.21 3 3 0 0 1 .48 1.64 2.56 2.56 0 0 1-.31 1.24 2.32 2.32 0 0 1-.87.86 2.66 2.66 0 0 1-1.33.32ZM72.94 88.86v-8.24h-1.5v-1.48h5v1.48h-1.5v8.24ZM76.46 88.86l1.88-9.72h2.2l1.87 9.72h-1.83l-.35-2.14h-1.54l-.37 2.14Zm2.41-3.35H80l-.59-3.92ZM85.75 89a2.58 2.58 0 0 1-1.56-.41 2.21 2.21 0 0 1-.82-1.18 5.52 5.52 0 0 1-.25-1.77v-3.25a5.71 5.71 0 0 1 .25-1.8 2.15 2.15 0 0 1 .88-1.16A3.13 3.13 0 0 1 86 79a3.32 3.32 0 0 1 1.65.35 1.93 1.93 0 0 1 .87 1 3.88 3.88 0 0 1 .27 1.51v.57h-1.97v-.69a4.36 4.36 0 0 0 0-.67.86.86 0 0 0-.22-.47.81.81 0 0 0-.56-.16.72.72 0 0 0-.58.2 1.08 1.08 0 0 0-.23.52 4.88 4.88 0 0 0 0 .68v4.31a3.29 3.29 0 0 0 .07.73.93.93 0 0 0 .27.5.81.81 0 0 0 .57.18.77.77 0 0 0 .57-.19 1.06 1.06 0 0 0 .29-.52 3.42 3.42 0 0 0 0-.75v-1h-1v-1.2h2.73v5h-1.25l-.12-.9a1.83 1.83 0 0 1-.58.74 1.7 1.7 0 0 1-1.03.26ZM90.13 88.86v-9.72h4.23v1.37h-2.25v2.58h1.74v1.38h-1.74v3h2.28v1.34ZM99.34 88.86v-7.8l-.29.13-.4.14-.41.14-.3.12v-1.37l.39-.19.52-.27a3.76 3.76 0 0 0 .52-.31 1.86 1.86 0 0 0 .38-.31h1.44v9.72Z" style="fill:#263238"/><path style="fill:none;stroke:#263238;stroke-miterlimit:10" d="M65.36 97.81h48.76M65.36 104.59h48.76M65.36 111.38h48.76M65.36 118.16h48.76M222.52 133.06h-58.2V84.25h-51.24"/><path d="M412.54 465.13a20 20 0 0 1-4.48 5.92c-2.72 2.24-7.68 5.93-8.8 6.89s-1 1.92 2.88 3 9.44 1.12 12.32 0 5.61-1 7.05-1.6 2.24-1.28 2.4-2.88-1.28-11.46-1.28-11.46Z" style="fill:#3c37d8;stroke:#263238;stroke-linecap:round;stroke-linejoin:round"/><path d="M423.89 475.36a40.44 40.44 0 0 0-5.58 2.1c-4.65 2.08-5.45 2.72-11.21 2.72a11.34 11.34 0 0 1-7.49-2.53l-.35.29c-1.12 1-1 1.92 2.88 3s9.44 1.12 12.32 0 5.61-1 7.05-1.6 2.24-1.28 2.4-2.88a9.29 9.29 0 0 0-.02-1.1Z" style="fill:#fff;stroke:#263238;stroke-linecap:round;stroke-linejoin:round"/><path d="M431.27 466.89s-2.88 9-4.16 11.21-4.16 4.48-4 6.08 3 2.08 8 2.08 8.33-1 9.77-3.52 1.6-3.2 2.4-4.8-.48-11.21-.48-11.21-10.09.32-11.53.16Z" style="fill:#3c37d8;stroke:#263238;stroke-linecap:round;stroke-linejoin:round"/><path d="M440.88 482.74c1.44-2.56 1.6-3.2 2.4-4.8a8.91 8.91 0 0 0 .24-3.17c-.59 1-1.26 2.28-2 3.65-1.92 3.52-3 5.12-9.61 5.44a25.81 25.81 0 0 1-8.57-.71 2 2 0 0 0-.23 1c.16 1.6 3 2.08 8 2.08s8.33-.93 9.77-3.49Z" style="fill:#fff;stroke:#263238;stroke-linecap:round;stroke-linejoin:round"/><path d="M398 355.64s-.8 15.85-.16 28 7.36 35.22 7.36 35.22 3.2 19.53 4.16 25.13 3 18.25 3 18.25l10.89-.64v-18.4c0-3.36-.48-24.49-.48-24.49s5.6 28.81 6.08 32 1.6 12.65 1.6 12.65a24.83 24.83 0 0 0 5.6 1.12c2.08 0 7.21-1.44 7.21-1.44s1.92-19.21 1.76-25-2.72-14.41-3.52-17-3.21-10.08-3-10.72 1.93-21.77 1.93-26.1v-11.45l-3.37-17-1.44-2.56s-18.73 3.2-27.21 1-10.72-2.88-10.72-2.88Z" style="fill:#263238;stroke:#263238;stroke-linecap:round;stroke-linejoin:round"/><path d="m409.5 377.09 5.92 4.48s3.53 24.17 5.61 31.7" style="fill:none;stroke:#949494;stroke-linecap:round;stroke-linejoin:round"/><path d="M410.62 457.61s5.76-.16 9.77-.16 4.64.16 4.64 1.12.48 6.72 0 7.36-5.12.64-7.52.64-5.61.48-5.93-1a37.21 37.21 0 0 0-.8-4.48c-.48-1.24-1.12-2.36-.16-3.48ZM429 458.73a6.34 6.34 0 0 0-.32 2.4 49.16 49.16 0 0 1 .48 5.44c0 1.44-.32 1.12 3 2.24s10.57 0 11.37-1 .8-6.08.8-7.2-.32-1.6-1.44-1.28-6.89 1.28-9 .8a21.4 21.4 0 0 1-3.52-1.12s-1.02-1.24-1.37-.28ZM430.63 285.69l-6.08-3.2-15.21 4.16s-4.32 7.52-5.12 13.93-1.92 38.73-1.92 44.66-.32 10.4-.32 10.4 4 2.88 11 3.2a78.9 78.9 0 0 0 13.13-.32c1.6-.16 6.88-3.2 6.88-3.2s-1-30.41-1-34.74 3-24.81 3.68-27.69-5.04-7.2-5.04-7.2Z" style="fill:#707070;stroke:#263238;stroke-linecap:round;stroke-linejoin:round"/><path d="M421.44 288.54c1.12 3.07-.93 6.63-4.57 8s-7.5-.08-8.62-3.15.93-6.63 4.57-8 7.5.08 8.62 3.15Z" style="fill:#fff;stroke:#263238;stroke-linecap:round;stroke-linejoin:round"/><path d="M412.86 290.65s5.93 6.56 6.41 6.24 9.12-12.16 9.12-12.16l-2.24-3.68ZM412.38 283.45a18.16 18.16 0 0 1-1.76 3c-.8 1-2.88 8.32-2.88 8.32l5.12-4.16s.32-4.64.48-5.76a1.33 1.33 0 0 0-.96-1.4Z" style="fill:#fff;stroke:#263238;stroke-linecap:round;stroke-linejoin:round"/><path d="M411.42 275.12a18.21 18.21 0 0 1 1 3.37c0 .8-.64 12.64.48 12.16s12.81-8.32 13.29-9.6-.32-9 0-10.89 1-4.8 1-4.8-4.64 4.8-8.32 6.88a29.72 29.72 0 0 1-7.45 2.88Z" style="fill:#b5b5b5;stroke:#263238;stroke-linecap:round;stroke-linejoin:round"/><path d="M412.38 278.49c0 .39-.15 3.43-.18 6.38l10.57-10.8-11.21 1.44a14.11 14.11 0 0 1 .82 2.98Z" style="fill:#263238;stroke:#263238;stroke-linecap:round;stroke-linejoin:round"/><path d="m440.24 336.27 3.2-11.68s1-15.55 2.62-22.21a21.91 21.91 0 0 1 5.7-10.29c-.8-1.44-10.72-4.16-13.77-5.28S427.27 283 427.27 283s-5.44 20.65-5.76 29.45-.8 14.25.48 22.73-5.59 28.7-2.23 33.83 10.19 5 13.32 5.66c6 1.33 14.16-2.21 14.32-3.33s-2.68-7-5.08-17.27a72.59 72.59 0 0 1-2.08-17.8Z" style="fill:#3c37d8;stroke:#263238;stroke-linecap:round;stroke-linejoin:round"/><path style="fill:none;stroke:#263238;stroke-linecap:round;stroke-linejoin:round" d="m437.95 353.15-13.45-1.64-.66 4.27 14.44 2.63"/><path d="M396.27 292.83a8 8 0 0 0-4.8 3.11c-1.7 2.54-15 36.73-15.26 38.71s1.41 5.08 4 6.21 3.39 3.39 4.24 2 9.33-13 9.33-13l3.67-32.77Z" style="fill:#3c37d8;stroke:#263238;stroke-linecap:round;stroke-linejoin:round"/><path d="M382.71 323.91s-7.91 9.89-8.2 12.15-.56 4.8.57 6.5 6.21 2.82 8.19 2 5.65-11.3 5.65-11.3ZM411.9 284.09a81.86 81.86 0 0 0-4.64 13.44 166.36 166.36 0 0 0-3 26.42c-.16 7.68-1.28 39.85-1.44 42.58s-2.24 4.16-5.28 4.8a21 21 0 0 1-6.73 0s3.36-22.89 3.52-26.57.16-9.13.16-12.17-1.49-18.59-1.61-22.24 2.91-16.72 3.39-17.52 8.75-4.1 9.39-4.58 4.48-2.88 6.24-4.16Z" style="fill:#3c37d8;stroke:#263238;stroke-linecap:round;stroke-linejoin:round"/><path style="fill:none;stroke:#263238;stroke-linecap:round;stroke-linejoin:round" d="m394.29 354.47 5.58-.66.99-2.95-5.91.65M424.87 337.55c-.16 2.88-.16 4.48-.16 4.48M432.11 291.07l.12 13.19-5.92 2.74 3.52 6.24s-2.93 13.09-4.29 20.19M432.07 286v3.23M401.21 331.29c-1.32-7.75-3.55-20.47-3.55-20.47l5.28-5.6-3.68-2.88s1.12-2.24 2.08-4 5.12-9.28 5.12-9.28M402 336c-.1-.65-.25-1.55-.43-2.63"/><path d="M406.16 256.33c-.5 0-6.74.4-7.07-4.66a5.9 5.9 0 0 1 4.1-6.27s-3.9-4.28 1.12-6.63 11-1.12 11-1.12-.58-3.9 4.05-2.75 7.79 6.39 7.92 6.9 6.54 2.62 8.67 5.95 1.5 7.64-.2 10.55a77.21 77.21 0 0 1-5.36 7.36 4.2 4.2 0 0 1-4.23.56c-2.45-1-4.07-1.78-3.94-3.79s-.51-7.41-1.14-8.12-2.11-1-5.17-.35-9.75 2.37-9.75 2.37Z" style="fill:#263238;stroke:#263238;stroke-linecap:round;stroke-linejoin:round"/><path d="M406.09 254.82a45.69 45.69 0 0 1-.73 6 132 132 0 0 0-2.27 13.94c-.2 3 3 5.4 4.66 5.51s4.46-1.38 7-1.88 9.41-2.9 10.53-4.5 1.48-2.08 1.48-2.08 5.26-1 6.05-5.3-2-4.84-4.1-3.8a16.24 16.24 0 0 0-3.16 2s-1.5-.1-1.25-1.26a13.59 13.59 0 0 0 .47-2.15c.06-.83-.41-1.37-.95-3.25s-.89-1.73-.12-3.36 2.32-4.54 2.32-4.54-14.45.51-19.93 4.67Z" style="fill:#b5b5b5;stroke:#263238;stroke-linecap:round;stroke-linejoin:round"/><path d="M413.11 255.93a7 7 0 0 1 4.1.76M408.81 255.65a3.15 3.15 0 0 0-2.6-.09M407.08 270.15s2.11 1.15 4.92-.85" style="fill:none;stroke:#263238;stroke-linecap:round;stroke-linejoin:round"/><path d="M415.35 259.29a1 1 0 0 1-1.06.94 1 1 0 1 1 .13-2 1 1 0 0 1 .93 1.06ZM408 258.3a.84.84 0 1 1-.78-.89.83.83 0 0 1 .78.89Z" style="fill:#263238"/><path d="M409.43 258.54s-6.62 5.29-6.08 7.17 6.09 1.75 6.09 1.75M386.1 314.3l3.67-3.39s4.24 2 4 4-7.67-.61-7.67-.61Z" style="fill:#b5b5b5;stroke:#263238;stroke-linecap:round;stroke-linejoin:round"/><path d="m384.39 315.88 3.68-3.39s4.24 2 3.95 4-7.63-.61-7.63-.61ZM398.33 314.86s.36-3 1.7-3 2.55.85 2.19 2.43a17.92 17.92 0 0 1-1.22 3.29ZM389.77 310.91s0-1.41 3.11-.56 4.8 4.24 3.95 5.65-3.1-1.13-3.1-1.13-1.13-3.11-3.96-3.96Z" style="fill:#b5b5b5;stroke:#263238;stroke-linecap:round;stroke-linejoin:round"/><path style="fill:#263238;stroke:#263238;stroke-linecap:round;stroke-linejoin:round" d="m374.19 313.64 13.65 30.64 24.64 1.99-11.65-31.3-26.64-1.33z"/><path d="M445.73 289.5s-5.18 2.06-6.19 5.71 0 38.31 0 38.31l-23.45-1.13-.85 10.73 28.86 7.35s4.2.9 6.26-1.8 4.91-41 5.26-45.09.64-9.92-2.9-11.81a15.31 15.31 0 0 0-6.99-2.27Z" style="fill:#3c37d8;stroke:#263238;stroke-linecap:round;stroke-linejoin:round"/><path d="M439.5 333.52s4.36.92 6.66 2.89" style="fill:none;stroke:#263238;stroke-linecap:round;stroke-linejoin:round"/><path d="M416.05 332.39s-1.13.56-4.24-1.7a13.12 13.12 0 0 0-5.65-2.54l.56 3.11s-9.32 1.13-10.17 2-1.69 3.11.57 4 2.82 0 3.67 1.41a14.36 14.36 0 0 0 5.65 4.24c1.7.56 9-2.26 9-2.26Z" style="fill:#b5b5b5;stroke:#263238;stroke-linecap:round;stroke-linejoin:round"/></svg>